<svg xmlns="http://www.w3.org/2000/svg" width="55.001" height="38.506" viewBox="0 0 55.001 38.506">
  <g id="Group_1098" data-name="Group 1098" transform="translate(-13911.188 -8468.234)" opacity="0.8">
    <path id="Path_988" data-name="Path 988" d="M13966.188,8489.963a.711.711,0,0,0-.111.165,2.714,2.714,0,0,1-2.6,1.962c-.125.01-.251.006-.376.006h-48.814a3.05,3.05,0,0,1-2.23-.74,2.669,2.669,0,0,1-.867-2.008q0-9.186,0-18.37a2.65,2.65,0,0,1,2.65-2.727c.161-.008.322-.011.483-.011q24.354,0,48.708-.007a2.881,2.881,0,0,1,2.532,1,8.281,8.281,0,0,1,.621,1.169Zm-27.556.26h24.38c1.109,0,1.346-.239,1.346-1.358v-17.4c0-1.134-.247-1.379-1.387-1.38h-48.547c-1.146,0-1.408.266-1.408,1.432q0,8.675,0,17.35a3.673,3.673,0,0,0,.048.639.779.779,0,0,0,.811.707c.214.008.429.015.643.015Z"/>
    <path id="Path_989" data-name="Path 989" d="M13928.7,8506.74a.939.939,0,0,1-1.006-.677.773.773,0,0,1,.4-.946,8.907,8.907,0,0,0,.826-.59c.767-.662.768-1.2-.026-1.85-.483-.393-1.038-.7-1.522-1.09a5.333,5.333,0,0,1-.964-.993,2.606,2.606,0,0,1,.075-3.362,8.165,8.165,0,0,1,1.63-1.364.78.78,0,0,1,1.165.237.877.877,0,0,1-.243,1.259,8.4,8.4,0,0,0-.962.849.951.951,0,0,0,.1,1.572,8.76,8.76,0,0,0,1.2.8,4.135,4.135,0,0,1,1.739,1.837,2.589,2.589,0,0,1-.126,2.466,4.671,4.671,0,0,1-1.909,1.754A1.351,1.351,0,0,1,13928.7,8506.74Z"/>
    <path id="Path_990" data-name="Path 990" d="M13941.455,8501.665a2.773,2.773,0,0,1-.766,1.91,10.11,10.11,0,0,1-1.445,1.182.985.985,0,0,1-1.371-.288c-.286-.47-.15-.88.408-1.253a7,7,0,0,0,.7-.494c.8-.689.8-1.267-.047-1.925-.491-.384-1.062-.672-1.526-1.085a5.4,5.4,0,0,1-1.136-1.334,2.481,2.481,0,0,1,.313-3,8.241,8.241,0,0,1,1.588-1.336.778.778,0,0,1,1.172.2.9.9,0,0,1-.217,1.278,8.768,8.768,0,0,0-.962.851.958.958,0,0,0,.091,1.575,9.813,9.813,0,0,0,1.246.827A3.636,3.636,0,0,1,13941.455,8501.665Z"/>
    <path id="Path_991" data-name="Path 991" d="M13948.981,8506.732c-.622.017-.955-.184-1.106-.629a.791.791,0,0,1,.4-1,7.1,7.1,0,0,0,.946-.7.949.949,0,0,0,0-1.6,5.109,5.109,0,0,0-.553-.42c-.422-.3-.866-.572-1.269-.9a2.967,2.967,0,0,1-.075-4.974,5.827,5.827,0,0,1,1.066-.711.753.753,0,0,1,1.036.27.927.927,0,0,1-.133,1.215,12.646,12.646,0,0,0-1.109,1,.893.893,0,0,0,.082,1.412c.368.329.844.538,1.221.859a8.7,8.7,0,0,1,1.6,1.536,2.486,2.486,0,0,1-.058,2.968A4.107,4.107,0,0,1,13948.981,8506.732Z"/>
    <path id="Path_992" data-name="Path 992" d="M13938.687,8482.887q11.225,0,22.45,0a2.918,2.918,0,0,1,.794.087.8.8,0,0,1,.586.912.791.791,0,0,1-.658.8,3.743,3.743,0,0,1-.692.063q-22.478,0-44.955,0c-.944,0-1.351-.278-1.361-.922s.418-.951,1.387-.951Z"/>
    <path id="Path_993" data-name="Path 993" d="M13938.688,8488.432h-22.29c-.161,0-.322.008-.483,0-.687-.04-1.073-.388-1.065-.951s.4-.892,1.092-.926c.089,0,.179,0,.269,0h44.955c.935,0,1.351.285,1.36.926.01.658-.417.954-1.388.954Z"/>
    <path id="Path_994" data-name="Path 994" d="M13938.653,8476.511c-1.162,0-2.324.016-3.485,0-.8-.014-1.251-.544-1-1.2a1.48,1.48,0,0,1,.6-.594,1.152,1.152,0,0,1,.575-.08q3.352-.006,6.7,0a2.72,2.72,0,0,1,.582.072.9.9,0,0,1,.037,1.719,2.911,2.911,0,0,1-.688.081C13940.869,8476.516,13939.761,8476.512,13938.653,8476.511Z"/>
  </g>
</svg>
