<svg xmlns="http://www.w3.org/2000/svg" xmlns:xlink="http://www.w3.org/1999/xlink" width="105" height="105" viewBox="0 0 105 105">
  <defs>
    <filter id="Ellipse_220" x="0" y="0" width="105" height="105" filterUnits="userSpaceOnUse">
      <feOffset dy="3" input="SourceAlpha"/>
      <feGaussianBlur stdDeviation="3" result="blur"/>
      <feFlood flood-opacity="0.161"/>
      <feComposite operator="in" in2="blur"/>
      <feComposite in="SourceGraphic"/>
    </filter>
    <clipPath id="clip-path">
      <rect id="Rectangle_10561" data-name="Rectangle 10561" width="39.763" height="44.527" fill="#fff"/>
    </clipPath>
  </defs>
  <g id="Group_11752" data-name="Group 11752" transform="translate(-302.412 -244)">
    <g transform="matrix(1, 0, 0, 1, 302.41, 244)" filter="url(#Ellipse_220)">
      <circle id="Ellipse_220-2" data-name="Ellipse 220" cx="43.5" cy="43.5" r="43.5" transform="translate(9 6)" fill="#f37521"/>
    </g>
    <g id="Group_11751" data-name="Group 11751" transform="translate(335.031 271.236)">
      <g id="Group_11750" data-name="Group 11750" clip-path="url(#clip-path)">
        <path id="Path_4722" data-name="Path 4722" d="M31.545,0c.506.111,1.022.185,1.515.338a8.777,8.777,0,0,1,6.605,7.6,8.769,8.769,0,0,1-4.317,9.015.634.634,0,0,0-.348.616c.017,1.188.008,2.377.006,3.565a2.435,2.435,0,0,1-.023.433.843.843,0,0,1-.928.727.818.818,0,0,1-.779-.834c-.016-1.014-.007-2.029-.008-3.044,0-.155,0-.31,0-.516a9.84,9.84,0,0,1-4.187.251v.594q0,8.848,0,17.7a3.152,3.152,0,0,1-2.193,3.237,4.293,4.293,0,0,1-1.24.159q-8.7.015-17.391.007H7.727a15.719,15.719,0,0,0,.018,1.917A1.33,1.33,0,0,0,9,42.782c.13.01.261,0,.391,0h22.13c1.22,0,1.743-.523,1.743-1.748q0-5.674,0-11.348a4.257,4.257,0,0,1,.015-.521.854.854,0,0,1,1.643-.187,1.945,1.945,0,0,1,.078.6q.006,5.783,0,11.565a3.181,3.181,0,0,1-3.375,3.38q-11.174,0-22.348,0a3.171,3.171,0,0,1-3.351-3.313c-.006-.433,0-.866,0-1.35-.171-.008-.309-.02-.447-.021-.754,0-1.507.005-2.261,0a3.142,3.142,0,0,1-3.2-2.919A5.035,5.035,0,0,1,0,36.4Q0,20.856,0,5.313A3.163,3.163,0,0,1,2.176,2.06,4.372,4.372,0,0,1,3.458,1.9q10.565-.014,21.13,0a1.435,1.435,0,0,0,.88-.277A8.788,8.788,0,0,1,29.478.077,1.328,1.328,0,0,0,29.718,0Zm-8.2,3.631H3.359a1.424,1.424,0,0,0-1.514.919,2.68,2.68,0,0,0-.1.813q-.007,15.5,0,31c0,.116,0,.232,0,.348A1.41,1.41,0,0,0,3.221,38.1q11.325.006,22.65,0a1.4,1.4,0,0,0,1.461-1.359c.014-.158.009-.319.009-.478,0-5.884-.013-11.767.018-17.651a1.221,1.221,0,0,0-.829-1.35,8.488,8.488,0,0,1-3.588-3.205,6.014,6.014,0,0,1-.79.107q-7.608.009-15.216,0c-.788,0-1.1-.316-1.106-1.11,0-1.015,0-2.029,0-3.043s.246-1.26,1.253-1.26h14.43a9.371,9.371,0,0,1,1.831-5.124m-.091,5.506a7.394,7.394,0,1,0,7.364-7.4,7.387,7.387,0,0,0-7.364,7.4m-1.769,1.382H7.6v1.888H21.484Z" transform="translate(0)" fill="#fff"/>
        <path id="Path_4723" data-name="Path 4723" d="M123.008,89.91a.868.868,0,0,1,.855.862.879.879,0,0,1-.907.857.854.854,0,0,1-.821-.887.843.843,0,0,1,.873-.832" transform="translate(-88.863 -65.416)" fill="#fff"/>
        <path id="Path_4724" data-name="Path 4724" d="M30.107,95.094q-3.738,0-7.476,0a2.945,2.945,0,0,1-.519-.029.851.851,0,0,1-.038-1.661,2.885,2.885,0,0,1,.6-.046q7.454,0,14.908,0a3.021,3.021,0,0,1,.562.038.852.852,0,0,1-.046,1.678,3.633,3.633,0,0,1-.52.021H30.107" transform="translate(-15.591 -67.923)" fill="#fff"/>
        <path id="Path_4725" data-name="Path 4725" d="M30.133,64.841q-3.76,0-7.519,0A2.407,2.407,0,0,1,22.1,64.8a.852.852,0,0,1,.084-1.678A4.094,4.094,0,0,1,22.7,63.1H37.566a4.145,4.145,0,0,1,.521.019A.853.853,0,0,1,38.17,64.8a2.393,2.393,0,0,1-.518.04q-3.759,0-7.519,0" transform="translate(-15.593 -45.911)" fill="#fff"/>
        <path id="Path_4726" data-name="Path 4726" d="M30.13,108.519q3.847,0,7.694,0a.929.929,0,0,1,.888.431.864.864,0,0,1-.62,1.3,2.58,2.58,0,0,1-.433.016H22.618c-.1,0-.2,0-.3,0a.883.883,0,0,1-.881-.888.869.869,0,0,1,.917-.845c1.753-.007,3.506,0,5.26,0H30.13" transform="translate(-15.594 -78.954)" fill="#fff"/>
        <path id="Path_4727" data-name="Path 4727" d="M30.093,79.959H22.616a3.815,3.815,0,0,1-.391-.007.864.864,0,0,1-.046-1.718,2.841,2.841,0,0,1,.434-.014h15.04a3.338,3.338,0,0,1,.391.008A.865.865,0,0,1,38,79.955c-.13.01-.261,0-.391,0h-7.52" transform="translate(-15.594 -56.91)" fill="#fff"/>
        <path id="Path_4728" data-name="Path 4728" d="M109.318,30.006c0-.941,0-1.881,0-2.822,0-.619.323-.99.84-1a.889.889,0,0,1,.894,1q.011,2.844,0,5.688a.887.887,0,0,1-.617.943.8.8,0,0,1-.952-.333,1.369,1.369,0,0,1-.16-.656c-.017-.94-.007-1.881-.007-2.822" transform="translate(-79.536 -19.049)" fill="#fff"/>
        <path id="Path_4729" data-name="Path 4729" d="M110.2,15.932a.861.861,0,0,1,.851.863.881.881,0,0,1-.858.866.866.866,0,0,1-.864-.9.841.841,0,0,1,.871-.834" transform="translate(-79.548 -11.592)" fill="#fff"/>
      </g>
    </g>
  </g>
</svg>
