<svg xmlns="http://www.w3.org/2000/svg" xmlns:xlink="http://www.w3.org/1999/xlink" width="24.766" height="24.772" viewBox="0 0 24.766 24.772">
  <defs>
    <clipPath id="clip-path">
      <rect id="Rectangle_1508" data-name="Rectangle 1508" width="24.766" height="24.772" fill="none"/>
    </clipPath>
  </defs>
  <g id="Group_11651" data-name="Group 11651" opacity="0.8">
    <g id="Group_2698" data-name="Group 2698" transform="translate(0 0)">
      <g id="Group_2697" data-name="Group 2697" clip-path="url(#clip-path)">
        <g id="Group_11650" data-name="Group 11650" transform="translate(0.002 -0.002)">
          <path id="Path_4704" data-name="Path 4704" d="M11952.659,1941.4v-9.959c0-.151,0-.265-.177-.354a1.646,1.646,0,0,1-.907-1.817,1.683,1.683,0,0,1,1.561-1.37,2.008,2.008,0,0,1,.209-.007h13.268a1.707,1.707,0,0,1,1.751,1.272,1.66,1.66,0,0,1-.884,1.922.266.266,0,0,0-.184.272q.007,4.946.006,9.89c0,.035.006.069.012.15h4.282c.582,0,.767.188.767.778v9.706c0,.591-.186.779-.766.779h-23.232c-.583,0-.768-.188-.768-.777v-9.706c0-.6.183-.779.8-.779h4.272m-3.921,10.113h22.466v-8.962h-22.466Zm10.647-20.229h-5.583v5.6h5.583Zm1.173,5.6h5.582v-5.6h-5.582Zm-6.755,4.491h5.583v-3.342h-5.583Zm6.75,0h5.589v-3.341h-5.59Zm-.609-11.233h6.563a1.959,1.959,0,0,0,.288-.008.531.531,0,0,0,.478-.566.524.524,0,0,0-.5-.541c-.1-.009-.193-.007-.291-.007h-13.018q-.158,0-.316.008a.508.508,0,0,0-.469.456c-.057.4.191.655.651.655h6.614" transform="translate(-11947.597 -1927.893)"/>
          <path id="Path_4705" data-name="Path 4705" d="M11951.412,1949.1c0-.9-.01-1.791.009-2.686a.9.9,0,0,1,.2-.542.532.532,0,0,1,.9.257,1.181,1.181,0,0,1,.032.287v5.348a1.033,1.033,0,0,1-.044.337.554.554,0,0,1-1.043,0,1.14,1.14,0,0,1-.043-.363V1949.1" transform="translate(-11948.037 -1929.951)"/>
          <path id="Path_4706" data-name="Path 4706" d="M11955.229,1949.1c0-.9-.011-1.791.01-2.686a.891.891,0,0,1,.2-.542.531.531,0,0,1,.9.257,1.1,1.1,0,0,1,.035.287v5.348a1.008,1.008,0,0,1-.044.337.553.553,0,0,1-1.042,0,1.14,1.14,0,0,1-.043-.363V1949.1" transform="translate(-11948.478 -1929.951)"/>
          <path id="Path_4707" data-name="Path 4707" d="M11959.046,1949.083v-2.714a.576.576,0,0,1,.5-.646.636.636,0,0,1,.071-.005c.338,0,.554.254.563.659v5.347a1.309,1.309,0,0,1-.034.338.551.551,0,0,1-1.064-.006,1.457,1.457,0,0,1-.032-.339v-2.634" transform="translate(-11948.92 -1929.952)"/>
          <path id="Path_4708" data-name="Path 4708" d="M11962.861,1949.094c0-.9-.011-1.791.009-2.686a.878.878,0,0,1,.2-.541.533.533,0,0,1,.752,0,.549.549,0,0,1,.141.262,1.239,1.239,0,0,1,.03.339v5.426a.564.564,0,0,1-.561.571h-.007a.56.56,0,0,1-.56-.561v-.019c-.013-.422,0-.843,0-1.265v-1.528" transform="translate(-11949.359 -1929.951)"/>
          <path id="Path_4709" data-name="Path 4709" d="M11966.679,1949.079v-2.607a1.611,1.611,0,0,1,.013-.265.559.559,0,0,1,.562-.49.553.553,0,0,1,.543.479,1.515,1.515,0,0,1,.016.265v5.269a1.268,1.268,0,0,1-.036.338.551.551,0,0,1-1.061.011,1.351,1.351,0,0,1-.038-.338v-2.661" transform="translate(-11949.802 -1929.951)"/>
          <path id="Path_4710" data-name="Path 4710" d="M11971.632,1949.083v2.634a1.512,1.512,0,0,1-.033.339.552.552,0,0,1-1.062.007,1.406,1.406,0,0,1-.032-.339v-5.268a1.357,1.357,0,0,1,.034-.338.552.552,0,0,1,1.063-.007,1.314,1.314,0,0,1,.036.338v2.634" transform="translate(-11950.244 -1929.951)"/>
        </g>
      </g>
    </g>
  </g>
</svg>
