<svg xmlns="http://www.w3.org/2000/svg" width="52.158" height="24.331" viewBox="0 0 52.158 24.331">
  <g id="Group_2606" data-name="Group 2606" transform="translate(-14041.963 -1819.744)" opacity="0.8">
    <path id="Path_2536" data-name="Path 2536" d="M14041.963,1824.174a13.549,13.549,0,0,1,1.028-2.286,4.916,4.916,0,0,1,4.227-2.137c.594-.007,1.188,0,1.782,0q18.1,0,36.2-.005a6.069,6.069,0,0,1,4.158,1.35,5.211,5.211,0,0,1,1.32,1.523c1.1,2.268,2.138,4.572,3.143,6.887a4.371,4.371,0,0,1,.279,1.637c.03,2.274.017,4.548.012,6.823a2.428,2.428,0,0,1-2.629,2.634c-1.323.009-2.647.011-3.972-.005a.486.486,0,0,0-.564.415,4.319,4.319,0,0,1-8.265.007.492.492,0,0,0-.561-.422q-10.081.014-20.162,0a.492.492,0,0,0-.566.415,4.318,4.318,0,0,1-8.264.005.485.485,0,0,0-.561-.421c-1.153.018-2.309.01-3.462.006a2.823,2.823,0,0,1-3.058-2.15.487.487,0,0,0-.088-.117Zm46.413-1.617c-.175-.157-.241-.226-.317-.282a4.587,4.587,0,0,0-2.836-.788q-15.379.01-30.76,0c-2.376,0-4.753-.01-7.129,0a3.426,3.426,0,0,0-3.634,3.642q-.009,6.188,0,12.375c0,.938.4,1.342,1.325,1.347,1.172.007,2.343-.01,3.514.01a.509.509,0,0,0,.6-.434,4.312,4.312,0,0,1,8.247.01.489.489,0,0,0,.559.423q10.083-.014,20.167,0c.314,0,.47-.071.571-.4a4.312,4.312,0,0,1,8.263,0,.483.483,0,0,0,.572.4c1.29-.014,2.58,0,3.87-.007.787,0,.988-.2.989-1q0-3.209,0-6.416c0-.148-.016-.294-.026-.471-1.349-.113-2.667-.231-3.984-.331-2.114-.161-4.229-.435-6.344-.444-10.864-.045-21.729-.02-32.594-.021a3.323,3.323,0,0,1-.608-.023.811.811,0,0,1-.753-.825c-.013-1.748-.017-3.5,0-5.245a.809.809,0,0,1,.835-.845c.2-.018.406-.011.609-.011,10.865,0,21.729.033,32.594-.03C14084.156,1823.189,14086.2,1822.79,14088.376,1822.557Zm-4.686,2.309c0,1.063.018,2.1-.009,3.125-.011.407.1.548.527.575,1.471.093,2.939.239,4.408.361,1.041.086,2.083.166,3.124.249.007-.086.022-.124.011-.151-.694-1.543-1.384-3.089-2.1-4.621a.573.573,0,0,0-.471-.219c-.893.083-1.783.2-2.674.314C14085.584,1824.616,14084.662,1824.739,14083.69,1824.866Zm-9.515.124v3.427h7.736v-3.427Zm-9.635.008h-6.893v3.419h6.893Zm1.8,0v3.4h6.02V1825Zm-16.55,3.423h6.044V1825h-6.044v3.422Zm3.49,13.906a2.585,2.585,0,0,0,2.574-2.6,2.6,2.6,0,1,0-2.574,2.6Zm29.521,0a2.6,2.6,0,0,0,2.614-2.571,2.6,2.6,0,1,0-5.2-.018A2.583,2.583,0,0,0,14082.806,1842.33Z"/>
  </g>
</svg>
