<svg xmlns="http://www.w3.org/2000/svg" width="25.631" height="25.63" viewBox="0 0 25.631 25.63">
  <g id="Group_1839" data-name="Group 1839" transform="translate(0)" opacity="0.8">
    <path id="Path_3797" data-name="Path 3797" d="M11943.629,1594.21c.024-.061.049-.121.071-.182a1.082,1.082,0,0,1,.8-.752.318.318,0,0,0,.277-.283,1.555,1.555,0,0,1,1.32-1.238.4.4,0,0,0,.326-.251,2.448,2.448,0,0,1,4.441,0,.332.332,0,0,0,.3.231,5.581,5.581,0,0,1,.647.177.314.314,0,0,0,.236-.02,1.807,1.807,0,0,1,3.034,1.259.323.323,0,0,0,.025.059h10.652c0-.088.011-.177.011-.265v-7.861a.86.86,0,0,0-.962-.952h-1.829a.846.846,0,0,0-.894.794.837.837,0,0,0,0,.1v1.642c.045.019.068.041.088.037.442-.081.684.177.915.5a4.551,4.551,0,0,1,.866,2.128.315.315,0,0,0,.178.219,1.149,1.149,0,0,1,.9,1.121c.012.208.009.418,0,.626-.011.277-.132.395-.405.4h-7.359c-.252,0-.389-.113-.4-.354a5.323,5.323,0,0,1,.031-.873,1.03,1.03,0,0,1,.824-.9.265.265,0,0,0,.231-.269,4.365,4.365,0,0,1,1.149-2.448.556.556,0,0,1,.3-.136,2.416,2.416,0,0,1,.406-.005c0-.163-.006-.3,0-.442a14.592,14.592,0,0,1,.108-1.991,3.044,3.044,0,0,1,2.592-2.379,1.162,1.162,0,0,0,.188-.057h2.453c.062.02.125.037.187.058a6.287,6.287,0,0,1,1.121.4,3.032,3.032,0,0,1,1.578,2.772c.012,2.611,0,5.223,0,7.835v.3l.242.05a1.085,1.085,0,0,1,.936.973,3.259,3.259,0,0,1,0,.872,1.092,1.092,0,0,1-.952.984l-.229.049v.282c0,1.218.021,2.437-.006,3.655a5.088,5.088,0,0,1-2.673,4.56c-.062.036-.119.081-.184.124.115.273.229.524.325.781a1.877,1.877,0,0,1,.13.5,1.327,1.327,0,0,1-2.525.645c-.187-.4-.354-.81-.519-1.219a.271.271,0,0,0-.3-.2q-5.859.007-11.716,0a.274.274,0,0,0-.292.2c-.163.4-.328.8-.507,1.2a1.327,1.327,0,0,1-2.444-1.036q.141-.362.3-.714a.18.18,0,0,0-.089-.278,5.119,5.119,0,0,1-2.707-4.739v-3.768c-.6-.122-.858-.265-1.042-.6a4.4,4.4,0,0,1-.177-.408Zm1.9,1.895c0,.105-.011.187-.011.265,0,1.252,0,2.5,0,3.755a4.456,4.456,0,0,0,4.453,4.46h.021q6.457.007,12.913,0a4.455,4.455,0,0,0,4.472-4.441v-.02c0-1.252,0-2.5,0-3.755,0-.088-.007-.177-.012-.266Zm10.917-2.211h-11.264c-.821,0-.866.045-.865.856,0,.555.118.676.67.676h22.7c.854,0,.893-.037.892-.884,0-.521-.129-.651-.646-.651Zm4.96-7.2c.006-.095.015-.177.015-.257v-1.351a1.557,1.557,0,0,1,1.482-1.626c.046,0,.092,0,.137,0h1.7a1.568,1.568,0,0,1,1.706,1.417,1.529,1.529,0,0,1,0,.3v8.028h.921c0-.077.011-.134.011-.192,0-2.7,0-5.389,0-8.083a2.447,2.447,0,0,0-2.4-2.4c-.683-.006-1.367,0-2.051,0a2.411,2.411,0,0,0-2.377,1.971,11.532,11.532,0,0,0-.059,1.569c-.006.205,0,.411,0,.642h.681c.07,0,.144-.012.232-.018Zm-7.011,6.516a.637.637,0,0,0,.015-.077,1.115,1.115,0,0,0-.761-1.013,1.133,1.133,0,0,0-1.3.442c-.216.294-.358.316-.63.079a.981.981,0,0,0-.761-.245c-.457.037-.457.035-.605-.415a1.794,1.794,0,0,0-3.436.083c-.051.165-.114.32-.32.332-.107.006-.217-.005-.325,0a.9.9,0,0,0-.837.815Zm8.908-3.706a3.611,3.611,0,0,0-.771-1.95.443.443,0,0,0-.4-.2,17.3,17.3,0,0,1-1.926-.012,1.048,1.048,0,0,0-1.149.683,3.814,3.814,0,0,0-.455,1.475Zm1.041,1.516c.1-.64-.062-.831-.666-.831-1.834,0-3.67.013-5.5-.01-.442-.006-.77.236-.591.84Zm-14.683,14.265c-.442-.1-.843-.187-1.244-.265a.162.162,0,0,0-.136.069,8.29,8.29,0,0,0-.364.924.66.66,0,0,0,1.192.5c.211-.395.372-.811.556-1.224Zm13.584,0c.016.045.023.088.039.121.142.337.274.677.431,1.007a.67.67,0,0,0,1.238-.509q-.146-.4-.331-.778a.2.2,0,0,0-.16-.1c-.393.073-.787.164-1.211.258Z" transform="translate(-11943.621 -1581.841)"/>
  </g>
</svg>
