<svg xmlns="http://www.w3.org/2000/svg" width="35.001" height="18.435" viewBox="0 0 35.001 18.435">
  <g id="Group_1192" data-name="Group 1192" transform="translate(-11811.264 -8519.664)" opacity="0.8">
    <path id="Path_1123" data-name="Path 1123" d="M11846.265,8532.371a4.026,4.026,0,0,1-.683,1.542,2.961,2.961,0,0,1-2.461,1.178.938.938,0,0,0-1.087.669,3.881,3.881,0,0,1-3.729,2.335,3.991,3.991,0,0,1-3.64-2.736.315.315,0,0,0-.358-.259q-5.739.01-11.481,0c-.224,0-.3.076-.374.283a3.972,3.972,0,0,1-7.54-.016c-.075-.228-.181-.265-.386-.267a3.125,3.125,0,0,1-3.26-3.27c0-.6,0-1.207,0-1.812a3.149,3.149,0,0,1,2.431-3.18c1.642-.452,3.286-.9,4.925-1.358a.953.953,0,0,0,.457-.31q1.465-1.888,2.905-3.8a4.005,4.005,0,0,1,3.336-1.7q5.21-.016,10.423,0a3.923,3.923,0,0,1,3.491,1.968c.74,1.188,1.48,2.375,2.236,3.553a1.2,1.2,0,0,0,.47.408c.766.371,1.544.722,2.321,1.069a3.155,3.155,0,0,1,1.945,2.34c.006.029.038.053.059.078Zm-11.79,1.3c.021-.109.029-.165.039-.22a3.987,3.987,0,0,1,3.957-3.331,3.921,3.921,0,0,1,3.833,3.088c.094.41.25.525.621.463a.9.9,0,0,1,.1,0,1.71,1.71,0,0,0,1.8-1.808c0-.7,0-1.391,0-2.085a1.785,1.785,0,0,0-1.137-1.775c-.881-.4-1.767-.784-2.633-1.211a1.684,1.684,0,0,1-.646-.567c-.793-1.221-1.571-2.453-2.321-3.7a2.688,2.688,0,0,0-2.508-1.4q-5.042.028-10.081,0a2.856,2.856,0,0,0-2.452,1.226q-1.49,2-3.031,3.96a1.668,1.668,0,0,1-.708.478c-.443.167-.916.262-1.375.388-1.324.364-2.652.719-3.975,1.095a1.639,1.639,0,0,0-1.258,1.56c-.018.729-.021,1.459,0,2.187a1.661,1.661,0,0,0,1.432,1.624c.556.1.571.084.683-.47.011-.056.013-.114.028-.168a4.034,4.034,0,0,1,4.087-2.876,3.984,3.984,0,0,1,3.65,3.2c.055.3.15.356.427.355q5.553-.012,11.106,0Zm-15.779,2.949a2.528,2.528,0,0,0,2.519-2.517,2.535,2.535,0,1,0-5.069,0A2.532,2.532,0,0,0,11818.7,8536.619Zm19.751,0a2.535,2.535,0,1,0-2.541-2.531A2.537,2.537,0,0,0,11838.446,8536.62Z"/>
  </g>
</svg>
