<svg xmlns="http://www.w3.org/2000/svg" width="25.626" height="18.188" viewBox="0 0 25.626 18.188">
  <g id="Group_1838" data-name="Group 1838" transform="translate(0)" opacity="0.8">
    <path id="Path_3796" data-name="Path 3796" d="M11944.458,1532.875c-.067-.01-.1-.017-.134-.019-.637-.027-.694-.088-.694-.734v-1.136c0-.454.123-.576.585-.582.069,0,.136-.007.242-.012v-.28c0-.885.03-1.777-.008-2.663a1.769,1.769,0,0,1,1.481-2.017c.06-.009.121-.015.182-.018v-6.843a1.673,1.673,0,0,1,1.835-1.826h16.99a1.673,1.673,0,0,1,1.835,1.5,1.619,1.619,0,0,1,0,.33v6.84c.164.034.315.055.462.1a1.649,1.649,0,0,1,1.192,1.627c0,.983,0,1.965,0,2.948v.319h.344c.331.01.479.162.481.5.006.474,0,.948,0,1.422,0,.381-.147.521-.537.525h-.289v1.435c0,.525-.111.634-.638.634h-.905a.436.436,0,0,1-.494-.366c0-.015,0-.03,0-.045-.1-.488-.205-.973-.293-1.466-.027-.153-.089-.2-.239-.193-.241.01-.482,0-.725,0h-17.946c-.361,0-.358,0-.43.367l-.265,1.315a.425.425,0,0,1-.442.385c-.381.005-.759.008-1.139,0a.422.422,0,0,1-.457-.383.515.515,0,0,1,0-.095C11944.453,1533.929,11944.458,1533.413,11944.458,1532.875Zm3.311-7.446c0-.563-.007-1.105,0-1.646a1.642,1.642,0,0,1,1.629-1.652h.014q2.481-.017,4.966,0a1.607,1.607,0,0,1,1.556,1.179,2.481,2.481,0,0,1,.076.611c.011.5,0,.993,0,1.495h.861c0-.546,0-1.07,0-1.592a1.652,1.652,0,0,1,1.61-1.691h.07q2.443-.011,4.889,0a1.592,1.592,0,0,1,1.631,1.4,12.226,12.226,0,0,1,.042,1.415v.477h.846c0-.1.012-.185.012-.265v-6.7a.837.837,0,0,0-.755-.909.877.877,0,0,0-.164,0h-17.226a.841.841,0,0,0-.924.748,1.042,1.042,0,0,0,0,.183v6.673c0,.088.008.182.013.28Zm19.854,4.964c0-.1.011-.177.011-.257v-3a.833.833,0,0,0-.758-.9.9.9,0,0,0-.141,0h-20.579a.834.834,0,0,0-.9.9v3c0,.083.01.166.015.258Zm-23.18,1.65h24v-.823h-24Zm10.771-6.617c0-.611.018-1.2-.006-1.779a.807.807,0,0,0-.81-.722q-2.5-.005-5.011,0a.779.779,0,0,0-.8.642c-.042.613-.012,1.231-.012,1.857Zm9.1,0c0-.612.019-1.206-.007-1.8a.8.8,0,0,0-.775-.7q-2.543-.011-5.087,0a.788.788,0,0,0-.764.684c-.027.6-.007,1.2-.007,1.812Zm-18.29,7.446h-.754v1.255a2.308,2.308,0,0,0,.349,0c.063-.01.157-.057.169-.1.086-.38.156-.757.236-1.155Zm21.589,1.225v-1.224h-.754c.06.3.116.575.17.852.083.434.082.434.523.4a.3.3,0,0,0,.061-.024Z" transform="translate(-11943.63 -1516.736)"/>
  </g>
</svg>
