<svg xmlns="http://www.w3.org/2000/svg" width="38" height="19.007" viewBox="0 0 38 19.007">
  <g id="Group_11895" data-name="Group 11895" transform="translate(-12434.71 -8389.7)" opacity="0.8">
    <path id="Path_1137" data-name="Path 1137" d="M12472.71,8402.172a9.971,9.971,0,0,1-.306.983,3.706,3.706,0,0,1-2.586,2.244.516.516,0,0,0-.429.416,3.946,3.946,0,0,1-6.587,1.739,3.885,3.885,0,0,1-1.1-1.991h-15.983a4.38,4.38,0,0,1-.94,1.817,3.95,3.95,0,0,1-5.354.5,4.231,4.231,0,0,1-1.441-2.146.517.517,0,0,0-.292-.3,3.986,3.986,0,0,1-2.981-3.985c0-1.027,0-2.054,0-3.079a3.948,3.948,0,0,1,3.818-3.908,2.361,2.361,0,0,0,2.042-1.133c.375-.581.765-1.152,1.149-1.728a4.016,4.016,0,0,1,3.558-1.9q5.544.018,11.091,0a4.356,4.356,0,0,1,2.835,1c1.965,1.579,3.939,3.148,5.9,4.729a2.637,2.637,0,0,0,1.667.6,10.554,10.554,0,0,1,2.39.185,4.619,4.619,0,0,1,3.244,3.4c.127.4.2.809.3,1.214Zm-3.225,1.658a2.04,2.04,0,0,0,1.459-1.359,4.2,4.2,0,0,0-.771-3.772,2.559,2.559,0,0,0-2.143-1.062c-.384,0-.768-.006-1.15,0a4.2,4.2,0,0,1-2.771-.964c-1.942-1.57-3.9-3.117-5.846-4.686a2.817,2.817,0,0,0-1.828-.691q-5.584,0-11.168,0a2.522,2.522,0,0,0-2.255,1.247c-.379.594-.779,1.173-1.172,1.758a3.648,3.648,0,0,1-2.156,1.593,8.343,8.343,0,0,1-1.316.184,2.282,2.282,0,0,0-2.011,1.932c-.062,1.319-.053,2.646,0,3.966a2.112,2.112,0,0,0,1.607,1.809c.912-2.1,2.229-3.081,4.023-3a4.065,4.065,0,0,1,3.758,3.161h15.936a4.01,4.01,0,0,1,7.809-.11Zm-27.637,3.27a2.357,2.357,0,1,0-2.385-2.334A2.375,2.375,0,0,0,12441.849,8407.1Zm23.751,0a2.357,2.357,0,1,0-2.386-2.332A2.376,2.376,0,0,0,12465.6,8407.1Z"/>
    <path id="Path_1138" data-name="Path 1138" d="M12453.709,8396.023h6.833c.688,0,1.077.284,1.089.793s-.394.817-1.1.817h-7.31c-.818,0-1.1-.273-1.1-1.082,0-.9,0-1.806,0-2.708,0-.5.188-.811.53-.928a.793.793,0,0,1,1.055.8C12453.717,8394.464,12453.709,8395.217,12453.709,8396.023Z"/>
    <path id="Path_1139" data-name="Path 1139" d="M12444.724,8396.023c1.618,0,3.176,0,4.731,0a2.1,2.1,0,0,1,.548.066.74.74,0,0,1,.53.759.724.724,0,0,1-.539.717,1.789,1.789,0,0,1-.51.063q-2.912.006-5.822,0c-.912,0-1.257-.55-.855-1.36.467-.94.921-1.887,1.418-2.81a1.331,1.331,0,0,1,.6-.547.665.665,0,0,1,.792.254.789.789,0,0,1,.081.873c-.247.524-.513,1.04-.77,1.559C12444.868,8395.722,12444.811,8395.842,12444.724,8396.023Z"/>
    <path id="Path_1140" data-name="Path 1140" d="M12455.3,8399.206c.26,0,.521-.01.779,0a.8.8,0,0,1,.8.767.768.768,0,0,1-.725.789,15.639,15.639,0,0,1-1.738,0,.748.748,0,0,1-.7-.8.788.788,0,0,1,.771-.752C12454.757,8399.2,12455.03,8399.207,12455.3,8399.206Z"/>
  </g>
</svg>
