<svg xmlns="http://www.w3.org/2000/svg" xmlns:xlink="http://www.w3.org/1999/xlink" width="28" height="19.78" viewBox="0 0 28 19.78">
  <defs>
    <clipPath id="clip-path">
      <rect id="Rectangle_1504" data-name="Rectangle 1504" width="28" height="19.78" transform="translate(12572.82 1780.464)" fill="none"/>
    </clipPath>
  </defs>
  <g id="Group_11670" data-name="Group 11670" transform="translate(-12572.82 -1780.465)" opacity="0.8">
    <g id="Group_2686" data-name="Group 2686">
      <g id="Group_2685" data-name="Group 2685" clip-path="url(#clip-path)">
        <g id="Group_11669" data-name="Group 11669">
          <path id="Path_4728" data-name="Path 4728" d="M12572.82,1791.35a4,4,0,0,1,.521-.454q3.731-2.251,7.467-4.487c.085-.05.168-.106.27-.171-.318-.2-.619-.39-.915-.585a.591.591,0,0,1,0-1.076q3.125-1.992,6.247-3.978a.688.688,0,0,1,.813,0q3.12,1.992,6.243,3.977a.6.6,0,0,1,0,1.091c-.29.189-.582.373-.9.573.107.069.193.128.283.183l7.471,4.479a2.8,2.8,0,0,1,.253.16.567.567,0,0,1,.149.789.548.548,0,0,1-.142.145,3.206,3.206,0,0,1-.344.221q-6.451,3.927-12.9,7.858a.874.874,0,0,1-1.03,0q-6.511-3.979-13.031-7.947a2.722,2.722,0,0,1-.455-.449v-.328m15.106.183c.05.037.084.065.12.088q2.593,1.65,5.181,3.3c.155.1.244.044.363-.029l5.293-3.224c.065-.039.124-.086.2-.139a1.123,1.123,0,0,0-.108-.078q-2.739-1.641-5.477-3.288c-.158-.1-.248-.034-.363.04l-5,3.184c-.067.043-.133.091-.212.146m-13.38,0c.1.065.171.11.241.152q2.622,1.6,5.244,3.2a.363.363,0,0,0,.457-.013q2.481-1.593,4.974-3.17c.081-.052.158-.108.249-.169-.044-.036-.071-.06-.1-.08q-2.577-1.64-5.154-3.29a.275.275,0,0,0-.34.016q-2.681,1.611-5.36,3.218c-.062.037-.12.078-.207.136m6.838,4.15a.8.8,0,0,0,.09.076c1.734,1.056,3.467,2.115,5.207,3.161a.387.387,0,0,0,.33-.03q1.979-1.188,3.946-2.4l1.3-.79a1.713,1.713,0,0,0-.142-.112q-2.569-1.635-5.136-3.276a.268.268,0,0,0-.339.02q-1.588,1.016-3.18,2.026l-2.077,1.325m.126-10.57c.061.047.087.072.119.092l5.021,3.2a.282.282,0,0,0,.361-.019q2.465-1.573,4.931-3.142c.058-.037.111-.081.183-.133-.057-.043-.091-.071-.128-.094-1.674-1.066-3.352-2.128-5.022-3.2-.156-.1-.243-.039-.36.035l-4.885,3.111c-.067.043-.132.091-.219.152m-.081,2.283c.074.055.109.083.147.106l5.067,3.232a.307.307,0,0,0,.39-.029q2.461-1.573,4.93-3.144c.074-.048.144-.1.24-.17a5.665,5.665,0,0,1-.507-.315.367.367,0,0,0-.486,0c-1.285.83-2.585,1.636-3.865,2.474a.841.841,0,0,1-1.048.006c-1.3-.847-2.606-1.67-3.918-2.493a.393.393,0,0,0-.31-.05,6.441,6.441,0,0,0-.641.375"/>
        </g>
      </g>
    </g>
  </g>
</svg>
