<svg xmlns="http://www.w3.org/2000/svg" width="48.681" height="30.708" viewBox="0 0 48.681 30.708">
  <g id="Group_2590" data-name="Group 2590" transform="translate(-13896.436 -1574.721)" opacity="0.8">
    <path id="Path_2514" data-name="Path 2514" d="M13896.436,1579.26a6.147,6.147,0,0,1,1.077-2.5,5.148,5.148,0,0,1,4.2-2.033q12.709-.009,25.418.005a5.125,5.125,0,0,1,5.267,5.26c.017,1,0,2,0,2.993,0,.154.013.307.022.533.2-.1.353-.179.5-.259l10.205-5.569c.1-.053.2-.106.293-.157a1.049,1.049,0,0,1,1.67,1q.007,5.084,0,10.168c0,4.261-.03,8.523.021,12.783.014,1.215-.9,1.653-1.885,1.1-3.39-1.912-6.821-3.748-10.236-5.612-.164-.089-.331-.173-.567-.3-.01.232-.022.4-.023.565-.011,1.125.021,2.251-.033,3.373a5.133,5.133,0,0,1-4.857,4.775c-.442.018-.887.01-1.33.01-8.028,0-16.059-.054-24.087.028a5.4,5.4,0,0,1-5.6-4.424c0-.026-.038-.048-.059-.072Zm17.978,24.071q6.223,0,12.449,0a4.664,4.664,0,0,0,1.083-.086,3.1,3.1,0,0,0,2.405-3.269q0-9.908,0-19.816a3.14,3.14,0,0,0-3.4-3.363q-12.521,0-25.04,0a3.121,3.121,0,0,0-3.4,3.394q0,9.883,0,19.769a4.291,4.291,0,0,0,.09.989,3.055,3.055,0,0,0,3.224,2.384Q13908.117,1603.336,13914.413,1603.331Zm28.586-3.245v-19.947c-.122.056-.207.089-.287.132q-5,2.727-10,5.449a.546.546,0,0,0-.315.563q.013,3.8,0,7.6a.606.606,0,0,0,.373.625c1.354.72,2.7,1.465,4.042,2.2C13938.85,1597.824,13940.89,1598.935,13943,1600.086Z"/>
  </g>
</svg>
