<svg xmlns="http://www.w3.org/2000/svg" width="35.004" height="18.437" viewBox="0 0 35.004 18.437">
  <path id="Path_1706" data-name="Path 1706" d="M8817.813,8099.572a4.03,4.03,0,0,1-.685,1.542,2.96,2.96,0,0,1-2.46,1.178.937.937,0,0,0-1.087.669,3.881,3.881,0,0,1-3.73,2.335,3.989,3.989,0,0,1-3.639-2.737.313.313,0,0,0-.357-.258q-5.741.01-11.482,0c-.223,0-.3.076-.374.283a3.971,3.971,0,0,1-7.54-.016c-.075-.227-.181-.264-.386-.266a3.125,3.125,0,0,1-3.26-2.986,2.526,2.526,0,0,1,0-.285v-1.811a3.147,3.147,0,0,1,2.43-3.18c1.642-.452,3.286-.9,4.925-1.359a.939.939,0,0,0,.457-.309q1.465-1.889,2.905-3.8a4.006,4.006,0,0,1,3.336-1.7q5.21-.017,10.423,0a3.923,3.923,0,0,1,3.491,1.968c.741,1.187,1.48,2.375,2.236,3.552a1.192,1.192,0,0,0,.469.409c.767.371,1.545.721,2.322,1.069a3.151,3.151,0,0,1,1.945,2.34c.006.029.038.052.06.078Zm-11.79,1.3c.019-.108.028-.164.038-.219a3.986,3.986,0,0,1,3.957-3.331,3.92,3.92,0,0,1,3.833,3.088c.094.41.25.525.621.463a.864.864,0,0,1,.1,0,1.71,1.71,0,0,0,1.8-1.615,1.589,1.589,0,0,0,0-.193v-2.085a1.786,1.786,0,0,0-1.137-1.775c-.88-.4-1.767-.785-2.633-1.211a1.71,1.71,0,0,1-.646-.567c-.793-1.221-1.571-2.453-2.321-3.7a2.69,2.69,0,0,0-2.508-1.4q-5.042.029-10.081,0a2.852,2.852,0,0,0-2.452,1.226q-1.49,2-3.03,3.96a1.681,1.681,0,0,1-.708.477c-.444.167-.916.262-1.376.387-1.325.365-2.652.72-3.975,1.1a1.636,1.636,0,0,0-1.258,1.559c-.017.728-.021,1.459,0,2.188a1.662,1.662,0,0,0,1.432,1.624c.556.095.571.084.683-.471.011-.055.013-.113.028-.167a4.031,4.031,0,0,1,4.086-2.876,3.984,3.984,0,0,1,3.651,3.2c.054.3.15.356.427.355q5.553-.012,11.106-.006Zm-15.78,2.95a2.551,2.551,0,1,0-2.55-2.618c0,.034,0,.068,0,.1a2.529,2.529,0,0,0,2.546,2.514h0Zm19.751,0a2.535,2.535,0,1,0-2.541-2.531,2.535,2.535,0,0,0,2.541,2.531Z" transform="translate(-8782.81 -8086.864)" opacity="0.5"/>
</svg>
