<svg xmlns="http://www.w3.org/2000/svg" width="29.999" height="20.9" viewBox="0 0 29.999 20.9">
  <g id="Group_2936" data-name="Group 2936" transform="translate(-8768.857 -238.537)" opacity="0.5">
    <path id="Path_2862" data-name="Path 2862" d="M8798.856,249.28a1.969,1.969,0,0,1-1.084,1.44,2.762,2.762,0,0,1-1.044.221q-9.107.02-18.217.008a1.959,1.959,0,0,1-.379-3.9c.155-.013.312-.025.467-.025q9.022,0,18.041,0a2.034,2.034,0,0,1,1.816.806,5.324,5.324,0,0,1,.4.868Z"/>
    <path id="Path_2863" data-name="Path 2863" d="M8798.856,241.428a1.957,1.957,0,0,1-1.056,1.429,2.77,2.77,0,0,1-1.068.237q-9.108.021-18.217.009a1.968,1.968,0,0,1-2.059-1.441,1.945,1.945,0,0,1,1.7-2.463c.136-.01.272-.017.409-.017q9.05,0,18.1-.005a2.025,2.025,0,0,1,1.99,1.12,4.691,4.691,0,0,1,.2.545Z"/>
    <path id="Path_2864" data-name="Path 2864" d="M8798.856,257.132a1.979,1.979,0,0,1-1.062,1.424,2.627,2.627,0,0,1-1.011.227q-9.167.02-18.333.01a1.912,1.912,0,0,1-1.9-1.169,1.866,1.866,0,0,1,.334-2.1,2.021,2.021,0,0,1,1.627-.655c1.152,0,2.3,0,3.456,0q7.336,0,14.671,0a2.03,2.03,0,0,1,1.815.808,5.1,5.1,0,0,1,.4.869Z"/>
    <path id="Path_2865" data-name="Path 2865" d="M8771.456,238.537a2.6,2.6,0,1,1-2.6,2.617A2.618,2.618,0,0,1,8771.456,238.537Z"/>
    <path id="Path_2866" data-name="Path 2866" d="M8771.457,259.437a2.6,2.6,0,1,1,2.612-2.6A2.619,2.619,0,0,1,8771.457,259.437Z"/>
    <path id="Path_2867" data-name="Path 2867" d="M8771.5,246.388a2.6,2.6,0,1,1-2.64,2.573A2.609,2.609,0,0,1,8771.5,246.388Z"/>
  </g>
</svg>
