<svg xmlns="http://www.w3.org/2000/svg" width="50" height="50.016" viewBox="0 0 50 50.016">
  <g id="Group_1102" data-name="Group 1102" transform="translate(-14060.954 -8460.929)" opacity="0.8">
    <path id="Path_1002" data-name="Path 1002" d="M14084.295,8510.944c-.705-.1-1.412-.18-2.114-.29a24.6,24.6,0,0,1-15.018-8.249,24.039,24.039,0,0,1-5.972-13.057,24.978,24.978,0,0,1,40.242-23.009,24.587,24.587,0,0,1,9.293,16.16c.091.591.152,1.187.228,1.781v3.319c-.075.595-.14,1.188-.227,1.78a25.094,25.094,0,0,1-21,21.274c-.7.109-1.407.192-2.111.289Zm24.9-24.982a23.243,23.243,0,1,0-23.276,23.227A23.307,23.307,0,0,0,14109.2,8485.962Z"/>
    <path id="Path_1003" data-name="Path 1003" d="M14095.164,8485.933a9.209,9.209,0,1,1-9.217-9.2A9.214,9.214,0,0,1,14095.164,8485.933Zm-9.231,7.443a7.435,7.435,0,1,0-7.411-7.457A7.421,7.421,0,0,0,14085.933,8493.376Z"/>
    <path id="Path_1004" data-name="Path 1004" d="M14066.126,8479.893c.2-.568.423-1.331.726-2.061a20.1,20.1,0,0,1,6.582-8.487c.519-.391,1.07-.737,1.616-1.09a.912.912,0,0,1,1.336.168c.29.428.146.914-.353,1.3-1.2.938-2.479,1.8-3.577,2.847a17.215,17.215,0,0,0-4.471,7.328,3.548,3.548,0,0,1-.248.633.808.808,0,0,1-1,.4C14066.345,8480.817,14066.119,8480.526,14066.126,8479.893Z"/>
    <path id="Path_1005" data-name="Path 1005" d="M14085.947,8480.2a5.741,5.741,0,1,1-5.732,5.762A5.816,5.816,0,0,1,14085.947,8480.2Zm.01,9.651a3.911,3.911,0,1,0-3.913-3.9A3.914,3.914,0,0,0,14085.957,8489.852Z"/>
  </g>
</svg>
