<svg xmlns="http://www.w3.org/2000/svg" width="55.789" height="55.789" viewBox="0 0 55.789 55.789">
  <g id="Group_339" data-name="Group 339" transform="translate(-7206.131 -326.155)">
    <circle id="Ellipse_16" data-name="Ellipse 16" cx="27.895" cy="27.895" r="27.895" transform="translate(7206.131 326.155)" fill="#fff"/>
    <g id="Group_338" data-name="Group 338" opacity="0.8">
      <path id="Path_432" data-name="Path 432" d="M7242.414,340.42a4.084,4.084,0,0,1,2.751,1.075c.43.393.84.809,1.245,1.228a4.166,4.166,0,0,1,.088,5.849c-.1.108-.2.211-.3.314q-8.04,8.042-16.077,16.085a2.269,2.269,0,0,1-1.049.61c-2.421.66-4.839,1.336-7.257,2.009a1.166,1.166,0,0,1-.952-.025.93.93,0,0,1-.413-1.132c.547-2,1.173-3.982,1.63-6a7.035,7.035,0,0,1,2.1-3.577c5.056-4.977,10.054-10.013,15.064-15.036A4.405,4.405,0,0,1,7242.414,340.42Zm-3.967,4.93-13.463,13.463,4.273,4.273,13.463-13.463Zm5.715,2.961a17.909,17.909,0,0,0,1.215-1.319,2.21,2.21,0,0,0-.064-2.676,16.8,16.8,0,0,0-1.566-1.566,2.041,2.041,0,0,0-1.492-.456c-1.173.043-1.757.946-2.475,1.631Zm-16.784,15.8-3.42-3.422-1.308,4.732Z"/>
    </g>
  </g>
</svg>
