<svg xmlns="http://www.w3.org/2000/svg" width="55.789" height="55.789" viewBox="0 0 55.789 55.789">
  <g id="Group_1769" data-name="Group 1769" transform="translate(-14975.485 -4383.439)">
    <circle id="Ellipse_114" data-name="Ellipse 114" cx="27.895" cy="27.895" r="27.895" transform="translate(14975.485 4383.439)" fill="#f37521"/>
    <g id="Group_1768" data-name="Group 1768">
      <path id="Path_1741" data-name="Path 1741" d="M15011.768,4397.7a4.085,4.085,0,0,1,2.751,1.075c.431.393.841.809,1.245,1.228a4.164,4.164,0,0,1,.088,5.849c-.1.108-.2.212-.3.315q-8.039,8.04-16.077,16.084a2.254,2.254,0,0,1-1.048.61c-2.422.661-4.839,1.337-7.258,2.01a1.166,1.166,0,0,1-.951-.025.931.931,0,0,1-.414-1.133c.548-2,1.173-3.982,1.631-6a7.043,7.043,0,0,1,2.1-3.577c5.055-4.976,10.053-10.012,15.063-15.035A4.406,4.406,0,0,1,15011.768,4397.7Zm-3.967,4.931-13.462,13.462,4.272,4.273,13.463-13.462Zm5.715,2.961a17.776,17.776,0,0,0,1.217-1.32,2.208,2.208,0,0,0-.065-2.675,16.35,16.35,0,0,0-1.566-1.566,2.036,2.036,0,0,0-1.49-.457c-1.174.043-1.758.946-2.477,1.631Zm-16.783,15.8-3.419-3.421-1.31,4.732Z" fill="#fff"/>
    </g>
  </g>
</svg>
