<svg xmlns="http://www.w3.org/2000/svg" xmlns:xlink="http://www.w3.org/1999/xlink" width="28" height="28" viewBox="0 0 28 28">
  <defs>
    <clipPath id="clip-path">
      <rect id="Rectangle_1506" data-name="Rectangle 1506" width="28" height="28" transform="translate(12572.82 1913.271)" fill="none"/>
    </clipPath>
  </defs>
  <g id="Group_11674" data-name="Group 11674" transform="translate(-12572.82 -1913.271)" opacity="0.8">
    <g id="Group_2690" data-name="Group 2690">
      <g id="Group_2689" data-name="Group 2689" clip-path="url(#clip-path)">
        <g id="Group_11673" data-name="Group 11673">
          <path id="Path_4731" data-name="Path 4731" d="M12573.32,1941.271c-.049-.037-.1-.076-.148-.11a.7.7,0,0,1-.326-.749.714.714,0,0,1,.674-.541c.593-.015,1.186-.007,1.777-.008h.3v-11.174c-.088,0-.185-.011-.279-.013-.419-.007-.841.011-1.258-.026a1.286,1.286,0,0,1-1.13-.866,1.339,1.339,0,0,1,.244-1.429c.072-.082.147-.162.228-.237q2.057-2.06,4.118-4.116a.641.641,0,0,0,.213-.5q-.015-2.652,0-5.3a1.383,1.383,0,0,1,1.043-1.475,2.2,2.2,0,0,1,.486-.048c.347-.007.693.015,1.038-.006a1.451,1.451,0,0,1,1.619,1.259,1.507,1.507,0,0,1,0,.351c-.021.407,0,.815,0,1.3.119-.113.188-.175.253-.241l3.519-3.517a1.431,1.431,0,0,1,2.006-.256,1.5,1.5,0,0,1,.256.256q6.07,6.07,12.142,12.137a2.586,2.586,0,0,1,.726,1.037v.547a1.561,1.561,0,0,1-1.786,1.133c-.325-.021-.651,0-.986,0v11.192c.623,0,1.225.016,1.824,0a.891.891,0,0,1,.948.533v.383l-.493.484Zm13.513-26.519-12.524,12.525h2.724v12.574h19.588v-12.58h2.735l-12.522-12.519m-7.7,5.649c.451-.457.854-.851,1.236-1.263a.614.614,0,0,0,.152-.376c.017-.664.009-1.328.009-1.992v-.684h-1.4Z"/>
          <path id="Path_4732" data-name="Path 4732" d="M12581.693,1937.511l-.9-.912,11.136-11.135.908.908-11.144,11.139"/>
          <path id="Path_4733" data-name="Path 4733" d="M12586.115,1927.984a2.793,2.793,0,1,1-2.789-2.806,2.793,2.793,0,0,1,2.789,2.806m-2.794,1.38a1.44,1.44,0,1,0-1.394-1.58,1.325,1.325,0,0,0,0,.2,1.4,1.4,0,0,0,1.4,1.387"/>
          <path id="Path_4734" data-name="Path 4734" d="M12590.311,1932.178a2.8,2.8,0,1,1-2.783,2.816v-.005a2.8,2.8,0,0,1,2.783-2.811m.012,4.185a1.445,1.445,0,1,0-1.4-1.6,1.521,1.521,0,0,0,0,.211,1.391,1.391,0,0,0,1.4,1.383"/>
        </g>
      </g>
    </g>
  </g>
</svg>
