<svg xmlns="http://www.w3.org/2000/svg" width="35" height="23.325" viewBox="0 0 35 23.325">
  <g id="Group_11896" data-name="Group 11896" transform="translate(-12436.21 -8455.799)" opacity="0.8">
    <path id="Path_1141" data-name="Path 1141" d="M12439.908,8468.044h-2.563v.374q0,2.15,0,4.3c0,.462-.192.705-.557.711s-.577-.239-.577-.689q0-5.437,0-10.877c0-.466.32-.76.711-.645a.589.589,0,0,1,.426.654c-.007,1.528,0,3.057,0,4.585v.41h2.563v-1.842a2.8,2.8,0,0,1,2.964-2.957,1.143,1.143,0,0,0,1.162-.575,9.794,9.794,0,0,1,1.044-1.389.959.959,0,0,1,.62-.311c1.161-.031,2.321-.016,3.483-.018a.476.476,0,0,0,.091-.024v-2.819h-.385c-.983,0-1.968,0-2.951,0a.569.569,0,1,1,.012-1.132q5.618,0,11.233,0c.4,0,.637.21.645.552.008.359-.233.58-.65.581-.982,0-1.967,0-2.951,0h-.362v2.848h.372c1.528,0,3.057.007,4.586,0a.711.711,0,0,1,.727.442c.439.9.9,1.8,1.341,2.7a.422.422,0,0,0,.46.28c.5-.021,1-.008,1.493,0,.475,0,.672.2.674.663,0,.71,0,1.42,0,2.154h1.426v-2.049c0-.608.164-.769.781-.77.984,0,1.969.02,2.951-.01a.891.891,0,0,1,.9.537,12.778,12.778,0,0,1,1.462,4.458,16.853,16.853,0,0,1-.7,7.848,17.578,17.578,0,0,1-.856,1.862.658.658,0,0,1-.664.38c-1.066-.011-2.134,0-3.2,0-.476,0-.673-.2-.675-.663,0-.71,0-1.42,0-2.154h-1.124c-.006.113-.016.228-.017.342,0,.877,0,1.754,0,2.631,0,.512-.19.7-.711.7h-8.461c-1.434,0-2.868-.006-4.3,0a.926.926,0,0,1-.721-.3q-1.727-1.743-3.475-3.464a.827.827,0,0,0-.515-.215c-.96-.021-1.92-.007-2.88-.012a2.821,2.821,0,0,1-2.827-2.819c-.006-1.292,0-2.583,0-3.875Zm22.473-3.715c-.553,0-1.061-.013-1.567,0a.7.7,0,0,1-.724-.449c-.413-.852-.859-1.686-1.261-2.543a.642.642,0,0,0-.687-.436c-3.578.017-7.157.01-10.736.011a3.56,3.56,0,0,0-1.471.052c-.409.208-.646.76-.957,1.161-1,1.293-.51,1.035-2.1,1.061a1.731,1.731,0,0,0-1.829,1.826q-.006,3.574,0,7.146a1.728,1.728,0,0,0,1.853,1.839c1.03,0,2.062.009,3.093,0a.924.924,0,0,1,.721.3c1.142,1.154,2.3,2.295,3.438,3.449a.743.743,0,0,0,.587.243q5.758-.01,11.518,0h.412v-.385c0-.888,0-1.776,0-2.665,0-.446.2-.645.654-.646q1.047-.006,2.1,0c.451,0,.652.2.657.644,0,.368,0,.735,0,1.1v1.1h1.406c1.223,0,1.223,0,1.658-1.155a15.517,15.517,0,0,0,.884-4.507,13.758,13.758,0,0,0-1.158-6.605.76.76,0,0,0-.869-.545c-.631.047-1.269.011-1.921.011,0,.761,0,1.47,0,2.18,0,.467-.2.662-.674.664q-1.173,0-2.348,0c-.472,0-.67-.2-.672-.666C12462.379,8465.8,12462.381,8465.088,12462.381,8464.329Zm-9.7-4.562v-2.814h-2.228v2.814Z"/>
    <path id="Path_1142" data-name="Path 1142" d="M12452.871,8468.883c.93,0,1.814,0,2.7,0a.623.623,0,0,1,.575,1.05c-1.007,1.6-2,3.212-3.019,4.811a.765.765,0,0,1-.436.365.813.813,0,0,1-.582-.217.521.521,0,0,1,.006-.686q1.187-1.894,2.369-3.792c.065-.107.124-.218.215-.379-.92,0-1.78.013-2.64-.009a.75.75,0,0,1-.555-.213.837.837,0,0,1-.057-.679c.806-1.671,1.644-3.328,2.478-4.985a.562.562,0,0,1,.791-.311.573.573,0,0,1,.236.817c-.636,1.294-1.281,2.583-1.922,3.875C12452.981,8468.63,12452.937,8468.736,12452.871,8468.883Z"/>
  </g>
</svg>
