<svg xmlns="http://www.w3.org/2000/svg" width="48.926" height="53.603" viewBox="0 0 48.926 53.603">
  <g id="Group_2578" data-name="Group 2578" transform="translate(-13896.313 -1324.456)" opacity="0.8">
    <path id="Path_2467" data-name="Path 2467" d="M13901.5,1378.059a2.094,2.094,0,0,1-1.457-2.315c.045-1.01.007-2.023.01-3.035a1.873,1.873,0,0,1,2.062-2.082h1.079v-.62c0-3.768-.009-7.536.011-11.3a1.228,1.228,0,0,0-.469-1.018,18.988,18.988,0,0,1-1.642-26.845c.261-.3.563-.537.946-.366.221.1.5.379.5.576a1.54,1.54,0,0,1-.359.913,17.439,17.439,0,1,0,16.615-5.558,16.934,16.934,0,0,0-13.4,2.712c-.1.069-.2.143-.3.209a.79.79,0,1,1-.9-1.281,18.438,18.438,0,0,1,5.394-2.71,18.908,18.908,0,0,1,24.027,13.252c1.915,7.431-.153,13.839-5.753,19.086a1.34,1.34,0,0,0-.5,1.11c.03,1.727.012,3.454.012,5.181v.6a12.245,12.245,0,0,0,13.073-12.113c.043-4.221.01-8.443.011-12.665,0-.086-.008-.172-.014-.305a4.105,4.105,0,0,1-2.828-2.322,3.906,3.906,0,0,1-.2-2.659,3.972,3.972,0,0,1,7.772.578c.285,1.965-.863,3.588-3.163,4.421v.6c0,4.221.038,8.443-.021,12.664a13.78,13.78,0,0,1-11.307,13.152c-.889.151-1.8.167-2.7.24-.186.015-.375,0-.592,0v4.467c.389,0,.782,0,1.174,0a1.817,1.817,0,0,1,1.932,1.934c.01,1.046-.046,2.1.016,3.139a2.141,2.141,0,0,1-1.392,2.358Zm3.286-7.432h13.859a2.591,2.591,0,0,1,.521.016.778.778,0,0,1,.015,1.534,2.721,2.721,0,0,1-.572.019h-16.271c-.714,0-.715,0-.715.736q0,1.438,0,2.878c0,.667.011.677.67.677h14.6c3.819,0,7.639-.007,11.457.008.45,0,.62-.122.606-.59q-.044-1.542,0-3.086c.012-.469-.116-.643-.616-.635-1.726.029-3.453.011-5.179.011-.122,0-.244,0-.366,0a.787.787,0,1,1,.013-1.565c.836-.011,1.675,0,2.512-.005.15,0,.3-.017.438-.026v-11.217c-7.012,4.142-13.976,4.127-20.967-.028Zm34.069-35.065a2.4,2.4,0,0,0,2.385,2.405,2.407,2.407,0,1,0,0-4.813A2.4,2.4,0,0,0,13938.86,1335.562Z"/>
    <path id="Path_2468" data-name="Path 2468" d="M13920.365,1343.482a5.077,5.077,0,1,1-5.025-5.1A5.07,5.07,0,0,1,13920.365,1343.482Zm-1.571-.007a3.506,3.506,0,0,0-7.013-.025,3.506,3.506,0,1,0,7.013.025Z"/>
    <path id="Path_2469" data-name="Path 2469" d="M13914.863,1327.607c.084,0,.24-.007.4,0a.777.777,0,0,1,.809.779.79.79,0,0,1-.8.789c-.951.094-1.916.128-2.851.312a13.834,13.834,0,0,0-8.121,4.878c-.067.081-.132.162-.2.243q-.683.822-1.286.316c-.373-.316-.352-.777.057-1.29a15.774,15.774,0,0,1,12-6.028Z"/>
    <path id="Path_2470" data-name="Path 2470" d="M13931.651,1330.608c-.189-.142-.494-.259-.582-.468a.934.934,0,0,1,.031-.808c.655-.738,1.36-1.436,2.086-2.106a.764.764,0,0,1,1.071,1.062c-.668.729-1.382,1.414-2.091,2.1A1.843,1.843,0,0,1,13931.651,1330.608Z"/>
    <path id="Path_2471" data-name="Path 2471" d="M13937,1331.765c-.105.111-.267.413-.514.516-.752.315-1.532.565-2.311.816a.764.764,0,0,1-1-.5.749.749,0,0,1,.481-.968c.78-.291,1.569-.569,2.367-.813C13936.55,1330.658,13937.015,1331.042,13937,1331.765Z"/>
    <path id="Path_2472" data-name="Path 2472" d="M13928.239,1327.665c.384-1.045.686-1.972,1.069-2.863a.65.65,0,0,1,.91-.267.7.7,0,0,1,.461.887c-.252.831-.544,1.651-.856,2.462a.665.665,0,0,1-.9.421C13928.652,1328.188,13928.459,1327.879,13928.239,1327.665Z"/>
    <path id="Path_2473" data-name="Path 2473" d="M13915.324,1365.766q3.688,0,7.376,0a2.881,2.881,0,0,1,.573.032.65.65,0,0,1,.584.742,1.386,1.386,0,0,1-.55.725c-.153.114-.437.068-.661.068q-7.351,0-14.7,0a2.608,2.608,0,0,1-.674-.057.7.7,0,0,1-.545-.786.691.691,0,0,1,.6-.692,2.956,2.956,0,0,1,.573-.032Q13911.61,1365.764,13915.324,1365.766Z"/>
  </g>
</svg>
