<svg xmlns="http://www.w3.org/2000/svg" xmlns:xlink="http://www.w3.org/1999/xlink" width="27" height="28.99" viewBox="0 0 27 28.99">
  <defs>
    <clipPath id="clip-path">
      <rect id="Rectangle_1501" data-name="Rectangle 1501" width="27" height="28.99" transform="translate(12572.82 1506.779)" fill="none"/>
    </clipPath>
  </defs>
  <g id="Group_11663" data-name="Group 11663" transform="translate(-12572.82 -1506.779)" opacity="0.8">
    <g id="Group_2680" data-name="Group 2680">
      <g id="Group_2679" data-name="Group 2679" clip-path="url(#clip-path)">
        <g id="Group_11662" data-name="Group 11662">
          <path id="Path_4718" data-name="Path 4718" d="M12585.352,1528.087c0,2.165-.035,4.331.016,6.5a1.045,1.045,0,0,1-1.661.977c-3.354-1.879-6.735-3.708-10.116-5.532a1.3,1.3,0,0,1-.77-1.289c.018-4.342.011-8.687.008-13.026a1.089,1.089,0,0,1,.323-.894.973.973,0,0,1,1.237-.057q2.342,1.271,4.675,2.548c1.867,1.017,3.73,2.042,5.6,3.05a1.179,1.179,0,0,1,.691,1.157c-.017,2.189-.007,4.377-.007,6.566m-10.6-.943,7.844-5.706c-.666-.364-1.291-.713-1.925-1.042a.366.366,0,0,0-.308.06q-2.73,1.974-5.446,3.963a.411.411,0,0,0-.158.28c-.013.785-.008,1.571-.008,2.445m.845,1.772c.665.364,1.27.7,1.888,1.02a.419.419,0,0,0,.36-.054q2.7-1.95,5.4-3.919c.079-.057.183-.152.183-.231.013-.815.008-1.632.008-2.513l-7.832,5.7m3.073-9.623-3.89-2.12v4.949l3.89-2.829m.848,11.76,3.892,2.121v-4.95l-3.892,2.829"/>
          <path id="Path_4719" data-name="Path 4719" d="M12599.815,1522.3c0,2.189-.009,4.377,0,6.565a1.121,1.121,0,0,1-.689,1.117q-5.647,2.811-11.288,5.635a.976.976,0,0,1-1.522-.954v-13.2a1.078,1.078,0,0,1,.662-1.061q5.644-2.815,11.287-5.639a1.475,1.475,0,0,1,.8-.147.905.905,0,0,1,.741,1.008v6.672m-1.932-5.165c-.111.046-.2.077-.279.118q-4.553,2.274-9.109,4.545a.432.432,0,0,0-.251.473q.006,5.294,0,10.586c0,.112.011.226.018.374.114-.044.2-.07.282-.11q4.554-2.276,9.109-4.548a.409.409,0,0,0,.244-.441q-.007-5.346,0-10.692c0-.09-.009-.18-.014-.3"/>
          <path id="Path_4720" data-name="Path 4720" d="M12598.846,1512.613a1.026,1.026,0,0,1-.673.969l-5.316,2.6c-2.1,1.029-4.2,2.05-6.3,3.092a1.35,1.35,0,0,1-1.361-.022q-5.376-2.862-10.778-5.693a.986.986,0,0,1-.618-.943.974.974,0,0,1,.674-.9q5.467-2.406,10.927-4.827a1.161,1.161,0,0,1,.955-.01q5.9,2.421,11.8,4.836a.979.979,0,0,1,.689.9m-3.322.117c-.171-.076-.263-.119-.357-.158q-4.484-1.836-8.961-3.677a.687.687,0,0,0-.594.006q-4.151,1.844-8.31,3.676c-.089.04-.174.089-.295.151.1.06.158.1.218.131q4.223,2.229,8.442,4.464a.5.5,0,0,0,.521-.011q2.8-1.38,5.6-2.749l3.739-1.834"/>
        </g>
      </g>
    </g>
  </g>
</svg>
