<svg xmlns="http://www.w3.org/2000/svg" width="38.55" height="36.649" viewBox="0 0 38.55 36.649">
  <g id="Group_11925" data-name="Group 11925" transform="translate(-1556.816 -3057.451)">
    <rect id="Rectangle_1855" data-name="Rectangle 1855" width="37.55" height="35.649" rx="3.103" transform="translate(1557.316 3057.951)" fill="none" stroke="#8a8a8a" stroke-width="1"/>
    <path id="Path_3198" data-name="Path 3198" d="M1574.006,3085.781q0-4.371,0-8.741c0-.173-.042-.236-.229-.233-.823.01-1.645,0-2.468,0h-.222v-3.533h.22c.829,0,1.659-.005,2.488,0,.175,0,.226-.054.222-.223-.019-.847-.053-1.694-.036-2.54a6.356,6.356,0,0,1,.529-2.543,3.565,3.565,0,0,1,2.721-2.092,11.612,11.612,0,0,1,2.752-.062c.286.011.572.045.858.062.165.01.249.053.246.252-.012.906,0,1.812-.006,2.718,0,.064-.005.127-.009.213h-.221c-.582,0-1.163,0-1.744,0a2.507,2.507,0,0,0-.5.057,1.219,1.219,0,0,0-1.041,1.219c-.03.532-.011,1.067-.015,1.6,0,.371,0,.743-.017,1.113-.009.174.032.224.209.223.934-.008,1.868,0,2.8,0h.227l-.441,3.533h-.209c-.8,0-1.593,0-2.39,0-.146,0-.208.032-.207.193q.006,4.371,0,8.741a.265.265,0,0,0,0,.039Z" fill="#8a8a8a"/>
  </g>
</svg>
