<svg xmlns="http://www.w3.org/2000/svg" xmlns:xlink="http://www.w3.org/1999/xlink" width="23.125" height="27.184" viewBox="0 0 23.125 27.184">
  <defs>
    <clipPath id="clip-path">
      <rect id="Rectangle_1500" data-name="Rectangle 1500" width="23.125" height="27.184" fill="none"/>
    </clipPath>
  </defs>
  <g id="Group_11661" data-name="Group 11661" transform="translate(-12572.82 -1434.553)" opacity="0.8">
    <g id="Group_2678" data-name="Group 2678" transform="translate(12572.82 1434.553)">
      <g id="Group_2677" data-name="Group 2677" clip-path="url(#clip-path)">
        <g id="Group_11660" data-name="Group 11660" transform="translate(-0.001 0)">
          <path id="Path_4716" data-name="Path 4716" d="M12585.756,1437.553c.258.042.521.072.779.125a5.381,5.381,0,0,1,4.518,4.824,13.049,13.049,0,0,1-.257,5.21,6.233,6.233,0,0,1-2.023,3.346,5.318,5.318,0,0,1-3.609,1.141,5.177,5.177,0,0,1-3.415-1.247,6.035,6.035,0,0,1-1.721-2.693,12.468,12.468,0,0,1-.509-5,6.783,6.783,0,0,1,.908-3.127,5.249,5.249,0,0,1,3.78-2.472c.182-.031.361-.068.543-.1Zm3.929,6.665c-.034-.428-.054-.874-.108-1.311a4.786,4.786,0,0,0-.771-2.175,3.76,3.76,0,0,0-2.579-1.56,4.7,4.7,0,0,0-3.188.464,4.033,4.033,0,0,0-1.955,3.226,11.9,11.9,0,0,0,.065,3.7,5.645,5.645,0,0,0,1.259,2.9,3.906,3.906,0,0,0,3.887,1.113,3.675,3.675,0,0,0,2.8-2.522,10.2,10.2,0,0,0,.591-3.838" transform="translate(-12573.771 -1437.553)"/>
          <path id="Path_4717" data-name="Path 4717" d="M12584.258,1467.182a23.486,23.486,0,0,1-9.007-1.76c-.464-.2-.9-.459-1.365-.646a1.541,1.541,0,0,1-.967-1.42,11.878,11.878,0,0,1,.05-3.41,3.644,3.644,0,0,1,2.764-3.178,15.438,15.438,0,0,0,4.287-1.985.785.785,0,0,1,1.022,0,.741.741,0,0,1,.09,1.044.751.751,0,0,1-.212.173,24.976,24.976,0,0,1-2.312,1.285,16.046,16.046,0,0,1-2.427.91,2.267,2.267,0,0,0-1.713,1.97,10.637,10.637,0,0,0-.059,2.883.49.49,0,0,0,.3.441,19.579,19.579,0,0,0,5.548,1.808,23.353,23.353,0,0,0,9.425-.236,17.8,17.8,0,0,0,4.422-1.6.456.456,0,0,0,.22-.283,8.769,8.769,0,0,0-.127-3.4,2.032,2.032,0,0,0-1.5-1.525,17.061,17.061,0,0,1-4.8-2.2.834.834,0,0,1-.429-.606.72.72,0,0,1,.322-.712.711.711,0,0,1,.8-.035c.283.164.559.343.84.507a16.078,16.078,0,0,0,3.788,1.627,3.377,3.377,0,0,1,2.4,2.4,9.952,9.952,0,0,1,.257,3.788c-.02.219-.058.438-.087.657a1.24,1.24,0,0,1-.7.988,19.987,19.987,0,0,1-4,1.605,24.941,24.941,0,0,1-6.83.906" transform="translate(-12572.819 -1439.998)"/>
        </g>
      </g>
    </g>
  </g>
</svg>
