<svg xmlns="http://www.w3.org/2000/svg" xmlns:xlink="http://www.w3.org/1999/xlink" width="24.766" height="26.471" viewBox="0 0 24.766 26.471">
  <defs>
    <clipPath id="clip-path">
      <rect id="Rectangle_1509" data-name="Rectangle 1509" width="24.766" height="26.471" fill="none"/>
    </clipPath>
  </defs>
  <g id="Group_11653" data-name="Group 11653" opacity="0.8">
    <g id="Group_2700" data-name="Group 2700" transform="translate(0 0)">
      <g id="Group_2699" data-name="Group 2699" clip-path="url(#clip-path)">
        <g id="Group_11652" data-name="Group 11652" transform="translate(-0.001 0)">
          <path id="Path_4711" data-name="Path 4711" d="M11959.511,2017.931a5.763,5.763,0,0,1-1.748-.587q-3.734-2.1-7.477-4.178c-.449-.251-.9-.5-1.35-.757a2.558,2.558,0,0,1,.013-4.506l.836-.472c-.291-.163-.543-.308-.8-.447a2.564,2.564,0,0,1,0-4.559c.255-.14.507-.284.8-.451-.278-.156-.521-.3-.77-.429a2.483,2.483,0,0,1-1.428-2.286,2.51,2.51,0,0,1,1.427-2.316c2.908-1.613,5.81-3.244,8.719-4.859a4.293,4.293,0,0,1,4.385-.044c2.969,1.634,5.92,3.295,8.877,4.953a2.561,2.561,0,0,1-.009,4.521l-.822.463.827.467a2.565,2.565,0,0,1,.022,4.511c-.265.154-.539.3-.852.48l.846.477a2.513,2.513,0,0,1,1.27,1.645,2.474,2.474,0,0,1-1.107,2.751c-1.471.859-2.965,1.681-4.457,2.5a1.012,1.012,0,0,1-1.375-.4l-.019-.035a1.024,1.024,0,0,1,.426-1.384l.016-.009q2.071-1.162,4.146-2.314c.207-.116.377-.249.374-.507a.559.559,0,0,0-.365-.488c-.565-.311-1.132-.619-1.688-.945a.346.346,0,0,0-.4.006c-1.83,1.027-3.666,2.04-5.492,3.072a4.5,4.5,0,0,1-4.729,0c-1.825-1.033-3.664-2.046-5.493-3.073a.368.368,0,0,0-.42,0c-.558.323-1.123.635-1.688.945a.511.511,0,0,0-.011.973q4.393,2.449,8.785,4.9a2.355,2.355,0,0,0,2.411-.016,1.031,1.031,0,1,1,1.082,1.756.463.463,0,0,1-.053.03,4.327,4.327,0,0,1-1.591.567,1.927,1.927,0,0,0-.2.05Zm.452-24.465a7,7,0,0,0-1.142.391c-2.944,1.624-5.877,3.273-8.812,4.905a.51.51,0,0,0-.332.641.5.5,0,0,0,.332.332q4.393,2.449,8.784,4.9a2.32,2.32,0,0,0,2.364,0c.415-.226.826-.462,1.238-.692l7.522-4.2c.477-.265.512-.708.068-.953q-4.447-2.489-8.9-4.961a6.368,6.368,0,0,0-1.122-.365m.01,16.936c.008.024.016.047.022.071a6.211,6.211,0,0,0,1.112-.364q4.438-2.449,8.856-4.936a.5.5,0,0,0,0-.939c-.561-.319-1.129-.619-1.687-.948a.4.4,0,0,0-.465-.005c-1.836,1.034-3.679,2.055-5.516,3.086a4.447,4.447,0,0,1-4.639,0c-1.845-1.035-3.694-2.061-5.538-3.1a.373.373,0,0,0-.421,0c-.566.328-1.137.646-1.71.959a.5.5,0,0,0-.006.939q4.406,2.454,8.808,4.915a2.3,2.3,0,0,0,1.183.313" transform="translate(-11947.594 -1991.46)"/>
        </g>
      </g>
    </g>
  </g>
</svg>
