<svg xmlns="http://www.w3.org/2000/svg" width="25" height="29.975" viewBox="0 0 25 29.975">
  <g id="Group_1197" data-name="Group 1197" transform="translate(-11816.265 -8786.927)" opacity="0.8">
    <path id="Path_1130" data-name="Path 1130" d="M11816.705,8816.9a.863.863,0,0,1-.439-.877c.021-.595.012-1.189.028-1.784a2.465,2.465,0,0,1,2.289-2.317,1.777,1.777,0,0,0,.179-.03v-.375q0-10.944,0-21.889a2.476,2.476,0,0,1,1.412-2.428,2.61,2.61,0,0,1,1.093-.259q6.249-.028,12.5-.009a2.474,2.474,0,0,1,2.491,2.58q0,7.888,0,15.773v.375h.514a1.893,1.893,0,0,1,2,1.975c.006.361,0,.723,0,1.083a.632.632,0,0,0,.586.68.65.65,0,0,0,.647-.621,1.792,1.792,0,0,0,0-.205q0-5.062,0-10.125c0-.086-.007-.172-.012-.271a2.635,2.635,0,0,1-1.453-.486,2.544,2.544,0,0,1-1.043-2.119c-.008-.518.007-1.034,0-1.552a1.028,1.028,0,0,1,.33-.808c.573-.557,1.134-1.128,1.7-1.694.067-.067.132-.14.21-.224l-1.871-1.871q-.617-.617-.167-1.062c.3-.295.649-.237,1.063.176.725.724,1.445,1.452,2.176,2.17a1.022,1.022,0,0,1,.329.777q-.006,8.574,0,17.147a1.883,1.883,0,1,1-3.761.078c-.008-.351,0-.7,0-1.053,0-.494-.214-.716-.7-.738-.164-.008-.329,0-.516,0v4.935a6.416,6.416,0,0,1,1.024.3,2.476,2.476,0,0,1,1.462,2.367c.011.509-.01,1.016.006,1.522a.828.828,0,0,1-.464.863Zm18.282-5.018c.007-.1.017-.181.017-.257q0-11.017,0-22.034a1.251,1.251,0,0,0-1.409-1.407c-4.048,0-8.1.007-12.145-.008a1.337,1.337,0,0,0-1.426,1.435q.025,10.972.01,21.945v.326Zm-17.458,3.741h19.961c0-.479.027-.938-.007-1.393a1.265,1.265,0,0,0-1.405-1.079h-17.12c-.078,0-.156,0-.234.006a1.239,1.239,0,0,0-1.188,1.188C11817.506,8814.763,11817.529,8815.183,11817.529,8815.625Zm22.463-22.8c-.413.413-.791.787-1.162,1.167a.289.289,0,0,0-.058.185c0,.536-.018,1.072.007,1.607a1.157,1.157,0,0,0,1.213,1.086Z"/>
    <path id="Path_1131" data-name="Path 1131" d="M11827.493,8798.179h-5.384c-.644,0-.836-.194-.836-.838q0-3.555,0-7.108c0-.593.213-.81.812-.81q5.427,0,10.855,0c.608,0,.825.219.826.83q0,3.555,0,7.109c0,.609-.215.817-.832.817Zm5.012-7.494h-9.957v6.225h9.957Z"/>
  </g>
</svg>
