<svg xmlns="http://www.w3.org/2000/svg" xmlns:xlink="http://www.w3.org/1999/xlink" width="28" height="25.678" viewBox="0 0 28 25.678">
  <defs>
    <clipPath id="clip-path">
      <rect id="Rectangle_1497" data-name="Rectangle 1497" width="28" height="25.678" transform="translate(12572.82 1239.867)" fill="none"/>
    </clipPath>
  </defs>
  <g id="Group_11655" data-name="Group 11655" transform="translate(-12572.82 -1239.867)" opacity="0.8">
    <g id="Group_2672" data-name="Group 2672">
      <g id="Group_2671" data-name="Group 2671" clip-path="url(#clip-path)">
        <g id="Group_11654" data-name="Group 11654">
          <path id="Path_4712" data-name="Path 4712" d="M12593.931,1262.286h-14.225l-.753,2.63c-.168.589-.217.627-.825.627h-1.02c-.38-.006-.549-.175-.55-.559v-2.692a1.432,1.432,0,0,1-1.364-1.125,1.911,1.911,0,0,1-.036-.435c0-1.9-.007-3.792.006-5.688a.442.442,0,0,0-.329-.5,3.2,3.2,0,0,1-1.973-3.477,3.3,3.3,0,0,1,3.006-2.79l.222-.01v-1.322a6.977,6.977,0,0,1,5.566-6.916,7.474,7.474,0,0,1,1.5-.152q3.664-.015,7.322-.01a6.993,6.993,0,0,1,6.993,5.96,8.584,8.584,0,0,1,.078,1.163c.014.416,0,.832,0,1.238.321.049.641.114.955.194a3.28,3.28,0,0,1,2.315,2.988,3.221,3.221,0,0,1-2.11,3.175.3.3,0,0,0-.226.335c.007,1.9,0,3.792,0,5.688a1.475,1.475,0,0,1-1.229,1.684,1.394,1.394,0,0,1-.171.016v2.558c0,.551-.131.68-.691.68-.359,0-.719-.006-1.078,0a.518.518,0,0,1-.57-.429c-.242-.869-.5-1.736-.745-2.6-.021-.074-.046-.147-.072-.226m-14.569-9.324h14.931v-1.3a3.232,3.232,0,0,1,2.147-3.183.242.242,0,0,0,.188-.271c-.008-.476,0-.953,0-1.429a6.061,6.061,0,0,0-5.983-5.975q-3.82-.028-7.637,0a6.075,6.075,0,0,0-5.64,4.058,9.806,9.806,0,0,0-.33,3.431c0,.06.105.146.181.175a3.26,3.26,0,0,1,2.144,3.134v1.361m7.436,8.376h10.088c.536,0,.673-.136.673-.67v-6.185c0-.472.081-.573.535-.681a2.331,2.331,0,1,0-2.869-2.282c-.012,1.808,0,3.616,0,5.425,0,.515-.141.656-.655.656h-15.482c-.517,0-.657-.139-.657-.654,0-1.819.01-3.637-.007-5.456a2.331,2.331,0,1,0-2.863,2.309c.457.11.535.209.535.68v6.185c0,.535.136.67.672.67h10.031m-7.435-4.685h14.93v-2.089c0-.573-.125-.7-.7-.7h-13.759a.451.451,0,0,0-.467.433v.025c-.011.767,0,1.533,0,2.322m-1.857,7.963a2.791,2.791,0,0,0,.389,0c.073-.01.187-.05.2-.1.218-.731.423-1.466.635-2.214h-1.224Zm18.629-.008V1262.3h-1.22c.223.785.439,1.546.656,2.307Z"/>
        </g>
      </g>
    </g>
  </g>
</svg>
