<svg xmlns="http://www.w3.org/2000/svg" width="26.859" height="32.749" viewBox="0 0 26.859 32.749">
  <g id="Group_1198" data-name="Group 1198" transform="translate(-11814.765 -8855.636)" opacity="0.8">
    <path id="Path_1132" data-name="Path 1132" d="M11818.032,8884.356a2.119,2.119,0,0,1,2.23-3.262,2.041,2.041,0,0,1,1.744-3.224l-.156-.313a1.983,1.983,0,0,1,1.717-2.895c.959-.021,1.919,0,2.908,0l1.681-6.214c-.624-.3-.628-.3-.465-.964a6.54,6.54,0,0,0-.206-3.953,5.674,5.674,0,0,1,.525-5.424,5.627,5.627,0,0,1,10.243,2.529,5.365,5.365,0,0,1-1.935,4.9,7.494,7.494,0,0,0-2.586,3.9c-.09.347-.252.4-.787.277l-1.345,4.944c.384,0,.717.017,1.047,0a2,2,0,0,1,1.814,3.062,1.213,1.213,0,0,0-.061.143,2.094,2.094,0,0,1,1.861,1.069,2,2,0,0,1-.154,2.186,2.355,2.355,0,0,1,2.27.857,2,2,0,0,1-.032,2.387c.437,0,.815,0,1.194,0a2.012,2.012,0,0,1,.211,4.018,2.923,2.923,0,0,1-.333.015q-11.216,0-22.431,0a2.1,2.1,0,0,1-1.74-.73,1.9,1.9,0,0,1-.288-2.105,1.95,1.95,0,0,1,1.808-1.19C11817.171,8884.339,11817.574,8884.356,11818.032,8884.356Zm15.023-15.436a8.429,8.429,0,0,1,2.8-4.025,4.6,4.6,0,0,0,1.6-4.335,4.845,4.845,0,1,0-9.291,2.507,7.773,7.773,0,0,1,.353,4.312c-.041.2-.029.3.21.366C11830.154,8868.122,11831.585,8868.52,11833.056,8868.921Zm-4.858,16.223h-5.54c-1.945,0-3.892-.006-5.836,0a1.218,1.218,0,0,0-1.262,1.356,1.269,1.269,0,0,0,1.389,1.095h22.5c.085,0,.173,0,.258,0a1.231,1.231,0,0,0-.2-2.453Q11833.85,8885.151,11828.2,8885.144Zm0-.793q4.25,0,8.5,0a1.224,1.224,0,1,0,.03-2.446q-8.534-.006-17.066.012a1.5,1.5,0,0,0-.8.3,1.141,1.141,0,0,0-.353,1.331,1.2,1.2,0,0,0,1.162.807Q11823.932,8884.354,11828.2,8884.351Zm-.014-3.232h.775c1.846,0,3.691.006,5.536-.006a1.205,1.205,0,0,0,1.243-1.194,1.249,1.249,0,0,0-1.228-1.263c-.086,0-.172,0-.258,0h-12.108a2.867,2.867,0,0,0-.331.008,1.233,1.233,0,0,0-1.055.757,1.166,1.166,0,0,0,.158,1.22,1.3,1.3,0,0,0,1.139.483C11824.1,8881.113,11826.142,8881.118,11828.185,8881.118Zm.034-5.693q-2.143,0-4.283,0a3.234,3.234,0,0,0-.515.036,1.172,1.172,0,0,0-1,1.185,1.185,1.185,0,0,0,.98,1.2,2.917,2.917,0,0,0,.514.042q4.283,0,8.568,0a2.957,2.957,0,0,0,.55-.046,1.185,1.185,0,0,0,.944-1.085,1.223,1.223,0,0,0-1.362-1.335C11831.148,8875.419,11829.685,8875.426,11828.219,8875.425Zm.706-6.817-1.639,6.054c1.146,0,2.229,0,3.311-.009a.338.338,0,0,0,.244-.2c.454-1.642.893-3.285,1.346-4.962Z" transform="translate(0 -0.001)"/>
  </g>
</svg>
