<svg xmlns="http://www.w3.org/2000/svg" width="38.55" height="36.649" viewBox="0 0 38.55 36.649">
  <g id="Group_11926" data-name="Group 11926" transform="translate(-1610.551 -3057.451)">
    <rect id="Rectangle_1856" data-name="Rectangle 1856" width="37.55" height="35.649" rx="3.103" transform="translate(1611.051 3057.951)" fill="none" stroke="#8a8a8a" stroke-width="1"/>
    <g id="Group_3317" data-name="Group 3317">
      <g id="Group_3316" data-name="Group 3316">
        <path id="Path_3199" data-name="Path 3199" d="M1632.877,3081.041a6.673,6.673,0,0,0,1.708-1.492,6.043,6.043,0,0,0,.836-1.4.343.343,0,0,0,.053-.2h-4.41c-.565,0-.806-.242-.806-.808q0-1.179,0-2.358a.664.664,0,0,1,.731-.744q3.993,0,7.987,0a.675.675,0,0,1,.753.631,1.673,1.673,0,0,0,.1.484v.117a.09.09,0,0,0,0,.117v.155a.306.306,0,0,0,0,.234v.195a.4.4,0,0,0,0,.273v.429c-.045.371-.061.745-.134,1.113a9.781,9.781,0,0,1-1.995,4.258,10.257,10.257,0,0,1-2.664,2.309.27.27,0,0,1-.2.062.275.275,0,0,1-.134-.135c-.591-1.029-1.192-2.052-1.782-3.082C1632.89,3081.153,1632.842,3081.106,1632.877,3081.041Z" fill="#8a8a8a"/>
        <path id="Path_3200" data-name="Path 3200" d="M1621.188,3080.762a8.24,8.24,0,0,1-.89-1.956,10.031,10.031,0,0,1-.43-2.071c-.005-.048.02-.107-.043-.138v-.156a.087.087,0,0,0,0-.117v-.234a.3.3,0,0,0,0-.234v-.156a.3.3,0,0,0,0-.234v-.233a.087.087,0,0,0,0-.117v-.2a10.671,10.671,0,0,1,.215-1.453,10.291,10.291,0,0,1,.957-2.474.516.516,0,0,1,.163-.215.272.272,0,0,1,.2.064c1,.587,2.015,1.16,3.023,1.74.066.038.143.07.167.154a7.118,7.118,0,0,0-.658,1.695,6,6,0,0,0,.587,4.234c.027.051.048.1.072.157-.015.072-.075.1-.131.135-1,.581-2.011,1.152-3.013,1.735A.31.31,0,0,1,1621.188,3080.762Z" fill="#8a8a8a"/>
        <path id="Path_3201" data-name="Path 3201" d="M1624.548,3072.737l-3.362-1.94c-.048-.079.009-.137.044-.2a9.713,9.713,0,0,1,1.252-1.659,10,10,0,0,1,5.908-3.091c.192-.027.387-.008.576-.054h.2a.052.052,0,0,0,.079,0h.117a.3.3,0,0,0,.234,0h.234a.354.354,0,0,1,.063.258q0,1.691,0,3.381a.349.349,0,0,1-.062.258,6.132,6.132,0,0,0-5.178,2.9C1624.617,3072.645,1624.581,3072.691,1624.548,3072.737Z" fill="#8a8a8a"/>
        <path id="Path_3202" data-name="Path 3202" d="M1629.826,3069.7v-3.9h.2a.674.674,0,0,0,.351,0h.235a4.582,4.582,0,0,0,.756.113,9.96,9.96,0,0,1,5.008,2.329.632.632,0,0,1,.058.95q-.924.951-1.876,1.873a.644.644,0,0,1-.916-.008,6.107,6.107,0,0,0-2.423-1.187A9.309,9.309,0,0,0,1629.826,3069.7Z" fill="#8a8a8a"/>
        <path id="Path_3203" data-name="Path 3203" d="M1621.188,3080.762l3.361-1.939a9.452,9.452,0,0,0,.7.951,6.063,6.063,0,0,0,4.477,2.081c.032,0,.064.005.1.007a.351.351,0,0,1,.062.257q0,1.689,0,3.377a.331.331,0,0,1-.062.256,9.692,9.692,0,0,1-4.453-1.041,9.906,9.906,0,0,1-4.109-3.794A1.72,1.72,0,0,1,1621.188,3080.762Z" fill="#8a8a8a"/>
        <path id="Path_3204" data-name="Path 3204" d="M1629.826,3085.752v-3.89a6.516,6.516,0,0,0,2.191-.43c.29-.121.573-.26.86-.391l1.832,3.162c.039.067.08.133.121.2a5.437,5.437,0,0,1-1.15.589A9.5,9.5,0,0,1,1629.826,3085.752Z" fill="#8a8a8a"/>
      </g>
    </g>
  </g>
</svg>
