<svg xmlns="http://www.w3.org/2000/svg" width="32.276" height="33.421" viewBox="0 0 32.276 33.421">
  <g id="Group_1897" data-name="Group 1897" transform="translate(-5433.841 -299.665)" opacity="0.8">
    <path id="Path_3857" data-name="Path 3857" d="M5436.087,313.877c-.335.356-.662.721-1.006,1.072-.37.375-.766.4-1.058.094-.277-.293-.239-.675.116-1.03l13.2-13.2a3.6,3.6,0,0,1,5.088-.183c.065.061.128.124.189.19q6.6,6.576,13.176,13.168c.047.046.1.09.137.14a.664.664,0,0,1,.008.918.645.645,0,0,1-.912.049c-.012-.01-.023-.021-.034-.032-.389-.379-.75-.788-1.123-1.182l-.111.056v15.439a3.615,3.615,0,0,1-2.979,3.643,4.842,4.842,0,0,1-.9.058q-9.9,0-19.8,0a3.638,3.638,0,0,1-3.883-3.895V313.937Zm13.883,17.867h9.942a2.311,2.311,0,0,0,2.511-2.507V312.873a.784.784,0,0,0-.246-.616q-5.212-5.2-10.411-10.4a2.321,2.321,0,0,0-3.266-.325,2.355,2.355,0,0,0-.34.344q-5.177,5.175-10.356,10.347a.869.869,0,0,0-.286.679c.009,5.43.03,10.858-.009,16.288a2.467,2.467,0,0,0,2.353,2.575,2.128,2.128,0,0,0,.239,0c3.286-.058,6.578-.02,9.866-.02Z"/>
    <path id="Path_3858" data-name="Path 3858" d="M5447.4,318.3v-3.379c0-.783.186-.97.965-.97h3.365c.569,0,.809.237.811.81,0,1.159,0,2.318,0,3.518.164.009.3.021.439.022h3.013c.681,0,.9.216.9.883q.006,1.7,0,3.4c0,.623-.232.843-.856.844h-3.5v3.525c0,.592-.246.842-.828.844q-1.742.008-3.483,0c-.583,0-.828-.251-.83-.841v-3.528h-3.573c-.525,0-.774-.236-.778-.761q-.015-1.8,0-3.6c0-.537.25-.763.817-.768,1.017-.008,2.035,0,3.052,0Zm1.336,8.154h2.472v-3.578a.672.672,0,0,1,.563-.768.664.664,0,0,1,.2,0h3.555v-2.45h-3.266c-.907,0-1.06-.155-1.06-1.076v-3.27h-2.472v3.5c0,.62-.228.845-.855.849h-3.466v2.45h3.544a.679.679,0,0,1,.775.566.666.666,0,0,1,0,.2v.509Z"/>
  </g>
</svg>
