<svg xmlns="http://www.w3.org/2000/svg" width="145.413" height="145.413" viewBox="0 0 145.413 145.413">
  <g id="Group_11922" data-name="Group 11922" transform="translate(-848.018 -2550.294)">
    <circle id="Ellipse_214" data-name="Ellipse 214" cx="72.707" cy="72.707" r="72.707" transform="translate(848.018 2550.294)" fill="#f4f5f9"/>
    <g id="Group_3396" data-name="Group 3396">
      <g id="Group_3395" data-name="Group 3395">
        <path id="Path_3265" data-name="Path 3265" d="M957.224,2645.384a17.8,17.8,0,0,1-1.325,3.173,5.76,5.76,0,0,1-4.747,2.621,40.917,40.917,0,0,1-5.548-.083,6.279,6.279,0,0,1-5.46-5.708c-.086-1.246-.014-2.5-.014-3.795H901.381c0,.992.012,1.959,0,2.925a6.358,6.358,0,0,1-3.684,6.024,5.1,5.1,0,0,1-1.96.572,39.619,39.619,0,0,1-5.617.028,6.322,6.322,0,0,1-5.866-6.47q-.062-11.013,0-22.026a7.949,7.949,0,0,1,2.829-6.306,12.5,12.5,0,0,0,3.936-5.984c1.225-3.69,2.672-7.3,4.028-10.951a6.564,6.564,0,0,1,6.688-4.635q19.494,0,38.986,0a6.594,6.594,0,0,1,6.684,4.651c1.7,4.579,3.388,9.165,5.119,13.733a5.45,5.45,0,0,0,1.04,1.653,13,13,0,0,1,2.82,3.724c.334.851.563,1.743.839,2.617Zm-36.489-6.954H943.61c2.4,0,4.8.027,7.2-.02a3.276,3.276,0,0,0,3.279-3.4c.007-4.181.013-8.363-.009-12.544a8.774,8.774,0,0,0-.255-1.823c-.357-1.595-1.579-2.6-2.588-3.763a1.6,1.6,0,0,0-1.342-.593q-28.754.024-57.507.013a1.59,1.59,0,0,0-.425.008,1.559,1.559,0,0,0-.618.262c-.722.654-1.418,1.335-2.122,2.008a6.048,6.048,0,0,0-1.859,4.612c.01,3.849,0,7.7.008,11.546a4.78,4.78,0,0,0,.1,1.129c.41,1.676,1.7,2.566,3.689,2.567Q905.949,2638.433,920.735,2638.43Zm-27.466-25.306H924.4a10.8,10.8,0,0,1,10.2-9.071,10.37,10.37,0,0,1,6.679,2.038,10.662,10.662,0,0,1,4.3,7.047h3.58c-.072-.233-.124-.432-.2-.625q-2.253-6.067-4.513-12.132a3.381,3.381,0,0,0-3.563-2.482q-19.662,0-39.325,0a3.376,3.376,0,0,0-3.556,2.489c-.768,2.042-1.522,4.088-2.282,6.132C894.916,2608.7,894.107,2610.869,893.269,2613.124Zm4.928,28.427c-.954,0-1.854.041-2.749-.007-2.69-.145-5.457.514-8.063-.816,0,1.492-.061,2.917.016,4.334a3.244,3.244,0,0,0,3.074,3.013c1.563.059,3.132.056,4.7,0a3.169,3.169,0,0,0,3-2.676A37.438,37.438,0,0,0,898.2,2641.551Zm45.038,0c0,1.258-.063,2.4.015,3.529a3.239,3.239,0,0,0,3.148,3c1.493.046,2.99.043,4.483,0a3.216,3.216,0,0,0,3.152-2.846c.124-1.474.027-2.968.027-4.447a9.413,9.413,0,0,1-1.9.585c-1.436.128-2.883.146-4.326.17C946.318,2641.571,944.8,2641.551,943.235,2641.551Zm-.9-28.412a7.51,7.51,0,0,0-14.7,0Z" fill="#f37521"/>
        <path id="Path_3266" data-name="Path 3266" d="M898.992,2622.545c1.8,0,3.608,0,5.412,0,1.414,0,1.96.532,1.964,1.918q.014,3.7,0,7.408c-.005,1.3-.565,1.882-1.858,1.887q-5.555.022-11.109,0a1.628,1.628,0,0,1-1.838-1.853q-.03-3.774,0-7.549c.012-1.239.621-1.8,1.872-1.808C895.289,2622.537,897.14,2622.545,898.992,2622.545Zm-4.285,8.043h8.5v-4.867h-8.5Z" fill="#f37521"/>
        <path id="Path_3267" data-name="Path 3267" d="M942.469,2622.545c1.828,0,3.656-.006,5.484,0,1.34.005,1.938.565,1.947,1.88q.027,3.739,0,7.479a1.629,1.629,0,0,1-1.837,1.853q-5.555.025-11.109,0c-1.293-.005-1.853-.59-1.859-1.887q-.013-3.7,0-7.407c0-1.386.55-1.915,1.963-1.919C938.861,2622.54,940.665,2622.545,942.469,2622.545Zm-4.223,8.054h8.5v-4.889h-8.5Z" fill="#f37521"/>
        <path id="Path_3268" data-name="Path 3268" d="M920.709,2627.378c-2.325,0-4.651.006-6.976-.007a3.78,3.78,0,0,1-1.121-.147,1.53,1.53,0,0,1,.208-2.9,1.812,1.812,0,0,1,.493-.058q7.4,0,14.808,0a1.508,1.508,0,0,1,1.609,1.13,1.482,1.482,0,0,1-1.127,1.89,4.453,4.453,0,0,1-.917.088C925.361,2627.381,923.035,2627.378,920.709,2627.378Z" fill="#f37521"/>
        <path id="Path_3269" data-name="Path 3269" d="M920.779,2629.094c2.421,0,4.842-.013,7.262.006,1.28.01,2.086.964,1.643,2.012a2.646,2.646,0,0,1-1.082,1,1.833,1.833,0,0,1-.906.1q-6.942.008-13.884,0c-1.408,0-2.226-.583-2.154-1.6.055-.779.472-1.575,2.144-1.535C916.126,2629.134,918.453,2629.093,920.779,2629.094Z" fill="#f37521"/>
      </g>
    </g>
  </g>
</svg>
