<svg xmlns="http://www.w3.org/2000/svg" width="22.618" height="33.953" viewBox="0 0 22.618 33.953">
  <g id="Group_401" data-name="Group 401" transform="translate(-5219.52 -302.422)" opacity="0.8">
    <g id="Group_400" data-name="Group 400">
      <path id="Path_462" data-name="Path 462" d="M5235.4,302.422a11.059,11.059,0,0,1,1.08.839c1.723,1.7,3.424,3.418,5.138,5.125a1.43,1.43,0,0,1,.435,1.562,1.4,1.4,0,0,1-2.365.5c-.886-.864-1.753-1.746-2.627-2.622-.17-.171-.332-.35-.5-.525l-.086.03v16.081a1.439,1.439,0,0,1-.971,1.556,1.4,1.4,0,0,1-1.837-1.224c-.011-.154-.011-.309-.011-.464V307.259c-.137.131-.221.208-.3.288-.961.96-1.917,1.925-2.884,2.88a1.41,1.41,0,0,1-2.154-1.818c.09-.111.193-.213.294-.315,1.679-1.68,3.351-3.366,5.042-5.033a11.244,11.244,0,0,1,1.081-.839Z"/>
      <path id="Path_463" data-name="Path 463" d="M5225.176,331.516v-.484q0-7.836,0-15.673a1.443,1.443,0,0,1,1.042-1.57,1.4,1.4,0,0,1,1.763,1.225c.013.165.013.331.013.5v16.02c.143-.14.225-.219.306-.3.961-.961,1.917-1.925,2.884-2.88a1.4,1.4,0,0,1,1.942-.153,1.349,1.349,0,0,1,.2,1.973q-2.9,2.961-5.853,5.861a1.338,1.338,0,0,1-1.792,0c-.042-.036-.083-.073-.122-.112q-2.788-2.788-5.574-5.579a1.413,1.413,0,1,1,2.017-1.972c.965.956,1.922,1.92,2.884,2.88C5224.959,331.32,5225.04,331.39,5225.176,331.516Z"/>
    </g>
  </g>
</svg>
