<svg xmlns="http://www.w3.org/2000/svg" width="25.001" height="30.907" viewBox="0 0 25.001 30.907">
  <g id="Group_3375" data-name="Group 3375" transform="translate(-524.114 -634.555)" opacity="0.5">
    <path id="Path_3226" data-name="Path 3226" d="M549.115,647.214a14,14,0,0,1-1.562,5.96,29.833,29.833,0,0,1-5.011,7.07A45.264,45.264,0,0,1,537.2,665.2a.758.758,0,0,1-1.127.032,41.749,41.749,0,0,1-8.661-9.072,18.244,18.244,0,0,1-3-6.519,12.021,12.021,0,0,1,2.7-10.666,12.193,12.193,0,0,1,7.6-4.259,12.545,12.545,0,0,1,13.218,7.074A12.88,12.88,0,0,1,549.115,647.214Zm-1.468-.437c-.028-.294-.064-.834-.135-1.369a9.045,9.045,0,0,0-.221-1.078,11.009,11.009,0,0,0-21.357,5.352,18.507,18.507,0,0,0,2.912,5.959,41.169,41.169,0,0,0,7.582,8c.181.151.275.072.41-.039a46.019,46.019,0,0,0,4.3-4.008,29.218,29.218,0,0,0,5-6.887A12.963,12.963,0,0,0,547.647,646.777Z"/>
    <path id="Path_3227" data-name="Path 3227" d="M536.637,637.512a9.56,9.56,0,1,1-9.584,9.518A9.574,9.574,0,0,1,536.637,637.512Zm8.086,9.792a7.932,7.932,0,0,0-4.31-7.344,7.689,7.689,0,0,0-8.814.791,7.824,7.824,0,0,0-3.08,6.548h3.436v-.347q0-2.8,0-5.605c0-.622.272-.893.9-.893h7.5c.648,0,.913.263.913.906q0,2.8,0,5.606v.338Zm-9.827,4.9c0-.72,0-1.4,0-2.088a.749.749,0,0,1,.828-.839c.551,0,1.1,0,1.654,0,.706,0,.948.246.949.964V652.2h1.446V641.941h-6.327v10.264Zm6.286,1.506h-9.138A7.962,7.962,0,0,0,541.182,653.711ZM528.715,648.8a7.916,7.916,0,0,0,1.585,3.316.269.269,0,0,0,.172.1c.487.008.973.005,1.462.005V648.8Zm12.568,3.421c.461,0,.9.014,1.335-.009a.535.535,0,0,0,.369-.187,11.67,11.67,0,0,0,.9-1.451c.269-.557.447-1.158.674-1.769h-3.279Zm-4.448-.012v-1.444h-.451v1.444Z"/>
    <path id="Path_3228" data-name="Path 3228" d="M533.918,643.641c0-.173-.009-.346,0-.519a.735.735,0,0,1,.737-.706.724.724,0,0,1,.722.688,10.3,10.3,0,0,1,0,1.068.725.725,0,0,1-.718.691.736.736,0,0,1-.741-.7C533.909,643.988,533.918,643.814,533.918,643.641Z"/>
    <path id="Path_3229" data-name="Path 3229" d="M537.344,643.644c0,.173.011.347,0,.519a.731.731,0,0,1-1.46.006,10.582,10.582,0,0,1,0-1.068.73.73,0,0,1,1.457-.006C537.356,643.277,537.344,643.461,537.344,643.644Z"/>
    <path id="Path_3230" data-name="Path 3230" d="M537.84,643.644c0-.173-.009-.347,0-.519a.734.734,0,0,1,.734-.709.724.724,0,0,1,.725.685,10.583,10.583,0,0,1,0,1.068.727.727,0,0,1-.747.694.737.737,0,0,1-.713-.7C537.831,643.99,537.84,643.817,537.84,643.644Z"/>
    <path id="Path_3231" data-name="Path 3231" d="M535.383,647.553c0,.184.012.368,0,.55a.73.73,0,0,1-1.457,0,9.821,9.821,0,0,1,0-1.1.722.722,0,0,1,.711-.667.732.732,0,0,1,.743.666c.017.182,0,.366,0,.549Z"/>
    <path id="Path_3232" data-name="Path 3232" d="M537.343,647.561c0,.183.013.368,0,.549a.73.73,0,0,1-1.457-.015c-.018-.355-.018-.712,0-1.068a.731.731,0,0,1,1.458-.015C537.356,647.194,537.343,647.378,537.343,647.561Z"/>
    <path id="Path_3233" data-name="Path 3233" d="M537.842,647.529c0-.173-.013-.347,0-.519a.735.735,0,0,1,.739-.672.718.718,0,0,1,.715.661,9.049,9.049,0,0,1,0,1.129.717.717,0,0,1-.718.657.734.734,0,0,1-.735-.677C537.828,647.916,537.841,647.722,537.842,647.529Z"/>
    <path id="Path_3234" data-name="Path 3234" d="M530,650.482c0-.173-.011-.347,0-.519a.733.733,0,0,1,.728-.683.723.723,0,0,1,.73.679,9.348,9.348,0,0,1,0,1.1.723.723,0,0,1-.739.669.735.735,0,0,1-.717-.7C529.986,650.849,530,650.665,530,650.482Z"/>
    <path id="Path_3235" data-name="Path 3235" d="M543.227,650.507c0,.173.01.347,0,.519a.73.73,0,0,1-1.459.006,10.565,10.565,0,0,1,0-1.068.723.723,0,0,1,.725-.684.731.731,0,0,1,.732.678C543.239,650.14,543.227,650.324,543.227,650.507Z"/>
  </g>
</svg>
