<svg xmlns="http://www.w3.org/2000/svg" width="145.413" height="145.413" viewBox="0 0 145.413 145.413">
  <g id="Group_11923" data-name="Group 11923" transform="translate(-1185.746 -2550.294)">
    <circle id="Ellipse_215" data-name="Ellipse 215" cx="72.707" cy="72.707" r="72.707" transform="translate(1185.746 2550.294)" fill="#f4f5f9"/>
    <g id="Group_3398" data-name="Group 3398">
      <g id="Group_3397" data-name="Group 3397">
        <path id="Path_3270" data-name="Path 3270" d="M1294.952,2611.153a1.957,1.957,0,0,1-1.942,1.013c-4.016-.034-8.031-.009-12.047-.024a1.093,1.093,0,0,0-1,.487,11.5,11.5,0,0,1-7.059,4.706,5.206,5.206,0,0,1-1.627.115,2.029,2.029,0,0,0-1.839.773q-6.624,6.683-13.3,13.317c-1.04,1.04-1.743,1.039-2.781,0l-26.315-26.3c-1.177-1.176-1.173-1.715.02-2.907q7.41-7.409,14.824-14.813c.365-.364.775-.684,1.164-1.024h.855c.378.318.779.612,1.13.957,1.32,1.3,2.613,2.628,3.945,3.916a.931.931,0,0,0,.771.216c1.841-.625,3.686-1.246,5.49-1.97a11.918,11.918,0,0,1,9.806.25c2,.923,3.964,1.935,5.924,2.946,1.412.729,2.774,1.552,4.189,2.275a6.285,6.285,0,0,0,2.991.676c.258-1.458.592-1.763,1.885-1.772.428,0,.856,0,1.283,0h2.3c0-.328,0-.539,0-.749.016-1.483.44-1.907,1.913-1.908,2.495,0,4.99.027,7.483-.015a1.871,1.871,0,0,1,1.927,1.023Zm-43.316-17.18a2.851,2.851,0,0,0,.2.267c1.612,1.614,3.219,3.232,4.845,4.832a1.868,1.868,0,0,0,.731.4c2.415.778,4.835,1.538,7.253,2.307.836.265,1.681.51,2.5.822a1.376,1.376,0,0,1,.823,1.751,1.418,1.418,0,0,1-1.637.939,5.568,5.568,0,0,1-.681-.2c-4.025-1.272-8.047-2.553-12.076-3.815a2.742,2.742,0,0,0-3.277,1.2,2.656,2.656,0,0,0,.513,3.436,5.709,5.709,0,0,0,1.878,1.1c3.489,1.228,7.007,2.376,10.5,3.6a3.6,3.6,0,0,1,1.4,1,8.192,8.192,0,0,0,8.271,2.791,8.571,8.571,0,0,0,5.211-4.058,1.149,1.149,0,0,0,.14-.607c.008-3.492,0-6.984.014-10.476,0-.442-.114-.626-.587-.659a12,12,0,0,1-4.857-1.493c-3.012-1.608-6.026-3.216-9.092-4.718a8.494,8.494,0,0,0-6.588-.421C1255.3,2592.574,1253.51,2593.283,1251.636,2593.973Zm5.375,17.531c-.115.317-.2.559-.289.8a8.127,8.127,0,0,1-15.652-1.813,8.023,8.023,0,0,1,5.191-8.638,4.008,4.008,0,0,0,2.138-1.539,5.28,5.28,0,0,1,3.289-1.98l-3-3c.081-.008.053-.013.035,0a9.1,9.1,0,0,1-10.265.107.51.51,0,0,0-.477.044c-1.021.988-2.022,2-3.015,2.989a9.162,9.162,0,0,1,.108,10.49l14.536,14.538a8.833,8.833,0,0,1,5.194-1.606,9.016,9.016,0,0,1,5.2,1.667l3.253-3.255a9.3,9.3,0,0,1-1.482-7.184Zm35.035-2.236v-15.043h-5.517v15.043Zm-37.853,1.252c-3.192-.937-6.389-1.945-7.085-5.893a5.155,5.155,0,0,0-3.173,5.771,5.314,5.314,0,0,0,5.29,4.3A5.143,5.143,0,0,0,1254.193,2610.52Zm26.946-13.643v12.374h2.446v-12.374Zm-23.324,28.735a5.737,5.737,0,0,0-6.142.013l3.066,3.062Zm-28.107-21.768c.118.125.26.281.408.431q1.35,1.364,2.707,2.729a5.793,5.793,0,0,0,.062-6.33Zm13.833-13.693-3.1,3.085a5.757,5.757,0,0,0,6.142-.045Zm20.993,25.3-.168.07.834,2.633,1.627-1.471Z" fill="#f37521"/>
        <path id="Path_3271" data-name="Path 3271" d="M1238.742,2652.368c-.239,1.517-.592,1.817-2.07,1.818h-3.4c0,.409.015.778,0,1.144a1.371,1.371,0,0,1-1.466,1.487q-4.2.036-8.41,0a1.359,1.359,0,0,1-1.436-1.514q-.014-8.873,0-17.745c0-1.046.6-1.546,1.784-1.548,3.967,0,7.935-.018,11.9.015a1.625,1.625,0,0,0,1.47-.715,10.772,10.772,0,0,1,7.023-4.488,11.141,11.141,0,0,1,10.007,3.514,2.918,2.918,0,0,0,1.083.732c3.158,1.1,6.322,2.179,9.5,3.218a7.068,7.068,0,0,1,4.833,4.247c1.638-.446,3.256-.882,4.871-1.329q2.811-.777,5.619-1.573a7.171,7.171,0,0,1,3.59-.175,5.561,5.561,0,0,1,3.083,8.9,7.48,7.48,0,0,1-3.373,2.415q-11.15,4-22.3,8.006a11.355,11.355,0,0,1-9.006-.408c-3.143-1.5-6.21-3.169-9.29-4.8A9.312,9.312,0,0,0,1238.742,2652.368Zm-.07-2.87a14.071,14.071,0,0,1,6.31,2.02c2.654,1.471,5.364,2.845,8.082,4.2a8.626,8.626,0,0,0,5.688.739,18.936,18.936,0,0,0,2.5-.816q10.551-3.771,21.1-7.55a4.441,4.441,0,0,0,2.257-1.659,2.689,2.689,0,0,0-1.859-4.225,4.692,4.692,0,0,0-1.755.139q-5.392,1.453-10.762,2.993a1.113,1.113,0,0,0-.642.61,5.634,5.634,0,0,1-7.256,3.626c-2.262-.71-4.52-1.435-6.781-2.151-1.877-.595-3.757-1.176-5.63-1.783a1.393,1.393,0,0,1-1.067-1.493,1.33,1.33,0,0,1,1.141-1.273,2.557,2.557,0,0,1,1.039.136c2.107.652,4.207,1.324,6.309,1.992,1.989.631,3.973,1.28,5.968,1.893a2.767,2.767,0,0,0,3.274-1.208,2.656,2.656,0,0,0-.517-3.436,6.2,6.2,0,0,0-2.011-1.148c-3.466-1.223-6.96-2.365-10.428-3.582a3.222,3.222,0,0,1-1.289-.914,8.2,8.2,0,0,0-8.107-2.9c-2.419.447-4.09,2.113-5.413,4.111a1.58,1.58,0,0,0-.142.818c-.01,2.47-.006,4.941-.006,7.411Zm-8.307,4.458V2638.9h-5.512v15.054Zm2.979-15.065v12.4h2.425v-12.4Z" fill="#f37521"/>
        <path id="Path_3272" data-name="Path 3272" d="M1273.153,2605.586a1.384,1.384,0,0,1-1.454,1.34,1.407,1.407,0,1,1,.13-2.809A1.385,1.385,0,0,1,1273.153,2605.586Z" fill="#f37521"/>
        <path id="Path_3273" data-name="Path 3273" d="M1245.128,2644.063a1.43,1.43,0,0,1-1.376-1.44,1.391,1.391,0,0,1,1.473-1.4,1.433,1.433,0,0,1,1.358,1.459A1.47,1.47,0,0,1,1245.128,2644.063Z" fill="#f37521"/>
      </g>
    </g>
  </g>
</svg>
