<svg xmlns="http://www.w3.org/2000/svg" width="18.141" height="9.772" viewBox="0 0 18.141 9.772">
  <g id="Group_403" data-name="Group 403" transform="translate(-5361.844 -314.513)" opacity="0.8">
    <g id="Group_402" data-name="Group 402">
      <path id="Path_464" data-name="Path 464" d="M5361.844,315.359a3.728,3.728,0,0,0,.366.509q4.052,4.065,8.112,8.121a.722.722,0,0,0,.806.251,1.13,1.13,0,0,0,.371-.261q2.867-2.857,5.726-5.722,1.233-1.234,2.465-2.47a1.131,1.131,0,0,0,.245-.34.67.67,0,0,0-.245-.8.679.679,0,0,0-.838.023,2.248,2.248,0,0,0-.18.17l-7.6,7.6a1.212,1.212,0,0,0-.122.173h-.074a1.212,1.212,0,0,0-.122-.173q-3.819-3.822-7.638-7.643a.746.746,0,0,0-.764-.248.757.757,0,0,0-.5.524Z"/>
    </g>
  </g>
</svg>
