<svg xmlns="http://www.w3.org/2000/svg" width="258.566" height="85.954" viewBox="0 0 258.566 85.954">
  <g id="Group_3321" data-name="Group 3321" transform="translate(-269.669 -51.704)">
    <g id="Group_3320" data-name="Group 3320">
      <path id="Path_3206" data-name="Path 3206" d="M271.445,106.27c4.954-1.757,14.241-5.824,14.9-6.512-.091-1.87-.467-3.719-.391-5.594a26.547,26.547,0,0,1,20.153-25.4c4.363-1.319,9.019-.943,13.416,0a27.494,27.494,0,0,1,14.41,9.353A36.492,36.492,0,0,1,338.38,86.4a9.517,9.517,0,0,1,.839,2.966c-11.509,4.944-23.283,9.721-34.8,14.634a16.177,16.177,0,0,0-3.28,1.755,16.088,16.088,0,0,0,14.5,4.775c2.806-.5,5.325-1.909,7.955-2.933,9.164-3.8,18.237-7.8,27.387-11.624a42.467,42.467,0,0,0,4.735-1.874,41.6,41.6,0,0,1-.315,5.811,44.675,44.675,0,0,1-1.327,6.553c-10.613,4.156-20.511,9.175-31.055,13.515-3.933,1.4-5.4,2.678-12.954,1.642S296.97,116.2,290.54,110.094c-2.967.965-10.211,3.983-14.8,5.93L273.4,111.53l-1.953-5.26Zm36.794-27.042a17.69,17.69,0,0,0-7.831,5.1,16,16,0,0,0-3.723,11.144,23.186,23.186,0,0,0,4.359-1.6c7.6-3.283,15.273-6.422,22.877-9.706a.619.619,0,0,0,.223-1.042A16.57,16.57,0,0,0,308.239,79.228Z" fill="#2e3644" fill-rule="evenodd"/>
      <path id="Path_3207" data-name="Path 3207" d="M323.008,119.978c-3.932,1.4-5.4,2.677-12.952,1.642S296.969,116.2,290.539,110.1c-3.629,1.179-11.033,4.441-14.764,6.046l.7,1.341a32.114,32.114,0,0,0,2.416,3.53,42.931,42.931,0,0,0,29.662,16.3,42.417,42.417,0,0,0,27.725-6.731,61.644,61.644,0,0,0,6.776-5.406c5.687-5.885,7.31-7.572,11.141-18.763-10.662,4.166-20.6,9.209-31.187,13.567ZM308.239,79.229a17.684,17.684,0,0,0-7.832,5.1,16,16,0,0,0-3.722,11.143,23.208,23.208,0,0,0,4.359-1.6c7.6-3.283,15.272-6.423,22.877-9.706a.618.618,0,0,0,.222-1.042,16.567,16.567,0,0,0-15.9-3.9Zm-13.2-23.583c15.241-7.206,34.657-4,46.917,7.508,3.507,3.564,6.887,7.372,9.042,11.924,2.212,4.046,4.081,9.34,4.865,18.928a36.55,36.55,0,0,1-4.89,1.967c-9.15,3.826-18.223,7.828-27.387,11.624-2.63,1.024-5.149,2.433-7.954,2.933a16.09,16.09,0,0,1-14.5-4.775A16.215,16.215,0,0,1,304.413,104c11.522-4.913,23.11-9.693,34.62-14.637.032-1.028.073-1.019-.654-2.963a36.413,36.413,0,0,0-4.446-8.282,27.489,27.489,0,0,0-14.409-9.352c-4.4-.944-9.053-1.319-13.416,0a26.547,26.547,0,0,0-20.153,25.4c-.076,1.875.3,3.724.391,5.594-.821.854-14.037,6.738-14.934,6.31-3.776-12.489-.882-26.6,6.843-37.028A43.386,43.386,0,0,1,295.037,55.646Z" fill="#f37521" stroke="#f37521" stroke-width="0.154" fill-rule="evenodd"/>
    </g>
    <path id="Path_3208" data-name="Path 3208" d="M472.188,104.1a2.21,2.21,0,0,1,.7-1.641,2.854,2.854,0,0,1,3.7,0,2.3,2.3,0,0,1,0,3.331,2.9,2.9,0,0,1-3.7,0,2.232,2.232,0,0,1-.7-1.69ZM390.719,83.215v3.446h-11.6v6.331h10.407v3.48H379.119V102.7h11.6v3.446H375.44V83.215Zm2.851,11.434a13.383,13.383,0,0,1,.828-4.773,10.605,10.605,0,0,1,2.37-3.745,10.772,10.772,0,0,1,3.779-2.436,13.747,13.747,0,0,1,5.054-.878h.034a15.5,15.5,0,0,1,4.424.613,9.951,9.951,0,0,1,3.7,2.006l-2.022,2.783a7.861,7.861,0,0,0-2.751-1.474,11.274,11.274,0,0,0-3.347-.481H405.6a9.229,9.229,0,0,0-3.48.629,7.393,7.393,0,0,0-4.292,4.392,9.472,9.472,0,0,0-.58,3.364v.033a9.465,9.465,0,0,0,.58,3.364,8.049,8.049,0,0,0,1.624,2.669,7.3,7.3,0,0,0,2.519,1.757,8.316,8.316,0,0,0,3.3.63h.033a7.86,7.86,0,0,0,4.11-.978,3.689,3.689,0,0,0,1.889-2.635V97.466H406V94.451h8.385v11.7h-2.32l-.165-2.75a5.832,5.832,0,0,1-2.685,2.352,10.121,10.121,0,0,1-4.21.8h-.033a12.172,12.172,0,0,1-4.723-.877,10.3,10.3,0,0,1-5.882-6.182,13.956,13.956,0,0,1-.8-4.807v-.033Zm32.846-11.434h3.977l9.679,22.935h-3.911l-2.188-5.369H422.836l-2.187,5.369h-3.911l9.678-22.935ZM432.747,97.5,428.4,87.059,424.063,97.5Zm24.924-8.187a6.5,6.5,0,0,0-2.469-2.369,7.928,7.928,0,0,0-3.795-.813h-.033a7.333,7.333,0,0,0-3.746.8,2.448,2.448,0,0,0-1.326,2.188,2.575,2.575,0,0,0,.713,1.757,5.5,5.5,0,0,0,2.768,1.293l4.938,1.16a8.088,8.088,0,0,1,2.685,1.061,5.937,5.937,0,0,1,1.674,1.59,5.735,5.735,0,0,1,.861,1.957,9.38,9.38,0,0,1,.249,2.154,5.653,5.653,0,0,1-.63,2.683,5.987,5.987,0,0,1-1.773,2.039,8.354,8.354,0,0,1-2.767,1.293,13.611,13.611,0,0,1-3.613.447h-.033a12.723,12.723,0,0,1-6.082-1.326,8.1,8.1,0,0,1-3.63-3.844l3.05-2.188a6.673,6.673,0,0,0,2.718,3.133,8.1,8.1,0,0,0,4.01.944h.033a6.389,6.389,0,0,0,3.712-.895,2.786,2.786,0,0,0,1.259-2.386A3.08,3.08,0,0,0,455.7,97.9a4.913,4.913,0,0,0-2.536-1.326l-5.4-1.359a6.721,6.721,0,0,1-4.026-2.321,6.058,6.058,0,0,1-1.177-3.645,5.583,5.583,0,0,1,2.42-4.773,8.23,8.23,0,0,1,2.817-1.242,15.285,15.285,0,0,1,3.712-.415h.033a11.584,11.584,0,0,1,5.055,1.011,8.052,8.052,0,0,1,3.3,2.8l-2.221,2.684ZM464,106.15V83.215h3.679V106.15Zm29.7-22.935h2.353V106.15H493.8l-9.977-18.229V106.15h-2.387V83.215h2.287l9.977,18.263V83.215Zm18.892,0v2.353h-9.545v7.988h8.518V95.91h-8.518V103.8h9.545v2.353H500.559V83.215Zm15.644,0V85.6h-5.668V106.15h-2.453V85.6h-5.7V83.215Z" fill="#2e3644" fill-rule="evenodd"/>
  </g>
</svg>
