<svg xmlns="http://www.w3.org/2000/svg" xmlns:xlink="http://www.w3.org/1999/xlink" width="85" height="85" viewBox="0 0 85 85">
  <defs>
    <filter id="Ellipse_218" x="0" y="0" width="85" height="85" filterUnits="userSpaceOnUse">
      <feOffset dy="1" input="SourceAlpha"/>
      <feGaussianBlur stdDeviation="2.5" result="blur"/>
      <feFlood flood-opacity="0.161"/>
      <feComposite operator="in" in2="blur"/>
      <feComposite in="SourceGraphic"/>
    </filter>
    <clipPath id="clip-path">
      <rect id="Rectangle_10579" data-name="Rectangle 10579" width="39.148" height="35.477" fill="none"/>
    </clipPath>
  </defs>
  <g id="Group_11842" data-name="Group 11842" transform="translate(-1615.157 -300.325)">
    <g transform="matrix(1, 0, 0, 1, 1615.16, 300.33)" filter="url(#Ellipse_218)">
      <circle id="Ellipse_218-2" data-name="Ellipse 218" cx="35" cy="35" r="35" transform="translate(7.5 6.5)" fill="#fff"/>
    </g>
    <g id="Group_11833" data-name="Group 11833" transform="translate(1638.083 324.087)" opacity="0.75">
      <g id="Group_11832" data-name="Group 11832" clip-path="url(#clip-path)">
        <path id="Path_19610" data-name="Path 19610" d="M0,10.67c.143-.761.23-1.537.438-2.28A10.963,10.963,0,0,1,6.062,1.382a11.1,11.1,0,0,1,10.364-.193,10.569,10.569,0,0,1,2.7,1.848l.438.406c.346-.3.669-.6,1.014-.877a11.369,11.369,0,0,1,15.957,1.62A11.181,11.181,0,0,1,39.1,12.51a17.287,17.287,0,0,1-2.8,7.754,35.908,35.908,0,0,1-5.877,6.965A72.318,72.318,0,0,1,19.84,35.378a.393.393,0,0,1-.505.013A68.106,68.106,0,0,1,7.146,25.654a28.9,28.9,0,0,1-5.663-7.922A15.322,15.322,0,0,1,.067,12.644,2.1,2.1,0,0,0,0,12.352V10.67M19.531,7.264c-.25-.332-.518-.685-.783-1.04a8.842,8.842,0,0,0-3.415-2.875,8.726,8.726,0,0,0-8.78.554,8.645,8.645,0,0,0-4.1,7.052,11.9,11.9,0,0,0,1.263,5.837,26.841,26.841,0,0,0,5.131,7.136A61.457,61.457,0,0,0,19.378,32.5a.463.463,0,0,0,.421-.012c1.9-1.373,3.833-2.7,5.668-4.159a39.055,39.055,0,0,0,8.613-9.093A15.607,15.607,0,0,0,36.6,13.1a8.892,8.892,0,0,0-1.064-6.121,8.728,8.728,0,0,0-7.477-4.509,8.392,8.392,0,0,0-6.291,2.281c-.806.749-1.476,1.645-2.237,2.509" transform="translate(0 0)"/>
      </g>
    </g>
  </g>
</svg>
