<svg xmlns="http://www.w3.org/2000/svg" xmlns:xlink="http://www.w3.org/1999/xlink" width="65.594" height="65.594" viewBox="0 0 65.594 65.594">
  <defs>
    <filter id="Rectangle_1896" x="0" y="0" width="65.594" height="65.594" filterUnits="userSpaceOnUse">
      <feOffset input="SourceAlpha"/>
      <feGaussianBlur stdDeviation="5" result="blur"/>
      <feFlood flood-opacity="0.059"/>
      <feComposite operator="in" in2="blur"/>
      <feComposite in="SourceGraphic"/>
    </filter>
  </defs>
  <g id="Group_3413" data-name="Group 3413" transform="translate(-584.34 -1906.308)">
    <g transform="matrix(1, 0, 0, 1, 584.34, 1906.31)" filter="url(#Rectangle_1896)">
      <rect id="Rectangle_1896-2" data-name="Rectangle 1896" width="35.594" height="35.594" rx="17.797" transform="translate(15 15)" fill="#fff"/>
    </g>
    <g id="Group_3412" data-name="Group 3412">
      <g id="Group_3411" data-name="Group 3411">
        <path id="Path_3298" data-name="Path 3298" d="M612.308,1929.513a.188.188,0,0,1-.252,0Z" fill="#f17522"/>
        <path id="Path_3299" data-name="Path 3299" d="M622.244,1929.513a.189.189,0,0,1-.253,0Z" fill="#f17522"/>
        <path id="Path_3300" data-name="Path 3300" d="M627.927,1936.375a.189.189,0,0,1,0-.252Z" fill="#f17522"/>
        <path id="Path_3301" data-name="Path 3301" d="M627.927,1935.618c-.051-.032-.042-.081-.037-.129.013-.017.026-.016.037,0Z" fill="#f17522"/>
        <path id="Path_3302" data-name="Path 3302" d="M627.927,1935.491l-.037,0c0-.034-.005-.068.037-.082Z" fill="#f17522"/>
        <path id="Path_3303" data-name="Path 3303" d="M627.927,1935.407v-.126c-.054-.245-.034-.5-.086-.745a6.466,6.466,0,0,0-1.833-3.426,6.034,6.034,0,0,0-1.985-1.268,5.189,5.189,0,0,0-1.484-.329h-.295a.318.318,0,0,1-.253,0h-.716c-.2.055-.4.035-.6.081a5.932,5.932,0,0,0-3.317,2.159c-.214.265-.211.265-.423,0a6.04,6.04,0,0,0-2.85-2.032,5.224,5.224,0,0,0-1.106-.208h-.674a.315.315,0,0,1-.252,0h-.3c-.024.064-.082.039-.127.046a5.594,5.594,0,0,0-4.158,2.631,6.884,6.884,0,0,0-.243,7.16,14.041,14.041,0,0,0,3.032,3.74c1.926,1.823,3.995,3.483,5.988,5.229a1.262,1.262,0,0,0,1.818-.017c1.5-1.29,3-2.573,4.494-3.872a27.5,27.5,0,0,0,3.28-3.258,8.862,8.862,0,0,0,1.937-3.753,3.148,3.148,0,0,1,.145-.707v-.337a.324.324,0,0,1,0-.252v-.505c-.034-.035-.017-.078-.022-.118S627.9,1935.433,627.927,1935.407Zm-2,3.4a11.807,11.807,0,0,1-2.255,2.867c-1.537,1.532-3.22,2.9-4.861,4.317-.51.44-1.022.877-1.53,1.32-.089.078-.147.109-.258.012-1.947-1.717-3.976-3.34-5.863-5.125a14.791,14.791,0,0,1-2.624-3.082,6.3,6.3,0,0,1-.9-3.5,5.17,5.17,0,0,1,1.595-3.595,4.432,4.432,0,0,1,6.311.138,7.02,7.02,0,0,1,.874,1.128.8.8,0,0,0,1.466,0,5.238,5.238,0,0,1,2.364-2.171,4.472,4.472,0,0,1,5.526,1.771A5.666,5.666,0,0,1,625.93,1938.809Z" fill="#f17522"/>
      </g>
    </g>
  </g>
</svg>
