<svg xmlns="http://www.w3.org/2000/svg" width="48.681" height="48.728" viewBox="0 0 48.681 48.728">
  <g id="Group_2608" data-name="Group 2608" transform="translate(-14190.968 -1807.546)" opacity="0.8">
    <path id="Path_2537" data-name="Path 2537" d="M14191.418,1856.274c-.561-.517-.6-.807-.091-1.4q3.669-4.213,7.365-8.4c3.177-3.6,6.387-7.172,9.543-10.79a15.026,15.026,0,0,0,3.121-5.282,3.53,3.53,0,0,0-1.177-4.222c-1.435-1.087-2.979-2.03-4.478-3.032-1.276-.853-2.625-1.613-3.817-2.569a7.2,7.2,0,0,1-2.937-6.288,8.186,8.186,0,0,1,3.31-5.916,3.466,3.466,0,0,1,2.381-.83c4.405.05,8.813.022,13.219.022.127,0,.253,0,.38,0a.7.7,0,0,1,.74.482.71.71,0,0,1-.283.838q-1.513,1.191-3.02,2.389c-.295.235-.571.493-.937.812.383.168.685.322,1,.435,3.561,1.271,7.134,2.505,10.681,3.811a27.573,27.573,0,0,1,5.662,2.876,16.008,16.008,0,0,1,7.077,10.714c.21,1.069.276,2.165.412,3.248.022.185.052.37.078.555v1.522c-.026.2-.051.405-.077.607-.248,1.85-.379,3.725-.767,5.546-1,4.725-2.422,9.343-3.878,13.946a5.27,5.27,0,0,1-.511.925Zm24.675-47.186-.043-.121c-.405.032-.917-.082-1.2.122a20.7,20.7,0,0,0-2.675,2.267,1.347,1.347,0,0,0,.267,2.321,10.877,10.877,0,0,0,2.366,1.289c2.389.884,4.807,1.686,7.22,2.5a33.314,33.314,0,0,1,7.861,3.53,13.565,13.565,0,0,1,6.348,10.562,24.771,24.771,0,0,1-.491,6.849c-.109.579-.419.845-.885.755-.43-.084-.615-.447-.525-1.006.142-.875.3-1.748.41-2.628a15.925,15.925,0,0,0-.383-6.362,12.637,12.637,0,0,0-6.477-7.718,50.609,50.609,0,0,0-8.148-3.239q-3.366-1.151-6.673-2.468a6.491,6.491,0,0,1-1.887-1.25,2.613,2.613,0,0,1-.379-3.68,13.8,13.8,0,0,1,1.423-1.522,1.159,1.159,0,0,1,.318-.162l-.116-.135q-2.232,0-4.467,0a.647.647,0,0,0-.313.076,13.158,13.158,0,0,0-3.655,2.925,3.472,3.472,0,0,0,.171,5.038c.247.268.533.5.779.766a.658.658,0,0,1,.016.945.617.617,0,0,1-.9.126,5.908,5.908,0,0,1-2.463-3.967,5.3,5.3,0,0,1,1.793-4.375c.511-.526,1.082-.994,1.721-1.574-.525.042-1.03-.065-1.343.133a6.664,6.664,0,0,0-3.4,5.358,5.762,5.762,0,0,0,2.373,5,40.716,40.716,0,0,0,3.379,2.286c1.407.913,2.865,1.752,4.237,2.715a5.776,5.776,0,0,1,2.543,3.438,6.513,6.513,0,0,1-.6,4.064,21.479,21.479,0,0,1-3.9,5.76q-6.86,7.74-13.74,15.463c-.468.527-.925,1.064-1.454,1.675a14.391,14.391,0,0,1,1.894.015,2.174,2.174,0,0,0,2.155-1.03c4.147-5.043,8.364-10.03,12.543-15.046a24.341,24.341,0,0,0,4.29-6.912,7.053,7.053,0,0,0,.248-4.879,7.867,7.867,0,0,0-3.712-4.286c-1.157-.685-2.363-1.286-3.548-1.924-.5-.27-.667-.633-.466-1.031s.6-.5,1.1-.245c.86.44,1.722.877,2.569,1.34a12.609,12.609,0,0,1,3.926,3.032,8.117,8.117,0,0,1,1.235,8.45,25.425,25.425,0,0,1-4.513,7.33q-6.1,7.321-12.237,14.621c-.137.162-.264.332-.418.529a1.794,1.794,0,0,0,.209.034q7.157,0,14.314-.009a.746.746,0,0,0,.449-.248c.352-.366.838-.421,1.1-.028a.674.674,0,0,0,.677.289q6.992,0,13.982,0h.508a2.627,2.627,0,0,0,.106-.25c1.06-3.415,2.125-6.829,3.173-10.248.278-.907.494-1.833.752-2.747a.694.694,0,0,1,.875-.581.706.706,0,0,1,.5.929c-.02.092-.039.186-.066.277q-1.525,5.142-3.055,10.283c-.229.768-.489,1.527-.75,2.337.762,0,1.459-.019,2.154.008a.445.445,0,0,0,.527-.385c1.158-4.128,2.4-8.235,3.469-12.386a26.625,26.625,0,0,0,.643-11.492,14.756,14.756,0,0,0-6.369-10.067,28.89,28.89,0,0,0-6.27-3.14c-3.312-1.215-6.654-2.348-9.978-3.535a5.179,5.179,0,0,1-1.3-.667,1.307,1.307,0,0,1-.328-1.962,8.188,8.188,0,0,1,1.311-1.29C14215.274,1809.617,14215.7,1809.367,14216.093,1809.088Z"/>
    <path id="Path_2538" data-name="Path 2538" d="M14209.158,1811.2c-.13.237-.216.418-.324.585-.252.394-.55.763-.765,1.176-.247.477-.554.681-.958.529a.685.685,0,0,1-.364-1.05,9.8,9.8,0,0,1,1.164-1.693.887.887,0,0,1,.767-.095C14208.87,1810.713,14208.991,1811,14209.158,1811.2Z"/>
    <path id="Path_2539" data-name="Path 2539" d="M14226.611,1830.9a6.148,6.148,0,0,1,0,.615.7.7,0,0,1-.73.663.685.685,0,0,1-.681-.664c-.055-.628-.091-1.258-.123-1.888a.649.649,0,0,1,.581-.741.633.633,0,0,1,.785.514c.1.491.148,1,.22,1.495Z"/>
    <path id="Path_2540" data-name="Path 2540" d="M14225.015,1826.2c-.116.149-.236.439-.441.523a.83.83,0,0,1-.735-.079,11.736,11.736,0,0,1-1.405-1.653.828.828,0,0,1,.117-.788c.159-.161.662-.251.781-.134.579.569,1.082,1.216,1.605,1.839C14224.974,1825.955,14224.971,1826.032,14225.015,1826.2Z"/>
    <path id="Path_2541" data-name="Path 2541" d="M14217.571,1850.043a4.147,4.147,0,0,1-.2.517c-.295.5-.592,1.008-.905,1.5a.706.706,0,0,1-1.009.31.7.7,0,0,1-.213-1.03q.46-.8.957-1.581a.608.608,0,0,1,.816-.281A2.436,2.436,0,0,1,14217.571,1850.043Z"/>
    <path id="Path_2542" data-name="Path 2542" d="M14220.579,1822.454c.009.632-.521,1-1,.76a17.906,17.906,0,0,1-1.757-1.025.7.7,0,0,1,.7-1.2c.6.319,1.187.662,1.754,1.032C14220.437,1822.124,14220.516,1822.36,14220.579,1822.454Z"/>
    <path id="Path_2543" data-name="Path 2543" d="M14208.168,1815.474c.777.545,1.519,1.032,2.208,1.585.1.08.028.562-.116.708a.83.83,0,0,1-.742.2,10.944,10.944,0,0,1-1.827-1.159.915.915,0,0,1-.149-.8C14207.6,1815.813,14207.906,1815.685,14208.168,1815.474Z"/>
    <path id="Path_2544" data-name="Path 2544" d="M14220.485,1845.126a5.177,5.177,0,0,1-.207.511c-.289.508-.577,1.016-.885,1.514a.726.726,0,0,1-1.009.316.71.71,0,0,1-.214-1.033c.3-.537.608-1.071.937-1.592a.6.6,0,0,1,.813-.277A2.671,2.671,0,0,1,14220.485,1845.126Z"/>
    <path id="Path_2545" data-name="Path 2545" d="M14225.885,1835.064c-.131.356-.208.6-.306.827-.192.45-.375.905-.6,1.338a.661.661,0,0,1-.88.345.673.673,0,0,1-.412-.889c.244-.632.52-1.253.813-1.864a.592.592,0,0,1,.8-.306C14225.542,1834.623,14225.707,1834.888,14225.885,1835.064Z"/>
    <path id="Path_2546" data-name="Path 2546" d="M14215.575,1819.723c0,.595-.461.974-.911.784a16.611,16.611,0,0,1-1.895-.966.691.691,0,0,1,.609-1.224,21.47,21.47,0,0,1,1.93,1C14215.46,1819.4,14215.525,1819.642,14215.575,1819.723Z"/>
    <path id="Path_2547" data-name="Path 2547" d="M14221.692,1842.6c-.651-.014-.98-.525-.734-1.017.3-.591.632-1.165.986-1.724a.634.634,0,0,1,.908-.23.641.641,0,0,1,.312.889,18.059,18.059,0,0,1-1.034,1.8C14222.028,1842.485,14221.78,1842.551,14221.692,1842.6Z"/>
  </g>
</svg>
