<svg xmlns="http://www.w3.org/2000/svg" width="28.006" height="26.603" viewBox="0 0 28.006 26.603">
  <g id="Group_11676" data-name="Group 11676" transform="translate(-8525.481 -235.685)" opacity="0.5">
    <path id="Path_4735" data-name="Path 4735" d="M8553.487,248.825a4.265,4.265,0,0,1-.269.561,1.437,1.437,0,0,1-1.3.621h-1.881v11.255c0,.737-.286,1.026-1.021,1.026h-6.5c-.716,0-1-.294-1-1.014v-6.743h-4.046V261.3c0,.7-.3.993-1,.993h-6.533c-.7,0-1-.3-1-.992V250h-1.242c-.291,0-.584.007-.874-.016a1.342,1.342,0,0,1-1.23-.931,1.325,1.325,0,0,1,.339-1.506c.677-.648,1.38-1.271,2.073-1.9l10.388-9.468a1.465,1.465,0,0,1,2.066-.134,1.559,1.559,0,0,1,.134.134l2.723,2.483v-.446a.8.8,0,0,1,.771-.829h.059q2.83-.009,5.657,0a.8.8,0,0,1,.849.748.673.673,0,0,1,0,.147v6.778a.582.582,0,0,0,.223.488c.667.593,1.316,1.206,1.985,1.8a2.229,2.229,0,0,1,.639.931Zm-5.088,11.808V249.319a.844.844,0,0,1,.95-.963c.6-.006,1.2,0,1.8,0,.087,0,.174-.008.26-.012l.05-.074a1.477,1.477,0,0,1-.2-.131c-.621-.562-1.233-1.134-1.861-1.689a1.119,1.119,0,0,1-.4-.91c.009-2.058,0-4.117,0-6.176v-.316h-4.04c0,.45-.008.885,0,1.32a.858.858,0,0,1-.484.9.872.872,0,0,1-1.017-.241q-1.8-1.653-3.615-3.3c-.113-.1-.227-.205-.355-.321L8527.5,248.337c.153.008.239.016.325.017h1.722c.751,0,1.036.289,1.036,1.045v11.228h5.242v-6.758c0-.7.292-1,.986-1h5.358c.7,0,.989.3.99,1v6.764Z"/>
  </g>
</svg>
