<svg xmlns="http://www.w3.org/2000/svg" width="28.456" height="31.013" viewBox="0 0 28.456 31.013">
  <g id="Group_11666" data-name="Group 11666" transform="translate(-12571.818 -1638.818)" opacity="0.8">
    <path id="Path_3628" data-name="Path 3628" d="M12577.506,1669.831a.778.778,0,0,1-.506-.835c.019-.572,0-1.145,0-1.754-.611,0-1.184.021-1.754-.007a4.735,4.735,0,0,1-1.219-.172,3.153,3.153,0,0,1-2.2-3.056q-.026-5.8,0-11.6a3.179,3.179,0,0,1,3.109-3.247c.057,0,.112,0,.17,0q10.934-.015,21.866,0a3.179,3.179,0,0,1,3.279,3.076c0,.056,0,.113,0,.17q.034,5.786,0,11.569a3.2,3.2,0,0,1-3.133,3.266c-.056,0-.112,0-.167,0-.613.007-1.226,0-1.876,0,0,.61-.014,1.183,0,1.754a.777.777,0,0,1-.5.835h-.3a.834.834,0,0,1-.49-.881c.018-.56,0-1.121,0-1.685h-15.509c0,.577-.015,1.132,0,1.685a.836.836,0,0,1-.489.881Zm8.572-19.386h-10.813a1.954,1.954,0,0,0-2.135,1.753,2,2,0,0,0,0,.367v11.268a2.563,2.563,0,0,0,.058.629,1.936,1.936,0,0,0,2.046,1.491h21.627a1.948,1.948,0,0,0,2.1-1.781,2.068,2.068,0,0,0,0-.339v-11.268a2.624,2.624,0,0,0-.059-.63,1.93,1.93,0,0,0-2.016-1.49Z"/>
    <path id="Path_3629" data-name="Path 3629" d="M12591.3,1647.912a.7.7,0,0,1-.646-.919,1.927,1.927,0,0,1,.178-.35,2.307,2.307,0,0,0,.116-2.308c-.28-.614-.583-1.221-.8-1.856a3.6,3.6,0,0,1,.557-3.357.629.629,0,0,1,.863-.214l.013.008a.635.635,0,0,1,.221.85c-.09.191-.209.368-.3.558a2.423,2.423,0,0,0,.012,2.159c.271.6.564,1.185.784,1.8a3.449,3.449,0,0,1-.511,3.27A1.868,1.868,0,0,1,12591.3,1647.912Z"/>
    <path id="Path_3630" data-name="Path 3630" d="M12582.243,1645.338a4.055,4.055,0,0,1-.77,2.244.625.625,0,0,1-.833.191.633.633,0,0,1-.269-.81,2.452,2.452,0,0,1,.182-.349,2.274,2.274,0,0,0,.112-2.252c-.274-.605-.57-1.2-.8-1.827a3.608,3.608,0,0,1,.521-3.388.636.636,0,0,1,.864-.249l.035.021a.65.65,0,0,1,.21.88,8.348,8.348,0,0,0-.465,1.012,2.32,2.32,0,0,0,.187,1.675c.26.579.539,1.15.764,1.743A8.654,8.654,0,0,1,12582.243,1645.338Z"/>
    <path id="Path_3631" data-name="Path 3631" d="M12586.735,1639.536a2.181,2.181,0,0,1-.17.4,2.616,2.616,0,0,0-.115,2.753,11.508,11.508,0,0,1,.819,2.1,3.325,3.325,0,0,1-.65,2.8.624.624,0,0,1-.835.184.639.639,0,0,1-.262-.814,2.313,2.313,0,0,1,.169-.32,2.3,2.3,0,0,0,.108-2.309c-.28-.613-.583-1.221-.8-1.856a3.61,3.61,0,0,1,.565-3.355.606.606,0,0,1,.74-.254A.652.652,0,0,1,12586.735,1639.536Z"/>
    <path id="Path_3632" data-name="Path 3632" d="M12575.705,1658.167v-5.509c0-.6.22-.91.645-.914s.657.312.657.9v11.109c0,.59-.233.906-.661.9s-.64-.315-.641-.888Q12575.7,1660.966,12575.705,1658.167Z"/>
    <path id="Path_3633" data-name="Path 3633" d="M12579.582,1658.2v-5.629c0-.478.171-.732.521-.8a.606.606,0,0,1,.732.445l0,.012a1.832,1.832,0,0,1,.042.419v11.108c0,.592-.229.907-.656.9s-.645-.315-.645-.914Z"/>
    <path id="Path_3634" data-name="Path 3634" d="M12583.458,1658.184v-5.539c0-.592.232-.908.657-.9s.644.315.644.886V1663.8c0,.471-.15.734-.464.823a.615.615,0,0,1-.778-.391.515.515,0,0,1-.021-.087,2.017,2.017,0,0,1-.035-.42Q12583.457,1660.955,12583.458,1658.184Z"/>
    <path id="Path_3635" data-name="Path 3635" d="M12588.636,1658.232v5.509a2.035,2.035,0,0,1-.044.449.62.62,0,0,1-.6.463.627.627,0,0,1-.608-.454,1.777,1.777,0,0,1-.046-.419v-11.17c0-.509.158-.765.512-.843a.606.606,0,0,1,.74.432c0,.014.007.029.01.043a2.026,2.026,0,0,1,.038.42Q12588.639,1655.448,12588.636,1658.232Z"/>
    <path id="Path_3636" data-name="Path 3636" d="M12591.213,1658.167v-5.509c0-.6.22-.91.646-.915s.655.311.655.9v11.109c0,.591-.232.906-.66.9s-.641-.315-.641-.887Z"/>
    <path id="Path_3637" data-name="Path 3637" d="M12596.392,1658.234v5.509c0,.6-.221.908-.646.913s-.655-.31-.655-.9v-11.109c0-.588.237-.907.662-.9s.639.317.639.89Q12596.392,1655.433,12596.392,1658.234Z"/>
  </g>
</svg>
