<svg xmlns="http://www.w3.org/2000/svg" xmlns:xlink="http://www.w3.org/1999/xlink" width="102.142" height="102.142" viewBox="0 0 102.142 102.142">
  <defs>
    <filter id="Ellipse_212" x="0" y="0" width="102.142" height="102.142" filterUnits="userSpaceOnUse">
      <feOffset dy="10" input="SourceAlpha"/>
      <feGaussianBlur stdDeviation="5" result="blur"/>
      <feFlood flood-opacity="0.059"/>
      <feComposite operator="in" in2="blur"/>
      <feComposite in="SourceGraphic"/>
    </filter>
  </defs>
  <g id="Group_11820" data-name="Group 11820" transform="translate(-3762.27 -53.745)">
    <g transform="matrix(1, 0, 0, 1, 3762.27, 53.75)" filter="url(#Ellipse_212)">
      <circle id="Ellipse_212-2" data-name="Ellipse 212" cx="36.071" cy="36.071" r="36.071" transform="translate(15 5)" fill="#fff"/>
    </g>
    <g id="Group_3290" data-name="Group 3290">
      <path id="Path_3159" data-name="Path 3159" d="M3828.822,123.774h-30.935a.519.519,0,0,1-.142-.359,20.455,20.455,0,0,1,.34-5.386,9.35,9.35,0,0,1,8.724-6.95c.748-.024.939-.462,1.128-1.006.332-.123.53.13.742.293,1.18.9,2.353,1.819,3.53,2.728,1.139.879,1.151.876,2.313-.015,1.24-.95,2.467-1.918,3.712-2.863.166-.126.329-.415.617-.176.239,1,.239,1,1.267,1.025a9.455,9.455,0,0,1,8.506,6.961,20.485,20.485,0,0,1,.341,5.389A.521.521,0,0,1,3828.822,123.774Z" fill="#fea964"/>
      <path id="Path_3160" data-name="Path 3160" d="M3817.758,65.858a26.3,26.3,0,0,1,2.689.672,8.907,8.907,0,0,1,2.064.988,1.246,1.246,0,0,1,.1,1.569,1.6,1.6,0,0,1-1.541.72c-3.227-.012-6.473-.367-9.673.271a12.307,12.307,0,0,0-9.533,10.761c-.074.847-.095,1.691-.1,2.538a2.391,2.391,0,0,1-.189,1.047,1.935,1.935,0,0,0-.365,1.269c.014,1.747.006,3.494,0,5.241a3,3,0,0,1-.06.84c-.675,1.66-1.757,3.1-2.523,4.715a11.653,11.653,0,0,0-1.161,5.012c0,.62.007,1.241,0,1.862a1.394,1.394,0,0,1-1.985,1.394,1.437,1.437,0,0,0-.209-.081,11.68,11.68,0,0,1-1.678-5.131,13.553,13.553,0,0,1,2.358-9.068,12.27,12.27,0,0,0,1.927-6.784c.006-1.885,0-3.769,0-5.654a12.536,12.536,0,0,1,10.048-11.968c.3-.053.635,0,.9-.213Z" fill="#4d4e59"/>
      <path id="Path_3161" data-name="Path 3161" d="M3808.055,110.082c-.014.012-.036.022-.041.038-.33,1.074-.333,1.02-1.536,1.11a8.931,8.931,0,0,0-5.429,2.305,9.139,9.139,0,0,0-2.976,5.238,9.533,9.533,0,0,0-.19,1.895c.016,1.035,0,2.071,0,3.106h-3.161a1.616,1.616,0,0,1-.579-1.431c.041-1.544-.02-3.091.021-4.636a9.09,9.09,0,0,1,4.664-7.928c.239-.146.5-.261.746-.391.248-.391.684-.442,1.067-.569a8.656,8.656,0,0,1,2.322-.427,11.378,11.378,0,0,0,2.6-.4,24.73,24.73,0,0,1,2.38,1.787A.262.262,0,0,1,3808.055,110.082Z" fill="#febc7b"/>
      <path id="Path_3162" data-name="Path 3162" d="M3828.822,123.774c0-1.074.032-2.149-.006-3.222a9.231,9.231,0,0,0-4.963-8.263,8.336,8.336,0,0,0-3.855-1.064c-1.084-.034-1.231-.155-1.221-1.241a.183.183,0,0,1,.074-.24,20.544,20.544,0,0,1,2.28-1.747,26.752,26.752,0,0,0,3.779.547,8.344,8.344,0,0,1,1.735.48.808.808,0,0,1,.485.361,9.29,9.29,0,0,1,5.234,6.592,8.02,8.02,0,0,1,.188,1.844c-.013,1.468-.03,2.937.008,4.4a1.751,1.751,0,0,1-.576,1.548Z" fill="#f9a057"/>
      <path id="Path_3163" data-name="Path 3163" d="M3805.672,108.076a8.2,8.2,0,0,1-3.019.519,9.571,9.571,0,0,0-3.074.794,16.253,16.253,0,0,1-3.83-3.892c-.168-.266-.313-.547-.469-.821.148-.216.312-.038.451,0a1.207,1.207,0,0,0,1.591-1.2,21.027,21.027,0,0,1,.275-4.479,17.821,17.821,0,0,1,2.519-5.429c.289-.469.442-.992.689-1.475.056-.108.093-.2.224-.214.257.253.19.6.236.9a12.052,12.052,0,0,0,7,9.412.785.785,0,0,1,.454.4,5.591,5.591,0,0,1-.074,1.963,5.432,5.432,0,0,1-2.254,3.262A.883.883,0,0,1,3805.672,108.076Z" fill="#42434d"/>
      <path id="Path_3164" data-name="Path 3164" d="M3827.13,109.385a9.952,9.952,0,0,0-4.073-.862,6.306,6.306,0,0,1-2.007-.447,1.394,1.394,0,0,1-1.038-.487,5.3,5.3,0,0,1-2.01-5.03,1.142,1.142,0,0,1,.609-.476,12.108,12.108,0,0,0,6.854-9.661,17.376,17.376,0,0,0,.04-2.371q.012-2.345,0-4.69c0-.743-.27-1.046-.981-1.125a4.56,4.56,0,0,1-4.05-3.207c-.426-1.2-.963-1.343-2-.671a25.629,25.629,0,0,1-10.779,3.911,27.9,27.9,0,0,1-3.768.191c-.809-.03-1.616-.082-2.422-.163a6.219,6.219,0,0,0,.109-1.9,12.74,12.74,0,0,1,1.45-6.067,12.319,12.319,0,0,1,8.775-6.5,13.108,13.108,0,0,1,2.677-.235c1.956.015,3.912.008,5.867,0,.34,0,.671.086,1,.1a1.325,1.325,0,0,0,1.235-1.73c-.044-.142-.07-.29-.1-.435a12.209,12.209,0,0,1,5.966,7.985,12.339,12.339,0,0,1,.336,3.024c0,1.6.024,3.2-.006,4.8a13.188,13.188,0,0,0,2.2,7.631A12.816,12.816,0,0,1,3833.125,99a12.991,12.991,0,0,1-4.644,9.274C3828.041,108.659,3827.581,109.016,3827.13,109.385Z" fill="#42434d"/>
      <path id="Path_3165" data-name="Path 3165" d="M3818.213,104.657a5.385,5.385,0,0,0,2.837,3.419,24.773,24.773,0,0,1-2.112,1.754c-.054.05-.107.1-.161.154l-4.628,3.555a1.039,1.039,0,0,1-1.595-.006q-2.249-1.726-4.5-3.451a21.941,21.941,0,0,0-1.827-1.476c-.2-.162-.455-.265-.556-.53a5.417,5.417,0,0,0,2.824-3.42c.243-.162.474-.03.7.047a12.284,12.284,0,0,0,8.323,0C3817.738,104.625,3817.969,104.494,3818.213,104.657Z" fill="#fedeb9"/>
      <path id="Path_3166" data-name="Path 3166" d="M3801.5,84.3a8.294,8.294,0,0,1,2.487.019,1.738,1.738,0,0,1,1.625,1.749,28.32,28.32,0,0,1,.1,3.271,11.678,11.678,0,0,0,2.782,7.577,14.615,14.615,0,0,0,2.628,2.374,2.018,2.018,0,0,1-.085,3.391,1.916,1.916,0,0,1-1.286.318,1.628,1.628,0,0,1-1.145-.482,12.358,12.358,0,0,1-6.92-7.348,11.652,11.652,0,0,1-.658-3.29c0-2.127.009-4.254-.008-6.38A1.4,1.4,0,0,1,3801.5,84.3Z" fill="#fef2e3"/>
      <path id="Path_3167" data-name="Path 3167" d="M3808.607,102.514a4.809,4.809,0,0,0,1.131.336,14.075,14.075,0,0,0,7.772-.3c.188-.069.381-.187.587-.04a13.783,13.783,0,0,0,.116,2.147,19.33,19.33,0,0,1-3.131.816,13.073,13.073,0,0,1-5.255-.387c-.447-.133-.888-.286-1.331-.43A12.768,12.768,0,0,0,3808.607,102.514Z" fill="#fed5a5"/>
      <path id="Path_3168" data-name="Path 3168" d="M3818.1,102.51a12.753,12.753,0,0,1-5.532.9,8.888,8.888,0,0,1-2.826-.557,1.875,1.875,0,0,0,1.982-1.258,1.765,1.765,0,0,0-.628-2.137,12.767,12.767,0,0,1-3.81-3.987,11.31,11.31,0,0,1-1.718-5.694,33.97,33.97,0,0,0-.115-3.884,1.824,1.824,0,0,0-1.463-1.574,26.076,26.076,0,0,0,10.6-2.065,26.435,26.435,0,0,0,4.02-2.151c.981-.637,1.53-.443,1.909.646a4.57,4.57,0,0,0,4.1,3.351c.76.076,1.057.423,1.059,1.19,0,1.96.051,3.921-.01,5.879a12.132,12.132,0,0,1-7.217,11.167C3818.331,102.391,3818.215,102.451,3818.1,102.51Z" fill="#feead1"/>
    </g>
  </g>
</svg>
