<svg xmlns="http://www.w3.org/2000/svg" xmlns:xlink="http://www.w3.org/1999/xlink" width="27" height="28.642" viewBox="0 0 27 28.642">
  <defs>
    <clipPath id="clip-path">
      <rect id="Rectangle_1502" data-name="Rectangle 1502" width="27" height="28.642" transform="translate(12572.82 1575.312)" fill="none"/>
    </clipPath>
  </defs>
  <g id="Group_11665" data-name="Group 11665" transform="translate(-12572.82 -1575.313)" opacity="0.8">
    <g id="Group_2682" data-name="Group 2682">
      <g id="Group_2681" data-name="Group 2681" clip-path="url(#clip-path)">
        <g id="Group_11664" data-name="Group 11664">
          <path id="Path_4721" data-name="Path 4721" d="M12573.453,1603.954a2.185,2.185,0,0,1-.512-.442.817.817,0,0,1,.286-1.119.826.826,0,0,1,.431-.114c.624-.013,1.248,0,1.874,0h.338v-25.927a.868.868,0,0,1,.294-.8,1.291,1.291,0,0,1,.664-.22c2.492-.02,4.976-.02,7.465-.02h11.41c.769,0,1.068.3,1.068,1.061v25.9h2.1a.861.861,0,0,1,.924.647.85.85,0,0,1-.57.993c-.015.008-.024.026-.038.039Zm8.332-1.689v-6.42a.848.848,0,0,1,.722-.959.887.887,0,0,1,.241,0h7.132a.856.856,0,0,1,.976.713.9.9,0,0,1,0,.261v6.4h4.215v-25.258h-17.5v25.259Zm1.7-.011h5.671v-5.682h-5.671Z"/>
          <path id="Path_4722" data-name="Path 4722" d="M12579.56,1581.916v-1.956a.861.861,0,0,1,.773-.939.93.93,0,0,1,.167,0h3.912a.865.865,0,0,1,.948.769.882.882,0,0,1,0,.19v3.883a.864.864,0,0,1-.765.954.854.854,0,0,1-.188,0h-3.884a.871.871,0,0,1-.963-.973v-1.927m1.7,1.2h2.4v-2.4h-2.4Z"/>
          <path id="Path_4723" data-name="Path 4723" d="M12593.082,1581.927v1.9a.872.872,0,0,1-.744.986.84.84,0,0,1-.229,0h-3.857a.867.867,0,0,1-.968-.755.847.847,0,0,1,0-.211v-3.856a.873.873,0,0,1,.759-.975.886.886,0,0,1,.229,0h3.828a.876.876,0,0,1,.982.751.906.906,0,0,1,0,.23v1.927m-4.106,1.194h2.406v-2.409h-2.406Z"/>
          <path id="Path_4724" data-name="Path 4724" d="M12582.431,1592.623h-1.872a.874.874,0,0,1-1-.726.906.906,0,0,1,0-.262v-3.828a.865.865,0,0,1,.96-.971h3.885a.859.859,0,0,1,.955.749.877.877,0,0,1,0,.2v3.911a.847.847,0,0,1-.759.928.752.752,0,0,1-.157,0c-.671.008-1.342,0-2.013,0m1.236-4.092h-2.412v2.393h2.412Z"/>
          <path id="Path_4725" data-name="Path 4725" d="M12590.2,1586.835h1.956a.851.851,0,0,1,.927.766.867.867,0,0,1,0,.151q.007,1.983,0,3.967a.835.835,0,0,1-.763.9.89.89,0,0,1-.125,0q-2.011.014-4.023,0a.832.832,0,0,1-.887-.777.863.863,0,0,1,0-.123q-.007-1.983,0-3.967a.85.85,0,0,1,.774-.917.892.892,0,0,1,.154,0h1.984m-1.22,4.088h2.414v-2.4h-2.414Z"/>
        </g>
      </g>
    </g>
  </g>
</svg>
