<svg xmlns="http://www.w3.org/2000/svg" xmlns:xlink="http://www.w3.org/1999/xlink" width="38.55" height="36.649" viewBox="0 0 38.55 36.649">
  <defs>
    <clipPath id="clip-path">
      <rect id="Rectangle_10577" data-name="Rectangle 10577" width="24.48" height="24.516" fill="#8a8a8a"/>
    </clipPath>
  </defs>
  <g id="Group_11928" data-name="Group 11928" transform="translate(-1718.021 -3057.451)">
    <rect id="Rectangle_10576" data-name="Rectangle 10576" width="37.55" height="35.649" rx="3.103" transform="translate(1718.521 3057.951)" fill="none" stroke="#8a8a8a" stroke-width="1"/>
    <g id="Group_11826" data-name="Group 11826" transform="translate(1725.057 3063.518)">
      <g id="Group_11825" data-name="Group 11825" clip-path="url(#clip-path)">
        <path id="Path_4750" data-name="Path 4750" d="M18.459,24.516H6.033c-.077-.017-.154-.032-.23-.052a10.853,10.853,0,0,1-1.76-.49A6.435,6.435,0,0,1,.023,17.836C-.019,14.118.009,10.4.019,6.68A6.058,6.058,0,0,1,.15,5.327,6.522,6.522,0,0,1,5.079.193c.312-.086.636-.13.954-.193H18.459c.248.046.5.08.745.14a6.552,6.552,0,0,1,5.079,4.914c.089.32.133.652.2.979v12.45c-.04.226-.07.455-.123.678a6.572,6.572,0,0,1-4.9,5.154c-.326.092-.666.136-1,.2M1.446,12.24c0,1.827-.007,3.654.005,5.481a5.7,5.7,0,0,0,.121,1.234A5.179,5.179,0,0,0,6.757,23.08q5.494.005,10.989,0a5.338,5.338,0,0,0,1.184-.122,5.187,5.187,0,0,0,4.117-5.195q.005-5.505,0-11.01a5.531,5.531,0,0,0-.114-1.163A5.176,5.176,0,0,0,17.783,1.44q-5.542-.016-11.084,0a5.082,5.082,0,0,0-4.288,2.2,5.171,5.171,0,0,0-.964,3.119q0,2.741,0,5.481" transform="translate(0)" fill="#8a8a8a"/>
        <path id="Path_4751" data-name="Path 4751" d="M99.524,106.222a6.7,6.7,0,1,1,6.686-6.694,6.705,6.705,0,0,1-6.686,6.694m5.243-6.878a5.248,5.248,0,1,0-4.7,5.4,5.268,5.268,0,0,0,4.7-5.4" transform="translate(-87.275 -87.262)" fill="#8a8a8a"/>
        <path id="Path_4752" data-name="Path 4752" d="M288.029,56.89a1.983,1.983,0,0,1-.009-3.966,2.017,2.017,0,0,1,1.993,1.993,2,2,0,0,1-1.984,1.972m0-2.508a.544.544,0,0,0-.536.531.564.564,0,0,0,.539.537.545.545,0,0,0,.527-.541.523.523,0,0,0-.53-.527" transform="translate(-268.934 -49.756)" fill="#8a8a8a"/>
      </g>
    </g>
  </g>
</svg>
