<svg xmlns="http://www.w3.org/2000/svg" width="44.999" height="44.983" viewBox="0 0 44.999 44.983">
  <g id="Group_1104" data-name="Group 1104" transform="translate(-14210.72 -8464.444)" opacity="0.8">
    <path id="Path_1006" data-name="Path 1006" d="M14210.72,8502.134c.367-.392.725-.795,1.1-1.176q8.6-8.607,17.218-17.2a.655.655,0,0,0,.17-.828,13.6,13.6,0,0,1,3.71-15.01,13.308,13.308,0,0,1,11.142-3.313,13.676,13.676,0,0,1,.878,26.89,13.292,13.292,0,0,1-7.759-.574.593.593,0,0,0-.757.155c-1.081,1.113-2.2,2.193-3.278,3.307a1.649,1.649,0,0,1-1.288.524c-1.26-.016-2.518,0-3.828,0-.008.178-.021.332-.021.486,0,1.127-.012,2.255,0,3.382a1.577,1.577,0,0,1-.509,1.251c-.627.595-1.232,1.212-1.834,1.831a1.428,1.428,0,0,1-1.1.448c-1.144-.009-2.285,0-3.427,0h-.534v.727c0,1.054-.011,2.108,0,3.162a1.56,1.56,0,0,1-.521,1.245c-.706.653-1.39,1.331-2.082,2h-1.494a4.081,4.081,0,0,0-.469-.078q-2.01-.1-4.02-.189a.97.97,0,0,1-1.04-1c-.038-.7-.056-1.4-.1-2.1-.049-.813-.114-1.624-.174-2.437Zm15.454-5.854q0-.967,0-1.934c0-1.012.266-1.28,1.264-1.281,1.331,0,2.664-.01,4,.006a.92.92,0,0,0,.73-.3c1.14-1.159,2.294-2.3,3.443-3.453.653-.654.838-.689,1.7-.317a11.847,11.847,0,0,0,16.4-8.986,11.559,11.559,0,0,0-2.864-9.8,11.853,11.853,0,0,0-19.718,12.6c.391.911.36,1.065-.345,1.771q-8.96,8.96-17.916,17.928a.922.922,0,0,0-.288.582c.037,1.287.122,2.573.174,3.86.012.31.116.436.438.443a16.2,16.2,0,0,1,2.627.133,2.447,2.447,0,0,0,2.684-1.117,1.277,1.277,0,0,0,.254-.65c.023-1.36.009-2.723.013-4.085,0-.918.3-1.215,1.2-1.216,1.377,0,2.753.01,4.129-.012a1.021,1.021,0,0,0,.6-.245,14.158,14.158,0,0,0,1.211-1.21,1.055,1.055,0,0,0,.244-.605C14226.193,8497.686,14226.174,8496.982,14226.174,8496.279Z"/>
    <path id="Path_1007" data-name="Path 1007" d="M14243.968,8480.422a4.253,4.253,0,0,1-.007-8.507,4.253,4.253,0,1,1,.007,8.507Zm-2.407-4.267a2.419,2.419,0,0,0,4.838.035,2.419,2.419,0,1,0-4.838-.035Z"/>
    <path id="Path_1008" data-name="Path 1008" d="M14240.812,8485.273a7.519,7.519,0,0,0,3.123-.164,7.259,7.259,0,0,0,2.806-1.481c.167-.142.325-.3.5-.424a.9.9,0,0,1,1.163,1.373,14.989,14.989,0,0,1-2.155,1.566,8.734,8.734,0,0,1-5.645.954.942.942,0,0,1-.874-.975A.957.957,0,0,1,14240.812,8485.273Z"/>
    <path id="Path_1009" data-name="Path 1009" d="M14250.359,8481.869a.869.869,0,0,1-.853.92.913.913,0,0,1-.012-1.825A.861.861,0,0,1,14250.359,8481.869Z"/>
  </g>
</svg>
