<svg xmlns="http://www.w3.org/2000/svg" width="26.859" height="26.854" viewBox="0 0 26.859 26.854">
  <g id="Group_11894" data-name="Group 11894" transform="translate(15844.558 797.139)" opacity="0.8">
    <path id="Path_1222" data-name="Path 1222" d="M10897.523,8631.861a13.427,13.427,0,1,1-13.422,13.427A13.455,13.455,0,0,1,10897.523,8631.861Zm12,13.443a11.992,11.992,0,1,0-11.993,11.973A11.973,11.973,0,0,0,10909.523,8645.3Z" transform="translate(-26728.66 -9429)"/>
    <path id="Path_1223" data-name="Path 1223" d="M10903,8645.418c.686,1.623.357,3.021-.858,3.838a2.829,2.829,0,0,1-3.911-3.949,2.877,2.877,0,0,1,3.824-.823,2.475,2.475,0,0,1,.227-.3c1.565-1.569,3.129-3.141,4.705-4.7a1.3,1.3,0,0,1,.616-.329.586.586,0,0,1,.645.361.676.676,0,0,1-.053.747,2.71,2.71,0,0,1-.271.29q-2.326,2.329-4.656,4.653A2.573,2.573,0,0,1,10903,8645.418Zm-2.445,2.89a1.4,1.4,0,1,0-1.391-1.414A1.384,1.384,0,0,0,10900.558,8648.308Z" transform="translate(-26731.693 -9430.621)"/>
    <path id="Path_1224" data-name="Path 1224" d="M10898.576,8637.3a9.757,9.757,0,0,1,3.883.794c.479.212.674.589.5.99s-.577.52-1.064.321a7.574,7.574,0,0,0-8.069,1.1,7.4,7.4,0,0,0-2.837,5.8c-.021.678-.476,1.07-1,.841a.746.746,0,0,1-.442-.779,9.23,9.23,0,0,1,9.023-9.067Z" transform="translate(-26729.871 -9430.211)"/>
    <path id="Path_1225" data-name="Path 1225" d="M10912.57,8647.758c0-.038,0,0,0,.05a.743.743,0,0,1-.716.822c-.406,0-.677-.321-.726-.787-.069-.665-.147-1.33-.275-1.986a6.6,6.6,0,0,0-.381-1.085.731.731,0,0,1,.325-1.036c.4-.18.777.008.992.488A9.475,9.475,0,0,1,10912.57,8647.758Z" transform="translate(-26734.508 -9431.627)"/>
  </g>
</svg>
