<svg xmlns="http://www.w3.org/2000/svg" width="25.001" height="30.907" viewBox="0 0 25.001 30.907">
  <g id="Group_2921" data-name="Group 2921" transform="translate(-8284.114 -236.419)" opacity="0.5">
    <path id="Path_2848" data-name="Path 2848" d="M8309.115,249.079a14,14,0,0,1-1.562,5.959,29.819,29.819,0,0,1-5.011,7.07,45.289,45.289,0,0,1-5.342,4.951.759.759,0,0,1-1.127.033,41.769,41.769,0,0,1-8.661-9.072,18.251,18.251,0,0,1-3-6.52,12.02,12.02,0,0,1,2.7-10.666,12.2,12.2,0,0,1,7.6-4.259,12.546,12.546,0,0,1,13.219,7.074A12.9,12.9,0,0,1,8309.115,249.079Zm-1.468-.438c-.028-.294-.064-.834-.136-1.369a9.046,9.046,0,0,0-.221-1.078,11.009,11.009,0,0,0-21.357,5.352,18.532,18.532,0,0,0,2.912,5.959,41.147,41.147,0,0,0,7.582,8c.182.151.275.072.41-.039a45.773,45.773,0,0,0,4.3-4.008,29.224,29.224,0,0,0,5-6.887A12.963,12.963,0,0,0,8307.647,248.641Z"/>
    <path id="Path_2849" data-name="Path 2849" d="M8296.637,239.376a9.56,9.56,0,1,1-9.584,9.518A9.573,9.573,0,0,1,8296.637,239.376Zm8.086,9.792a7.929,7.929,0,0,0-4.31-7.343,7.686,7.686,0,0,0-8.814.791,7.822,7.822,0,0,0-3.08,6.548h3.437v-.348q0-2.8,0-5.6c0-.622.271-.893.9-.893h7.5c.647,0,.912.263.912.907q0,2.8,0,5.6v.338Zm-9.826,4.9c0-.72,0-1.4,0-2.088a.748.748,0,0,1,.827-.838c.552,0,1.1,0,1.654,0,.706,0,.948.247.949.964v1.957h1.446V243.806h-6.327v10.263Zm6.285,1.506h-9.138A7.961,7.961,0,0,0,8301.182,255.575Zm-12.467-4.913a7.923,7.923,0,0,0,1.585,3.317.27.27,0,0,0,.172.1c.487.008.974,0,1.462,0v-3.42Zm12.568,3.421c.461,0,.9.014,1.335-.009a.532.532,0,0,0,.369-.187,11.68,11.68,0,0,0,.9-1.451c.27-.557.447-1.158.674-1.768h-3.278Zm-4.448-.011v-1.445h-.451v1.445Z"/>
    <path id="Path_2850" data-name="Path 2850" d="M8293.918,245.505c0-.173-.009-.346,0-.519a.734.734,0,0,1,.737-.7.722.722,0,0,1,.722.687,9.99,9.99,0,0,1,0,1.068.724.724,0,0,1-.718.691.735.735,0,0,1-.741-.7C8293.909,245.852,8293.918,245.678,8293.918,245.505Z"/>
    <path id="Path_2851" data-name="Path 2851" d="M8297.344,245.508c0,.173.012.347,0,.519a.731.731,0,0,1-1.46.006c-.017-.355-.018-.713,0-1.068a.73.73,0,0,1,1.457-.006C8297.356,245.141,8297.344,245.325,8297.344,245.508Z"/>
    <path id="Path_2852" data-name="Path 2852" d="M8297.84,245.508c0-.173-.009-.346,0-.519a.733.733,0,0,1,.734-.708.722.722,0,0,1,.725.684,10.253,10.253,0,0,1,0,1.068.726.726,0,0,1-.747.694.736.736,0,0,1-.713-.7C8297.831,245.855,8297.84,245.681,8297.84,245.508Z"/>
    <path id="Path_2853" data-name="Path 2853" d="M8295.383,249.418c0,.183.012.367,0,.549a.73.73,0,0,1-1.457,0,10.044,10.044,0,0,1,0-1.1.723.723,0,0,1,.711-.667.733.733,0,0,1,.743.666c.018.182,0,.366,0,.55Z"/>
    <path id="Path_2854" data-name="Path 2854" d="M8297.343,249.425c0,.184.014.368,0,.55a.73.73,0,0,1-1.457-.015c-.018-.356-.018-.713,0-1.068a.731.731,0,0,1,1.458-.016C8297.356,249.058,8297.343,249.242,8297.343,249.425Z"/>
    <path id="Path_2855" data-name="Path 2855" d="M8297.842,249.393c0-.173-.013-.347,0-.519a.735.735,0,0,1,.739-.672.718.718,0,0,1,.715.661,8.888,8.888,0,0,1,0,1.129.717.717,0,0,1-.718.657.734.734,0,0,1-.735-.676C8297.828,249.781,8297.841,249.586,8297.842,249.393Z"/>
    <path id="Path_2856" data-name="Path 2856" d="M8290,252.346c0-.173-.011-.347,0-.519a.733.733,0,0,1,.728-.683.723.723,0,0,1,.73.679,9.6,9.6,0,0,1,0,1.1.724.724,0,0,1-.739.669.737.737,0,0,1-.717-.7C8289.986,252.713,8290,252.529,8290,252.346Z"/>
    <path id="Path_2857" data-name="Path 2857" d="M8303.227,252.372c0,.173.011.346,0,.518a.73.73,0,0,1-1.459.006c-.017-.355-.018-.712,0-1.068a.73.73,0,0,1,1.457-.006C8303.239,252,8303.227,252.188,8303.227,252.372Z"/>
  </g>
</svg>
