<svg xmlns="http://www.w3.org/2000/svg" width="35.794" height="23.904" viewBox="0 0 35.794 23.904">
  <g id="Group_2113" data-name="Group 2113" transform="translate(-5263.725 -722.973)" opacity="0.4">
    <path id="Path_3978" data-name="Path 3978" d="M5299.519,745.349a5.457,5.457,0,0,1-.493.908,1.838,1.838,0,0,1-1.532.614q-5.659-.006-11.319,0H5265.81a2.056,2.056,0,0,1-1.4-.434,1.87,1.87,0,0,1-.669-1.51q.007-3.492,0-6.986v-12.82a1.883,1.883,0,0,1,1.621-2.113,1.832,1.832,0,0,1,.479,0h31.4a1.956,1.956,0,0,1,2.269,1.52Zm-2.371.125c-.095-.125-.149-.2-.208-.272q-2.427-3-4.857-6l-2.658-3.286a.7.7,0,0,1,.211-1.156c.323-.128.6-.021.9.345q3.3,4.071,6.593,8.144c.311.384.624.767.971,1.194V725.286c-.143.106-.247.181-.349.258L5283.7,736.083a3.259,3.259,0,0,1-4.1.023l-14.138-10.6c-.094-.071-.193-.137-.3-.215v19.152c.116-.137.191-.224.264-.313l5.8-7.167c.52-.642,1.037-1.288,1.561-1.927a.693.693,0,1,1,1.168.746.759.759,0,0,1-.1.127c-.028.036-.059.071-.089.107l-7.383,9.123c-.083.1-.157.206-.257.336Zm-30.836-21.067c.115.093.175.145.239.192q6.954,5.219,13.908,10.433a1.87,1.87,0,0,0,2.357-.009q6.927-5.193,13.851-10.389c.08-.06.155-.126.278-.227Z"/>
  </g>
</svg>
