<svg xmlns="http://www.w3.org/2000/svg" width="28.98" height="37.907" viewBox="0 0 28.98 37.907">
  <path id="Icon_material-lock-outline" data-name="Icon material-lock-outline" d="M5281.62,899.748a3.633,3.633,0,1,0-2.558-1.064A3.634,3.634,0,0,0,5281.62,899.748Zm10.867-16.3h-1.81v-3.625a9.057,9.057,0,0,0-18.112,0v3.623h-1.81a3.632,3.632,0,0,0-3.623,3.624v18.113a3.632,3.632,0,0,0,3.623,3.622h21.734a3.632,3.632,0,0,0,3.623-3.622V887.07A3.632,3.632,0,0,0,5292.487,883.448ZM5276,879.823a5.615,5.615,0,1,1,11.228-.231h0v3.854H5276Zm16.482,25.357h-21.732V887.07h21.734Z" transform="translate(-5267.132 -870.898)" fill="#393f45" opacity="0.4" style="mix-blend-mode: normal;isolation: isolate"/>
</svg>
