<svg xmlns="http://www.w3.org/2000/svg" width="48.681" height="40.566" viewBox="0 0 48.681 40.566">
  <g id="Group_2613" data-name="Group 2613" transform="translate(-14338.233 -2050.158)" opacity="0.8">
    <path id="Path_2557" data-name="Path 2557" d="M14338.233,2050.9a1.309,1.309,0,0,1,1.354-.742c1.773.035,3.556-.067,5.317.09a4.645,4.645,0,0,1,4.156,3.338c.483,1.386.852,2.814,1.233,4.234.1.383.27.479.65.479q16.279-.016,32.557-.014a3.275,3.275,0,0,1,2.267.673,2.917,2.917,0,0,1,1.011,3.2c-1.44,4.983-2.882,9.964-4.375,14.931a4.972,4.972,0,0,1-5,3.486q-8.865.006-17.729,0a9.917,9.917,0,0,1-2.405-.173,4.859,4.859,0,0,1-3.628-3.593q-2.145-7.453-4.275-14.911-1.052-3.671-2.1-7.342a3.011,3.011,0,0,0-3.109-2.343c-1.521-.007-3.042-.016-4.563.005a1.318,1.318,0,0,1-1.354-.743Zm12.824,9.41a2.58,2.58,0,0,0,.038.282q2.262,7.886,4.531,15.769a2.975,2.975,0,0,0,2.981,2.195q9.456.006,18.909,0a3.031,3.031,0,0,0,3.02-2.282q2.1-7.165,4.2-14.334c.325-1.113-.063-1.63-1.22-1.63h-32.457Z"/>
    <path id="Path_2558" data-name="Path 2558" d="M14374.167,2090.724c-.358-.118-.728-.208-1.071-.359a4.048,4.048,0,1,1,5.689-3.913,4.076,4.076,0,0,1-3.074,4.155c-.136.034-.269.078-.4.117Zm-1.446-4.034a2.016,2.016,0,1,0,2-2.047A2.023,2.023,0,0,0,14372.721,2086.69Z"/>
    <path id="Path_2559" data-name="Path 2559" d="M14359.908,2090.724c-.368-.132-.75-.235-1.1-.4a4.048,4.048,0,1,1,2.825.245c-.164.046-.325.1-.487.156Zm.634-6.081a2.029,2.029,0,1,0,2.026,2.027A2.044,2.044,0,0,0,14360.542,2084.643Z"/>
  </g>
</svg>
