<svg xmlns="http://www.w3.org/2000/svg" width="27.999" height="30.989" viewBox="0 0 27.999 30.989">
  <g id="Group_1195" data-name="Group 1195" transform="translate(-11814.765 -8581.646)" opacity="0.8">
    <path id="Path_1129" data-name="Path 1129" d="M11842.758,8597.176c0,2.028-.018,4.057.006,6.083a3.186,3.186,0,0,1-1.8,3.062q-5.259,2.89-10.491,5.83a3.257,3.257,0,0,1-3.434-.01q-5.191-2.918-10.413-5.783a3.286,3.286,0,0,1-1.865-3.163q.041-6.059,0-12.119a3.252,3.252,0,0,1,1.842-3.127q5.266-2.88,10.5-5.828a3.153,3.153,0,0,1,3.3-.015q5.322,2.971,10.657,5.92a3.084,3.084,0,0,1,1.7,2.927C11842.747,8593.027,11842.758,8595.1,11842.758,8597.176Zm-1.433-6.533c-.13.059-.187.079-.239.108q-5.638,3.132-11.279,6.258a.578.578,0,0,0-.317.6q.012,5.21,0,10.422a2.587,2.587,0,0,1-.029.516.659.659,0,0,1-.683.591.667.667,0,0,1-.718-.607,2.672,2.672,0,0,1-.024-.517c0-3.442-.007-6.886.009-10.329a.744.744,0,0,0-.458-.758q-5.382-2.963-10.747-5.961c-.187-.1-.38-.2-.612-.321-.01.172-.021.292-.021.41q0,6.2,0,12.4a1.651,1.651,0,0,0,.957,1.546q5.333,2.953,10.657,5.925a1.8,1.8,0,0,0,1.909,0q5.282-2.952,10.578-5.879a1.8,1.8,0,0,0,1.027-1.748c-.021-3.411-.009-6.823-.009-10.233Zm-.792-1.248c-.116-.072-.189-.125-.268-.168q-5.288-2.94-10.576-5.882a1.768,1.768,0,0,0-1.868.016q-5.24,2.93-10.492,5.835c-.1.055-.194.122-.32.2.095.063.144.1.2.132q5.637,3.135,11.27,6.273a.569.569,0,0,0,.643-.038q5.492-3.059,10.991-6.106C11840.241,8589.584,11840.367,8589.5,11840.533,8589.395Z"/>
  </g>
</svg>
