<svg xmlns="http://www.w3.org/2000/svg" width="169.041" height="176.717" viewBox="0 0 169.041 176.717">
  <g id="Group_2167" data-name="Group 2167" transform="translate(-2810.967 -337.432)">
    <path id="Path_2896" data-name="Path 2896" d="M2960.341,483.8a84.731,84.731,0,0,1-23.626,19.588,86.486,86.486,0,0,1-29.693,10.033c-2.117.335-4.295.153-6.386.729h-10.351c-1.6-.784-3.359-.409-5.029-.613a84.856,84.856,0,0,1-23.729-6.518,41.018,41.018,0,0,1-6.448-3.207c1.287-2.122,3.351-3.387,5.332-4.7a51.953,51.953,0,0,1,14.767-6.376c2.028-.574,3.937-1.594,6.1-1.7a6.089,6.089,0,0,1,2.272,1.183,22.993,22.993,0,0,0,11.709,4.14,19.1,19.1,0,0,0,8.406-1.505,39.06,39.06,0,0,0,14.211-10.624,75.11,75.11,0,0,0,8.574-11.828,5.164,5.164,0,0,1,2.857-2.356,6.378,6.378,0,0,1,3.706.291A115.634,115.634,0,0,1,2950.2,478.1c3.084,1.63,6.014,3.539,9.205,4.972A2.254,2.254,0,0,1,2960.341,483.8Z" fill="#fef4ed"/>
    <path id="Path_2897" data-name="Path 2897" d="M2830.573,483.821c-7.8-9.483-13.7-20.03-16.628-31.974-8.026-32.74.2-60.932,24.3-84.473a68.542,68.542,0,0,1,9.136-7.317,12.638,12.638,0,0,1,1.131,5.6c.039,1.083-.875,1.14-1.763,1.049-1.635-.169-1.761-.044-1.212,1.5,1.346,3.8,2.8,7.539,5.457,10.672a5.318,5.318,0,0,1,1.313,2.587c.75,5.007,2.655,9.747,3.382,14.758a3.233,3.233,0,0,1-.138,2.343c-.942.644-2.183.5-3.1,1.341-2.19,2.021-1.954,4.5-1.464,7.009a19.822,19.822,0,0,0,1.361,3.881,31.591,31.591,0,0,1,1.969,6.581,6.357,6.357,0,0,0,3.89,5.285,1.665,1.665,0,0,1,.972.928,10.208,10.208,0,0,1,.2,3.084c-.027,6.951-.128,13.9,1.011,20.8a65.892,65.892,0,0,0,5.853,19.217,3.987,3.987,0,0,1,.768,2.417c-.864,1.264-2.365,1.019-3.559,1.5-5.584.191-10.275,3.036-15.174,5.2-4.829,2.136-9.239,5.094-13.963,7.448C2833.151,483.838,2831.958,484.57,2830.573,483.821Z" fill="#e2e4e8"/>
    <path id="Path_2898" data-name="Path 2898" d="M2960.341,483.8c-3.717-1.165-6.856-3.464-10.243-5.264a117.717,117.717,0,0,0-17.089-7.722,7.531,7.531,0,0,0-3.715-.443c-1.633.229-3.167.2-4.09-1.506.169-1.954,1.394-3.491,2.109-5.227a72.211,72.211,0,0,0,4.9-19.812,130.42,130.42,0,0,0,.738-15.8c-.017-1.482-.649-2.941-.151-4.433a1.66,1.66,0,0,1,1.034-.847,6.1,6.1,0,0,0,3.928-4.851,46.145,46.145,0,0,1,2.185-7.408,21.245,21.245,0,0,0,1.56-4.92c.548-3.432-.443-5.105-4.081-7.021a2.928,2.928,0,0,1-.127-2.012c.388-3.511,1.745-6.785,2.471-10.211a48,48,0,0,0,.755-16.778,13.531,13.531,0,0,0-7.972-10.926,10.677,10.677,0,0,1-5.342-6.031,1.408,1.408,0,0,1-.088-1.32,74.134,74.134,0,0,1,19.281,10.864c16.924,13.032,27.874,29.954,31.908,50.968,4.977,25.935-1.028,49.318-17.429,70.021Z" fill="#e2e4e8"/>
    <path id="Path_2899" data-name="Path 2899" d="M2927.118,351.272a12.6,12.6,0,0,0,6.629,7.47c5.232,2.593,7.25,7.462,7.541,13.076a51.092,51.092,0,0,1-2.354,19.385,32.947,32.947,0,0,0-1.394,7.257,7.04,7.04,0,0,1-4.478.89,77.284,77.284,0,0,0-3.861-8.786,7.63,7.63,0,0,1-.407-3.224c-.088-3.035.263-6.083-.433-9.1a15.488,15.488,0,0,0-3.754-6.881c-1.321-1.476-3.07-1.707-5.037-.719a85.39,85.39,0,0,1-11.038,4.83,57.127,57.127,0,0,1-29.035,2.313,4.854,4.854,0,0,1-1.484-.423.581.581,0,0,1-.285-.454,4.806,4.806,0,0,1,.943-1.812c3.408-5.672,3.989-11.464,1.008-17.54-2.229-4.542-1.183-9.85,2.52-13.849,1.246-1.341,2.6-2.574,3.908-3.857,16.466-6.385,33.941.779,40.677,11.034A3.768,3.768,0,0,0,2927.118,351.272Z" fill="#41416b"/>
    <path id="Path_2900" data-name="Path 2900" d="M2886.1,339.849c.543.07.5.154.118.536-2.234,2.2-4.638,4.213-6.038,7.176a11.121,11.121,0,0,0,.059,10.2c3.236,6.655,2.046,12.871-1.992,18.764-.089.131-.28.191-.424.283-.821.638-1.667.23-2.472.005a80.2,80.2,0,0,1-8-2.73c-1.867-.743-2.849-.281-3.292,1.7a26.617,26.617,0,0,0-.674,8.883,13.174,13.174,0,0,1-1.67,8.473,20.389,20.389,0,0,0-1.77,3.922c-.931,2.774-1.984,3.107-4.473,1.4a38.324,38.324,0,0,0-1.841-9.059,34.263,34.263,0,0,1-1.344-6.019,9,9,0,0,0-2.085-4.8c-2.74-3.336-4.162-7.356-5.47-11.4-.421-1.3.2-1.5,1.364-1.13,2.266.717,2.336.59,1.87-1.748-.278-1.4-.4-2.83-.59-4.246a35.085,35.085,0,0,1,2.9-15.7c.828-1.985,2.306-2.275,3.9-.793,2.39,2.219,4.979,3.991,8.335,4.407a12.877,12.877,0,0,0,6.338-1.089c5.1-1.985,9.938-4.612,15.123-6.406C2884.679,340.234,2885.4,340.056,2886.1,339.849Z" fill="#35355e"/>
    <path id="Path_2901" data-name="Path 2901" d="M2830.573,483.821a10.129,10.129,0,0,0,5.121-1.755c6.133-3.435,12.234-6.946,18.793-9.52,2.827-1.109,5.571-2.788,8.844-2.153,1.54.176,2.114,1.433,2.8,2.537a77.1,77.1,0,0,0,10.887,14.084c1.376,1.372,3.068,2.384,4.359,3.852a.594.594,0,0,1-.015.483,132.948,132.948,0,0,0-14.285,4.706,43.692,43.692,0,0,0-12,7.759A82.057,82.057,0,0,1,2830.573,483.821Z" fill="#fbe5d5"/>
    <path id="Path_2902" data-name="Path 2902" d="M2881.36,491.346c-.026-.1-.048-.2-.067-.307,1.783-1.515,2.732-3.785,4.674-5.159,1.578.057,2.957.844,4.451,1.223a21.537,21.537,0,0,0,5.942.782c7.934-.525,14.631-3.873,20.494-9.057a38.939,38.939,0,0,0,7.192-8.712c.322-.513.53-1.187,1.326-1.184,1.089,1.073,2.613.96,3.92,1.437a7.077,7.077,0,0,0-2.927,3.018c-4.431,7.24-9.577,13.881-16.685,18.717-9.186,6.252-17.573,6.259-26.877.172C2882.323,491.964,2881.841,491.657,2881.36,491.346Z" fill="#fbac6d"/>
    <path id="Path_2903" data-name="Path 2903" d="M2896.494,488.274c-3.12.363-5.99-.713-8.9-1.555-.593-.171-1.18-.368-1.77-.553a6.945,6.945,0,0,1-2.439-.715,39.15,39.15,0,0,1-16.158-15.16,1.566,1.566,0,0,1-.322-1.126,66.724,66.724,0,0,1-6.792-20.249,104.384,104.384,0,0,1-1.275-19.191c.036-2.124.028-4.248.041-6.372a17.965,17.965,0,0,1,.449-7.389.7.7,0,0,1,.694-.357c1.028.6.986,1.74,1.287,2.682a34.887,34.887,0,0,0,5.873,11.765,18.978,18.978,0,0,0,3.836,3.668c.911.635,1.559.675,2.257-.372a19.966,19.966,0,0,1,3.07-3.691,22.793,22.793,0,0,1,5.354-3.315,5.128,5.128,0,0,1,2.807-.564c1.08.287.805,1.055.656,1.8a12.738,12.738,0,0,0-.511,4.083,8.489,8.489,0,0,0,2.693,5.26c.565.537,1.486,1.143.562,2.145a2.6,2.6,0,0,1-1.3.291,8.465,8.465,0,0,0-1.533.122c-2.857.616-3.224,1.349-2.306,4.033,1.409,4.115,4.384,6.256,8.517,7.021,1.067.2,2.141.354,3.218.511,2.557.545,2.586.567.948,2.665a12.674,12.674,0,0,0-2.989,6.647,10.424,10.424,0,0,0,2.634,7.776,19.516,19.516,0,0,1,4.425,9.763A12.374,12.374,0,0,1,2896.494,488.274Z" fill="#35355e"/>
    <path id="Path_2904" data-name="Path 2904" d="M2876.511,430.023a26.446,26.446,0,0,0-3.292,4.17c-.472.839-.9.772-1.615.364a19.751,19.751,0,0,1-7.155-7.733,40.958,40.958,0,0,1-4.237-11.007,2.721,2.721,0,0,1-.66-1.079c-.322-.853-.05-2.023-.659-2.583-.751-.692-1.628.375-2.5.465a4.594,4.594,0,0,1-4.394-1.663,15.371,15.371,0,0,1-1.8-6.89c.087-3.451,1.835-5.371,5.284-5.612,1.1.215,2.513.932,3.212.5.75-.464.778-2.032,1.2-3.085a19.075,19.075,0,0,1,1.4-2.934,12.419,12.419,0,0,0,1.629-8.085,28.46,28.46,0,0,1,.756-9.54c.483-1.989,1.674-2.6,3.552-1.828a46.947,46.947,0,0,0,10.591,3.325,1.023,1.023,0,0,1,.063.249,2.139,2.139,0,0,1,.417,1.627c-.5,3.255-.173,6.532-.282,9.8a9.516,9.516,0,0,1-1.8,5.463c-.8.7-1.836.625-2.777.765-3,.449-4.661,2.248-5.542,5.345a15.623,15.623,0,0,1,4.2-2.275c.956-.289,1.985-.779,2.851.257.01,2.138-.537,4.233-.486,6.371-.287,1.394-1.916,1.567-2.563,2.831,1.04.624,2.554.579,3.024,2a78.153,78.153,0,0,1,1.3,10.907c.217,2.735.237,5.488.567,8.219A2.855,2.855,0,0,1,2876.511,430.023Z" fill="#fbac6d"/>
    <path id="Path_2905" data-name="Path 2905" d="M2866.905,469.169a44.493,44.493,0,0,0,11.082,12.485,57.105,57.105,0,0,0,7.839,4.515c-1.483,1.65-2.259,3.958-4.533,4.87-6.452-4.608-11.054-10.836-15.219-17.437a9.644,9.644,0,0,0-2.742-3.209C2864.386,469.586,2865.785,469.789,2866.905,469.169Z" fill="#fc985b"/>
    <path id="Path_2906" data-name="Path 2906" d="M2852,410.959c2.047,1.226,4.115,1.953,6.369.441.733-.493,1.139-.2,1.211.679.073.9.22,1.793.334,2.689-.211.319.038.763-.285,1.051l-.745,7.539a6.361,6.361,0,0,1-4.9-5.524A39.254,39.254,0,0,0,2852,410.959Z" fill="#fc985b"/>
    <path id="Path_2907" data-name="Path 2907" d="M2887.864,438.852c.483-.747-.22-1.046-.594-1.373-3.187-2.782-3.707-6.207-2.533-10.082.139-.459.683-1.126-.37-1.278.566-1.243,1.7-.644,2.6-.812,2.47.52,5.076.268,7.4,1.69a5.186,5.186,0,0,0,5.275.013,9.679,9.679,0,0,1,5.18-1.369c.5.02.994-.246,1.511-.273,5.827-.1,10.18,2.671,13.7,7.063,1.127,1.4,1.312,1.411,2.676.156,4.62-4.248,6.926-9.763,8.607-15.637.188-.658-.088-1.707,1.076-1.841a1.471,1.471,0,0,1,.56,1.029c.129,2.4,1.073,4.786.215,7.218.161,3.9.354,7.8.194,11.708-.411,10.031-1.719,19.892-5.8,29.2-.691,1.575-1.459,3.116-2.192,4.673-2.825,4.472-5.975,8.669-10.22,11.919-5.52,4.226-11.6,7.053-18.658,7.422.879-2.088,2.08-3.995,2.5-6.328.688-3.813-.414-7.144-2.149-10.351-.892-1.648-2.167-3.083-3.187-4.665-2.467-3.829-2.223-7.707.023-11.516a42.508,42.508,0,0,1,2.6-3.54c-.552-.429-1.381.084-1.864-.473.628-.726,1.49-.508,2.259-.492a20.615,20.615,0,0,0,5.634-.633,9.574,9.574,0,0,0,6.566-5.381c.519-1.091.933-2.225,1.475-3.306.664-1.325.483-1.677-.925-2.047a7.986,7.986,0,0,0-2.058-.154,24.769,24.769,0,0,1-8.083-1.311,6.464,6.464,0,0,0-4.494-.019,20.213,20.213,0,0,1-5.181,1.116C2889,439.225,2888.357,439.453,2887.864,438.852Z" fill="#41416b"/>
    <path id="Path_2908" data-name="Path 2908" d="M2933.119,399.145c1.508,0,2.882-.868,4.418-.685,3.325.493,5.195,3.529,4.428,7.335a17.108,17.108,0,0,1-1.644,4.822c-2.011,2.661-4.908,2.813-7.81.407a9.72,9.72,0,0,1,.183-2.559c.347-2.548.823-5.084.249-7.669A1.881,1.881,0,0,1,2933.119,399.145Z" fill="#fbac6d"/>
    <path id="Path_2909" data-name="Path 2909" d="M2932.742,411.313c.536-.348.96-.047,1.4.223,2.311,1.407,4.314.712,6.175-.919a70.553,70.553,0,0,0-2.243,7.86,5.9,5.9,0,0,1-4.907,4.88c-.173-2.141-.318-4.285-.536-6.422a2.79,2.79,0,0,0-.526-1.753A4.476,4.476,0,0,1,2932.742,411.313Z" fill="#fc985b"/>
    <path id="Path_2910" data-name="Path 2910" d="M2932.742,411.313a17.292,17.292,0,0,1-.634,3.869c-1.448,6.718-3.944,12.909-9.091,17.719-1.828,1.708-1.873,1.663-3.363-.268a17.14,17.14,0,0,0-13.2-6.986c-.388-.091-.532-.39-.647-.729-.965-2.825-3.832-3.593-6.144-1.648a3.845,3.845,0,0,1-5.313.043c-2.5-1.971-5.013-1.334-6.121,1.575a.976.976,0,0,1-.99.763c-.927.343-1.985-.123-2.871.47-3.083.368-5.478,2.119-7.856,3.9-.851-5.577-.742-11.231-1.426-16.82-.179-1.463-.423-2.919-.636-4.379.837-.5,1.627.005,2.436.107,1.925.757,3.922.514,5.906.418a11.762,11.762,0,0,0,4.375-.717,11.443,11.443,0,0,1,2.575-.392c-2.244-.526-3.613-2.377-5.582-3.189a8.8,8.8,0,0,0-7.809-.65c-.76.111-1.42.865-2.277.362a22.165,22.165,0,0,1,.679-6.872c.751-.751,1.663-.5,2.55-.422a91.367,91.367,0,0,1,11.3,2.3c1.3.328,1.555-.018,1.149-1.3a3.163,3.163,0,0,0-2.642-2.179c-2.755-.6-5.537-1.025-8.33-1.395-1.048-.1-2.139-.044-2.985-.849a12.833,12.833,0,0,0,1.75-7.224,60.105,60.105,0,0,1,.347-9.756,82.077,82.077,0,0,0,8.353,1.088c11.547.622,22.279-2.242,32.428-7.592,3.284-1.731,4.792-1.415,7.115,1.456a15.11,15.11,0,0,1,3.495,9.675,29.209,29.209,0,0,1-.015,2.928,13.881,13.881,0,0,0,2.128,9.358,10.9,10.9,0,0,1,1.726,5.175,19.879,19.879,0,0,1,.156,8.973C2933.089,409.181,2932.919,410.248,2932.742,411.313Z" fill="#f8b98e"/>
    <path id="Path_2911" data-name="Path 2911" d="M2907.54,438.949a9.649,9.649,0,0,1,1.371,0c2.475.331,2.816.965,1.716,3.093a7.443,7.443,0,0,0-.579,1.246c-1.707,5.73-6.026,7.733-11.5,8.058-1.372.081-2.751.04-4.129.054a20.657,20.657,0,0,1-5.89-1.12,9.393,9.393,0,0,1-5.879-5.885,8.25,8.25,0,0,1-.309-.8c-.218-.939-1.394-1.859-.923-2.628.671-1.1,2.063-1.555,3.359-1.909a4.1,4.1,0,0,1,1.705-.084c2.829,1.744,5.73,2.938,9.1,1.47a3.637,3.637,0,0,1,2.877,0C2901.823,441.886,2904.734,440.788,2907.54,438.949Z" fill="#f8b98e"/>
    <path id="Path_2912" data-name="Path 2912" d="M2907.54,438.949c-.878,1.55-4.72,3.267-6.607,2.6a11.187,11.187,0,0,0-7.825,0c-1.811.644-5.744-1.085-6.625-2.582l1.381-.116a26.964,26.964,0,0,0,7.669-1.519,3.382,3.382,0,0,1,2.477-.164A29.585,29.585,0,0,0,2907.54,438.949Z" fill="#fbac6d"/>
    <path id="Path_2913" data-name="Path 2913" d="M2859.624,415.819c-.062-.393-.167-.8.285-1.051.111.347.421.636.3,1.049Z" fill="#7c5d62"/>
    <path id="Path_2914" data-name="Path 2914" d="M2875.792,394.037l3.086.42a15.609,15.609,0,0,1-.14,2.8c.033.936-.689.808-1.321.625h-2.667c-2.925-.272-5.071,1.326-7.186,3.139a6.534,6.534,0,0,1,4.988-6.6C2873.619,394.228,2874.712,394.164,2875.792,394.037Z" fill="#36365e"/>
    <path id="Path_2915" data-name="Path 2915" d="M2876.776,409.222c-.827.166-1.541-.328-2.328-.4-.619-.278-1.246-.539-1.856-.838-.477-.235-1.344.057-1.4-.673-.043-.561.674-.868,1.1-1.23.563-.477,1.184-.884,1.78-1.321.793-.089,1.389-.788,2.233-.717A26.46,26.46,0,0,0,2876.776,409.222Z" fill="#fdf3ec"/>
    <path id="Path_2916" data-name="Path 2916" d="M2887.237,425.649a1.112,1.112,0,0,0,.631-1.114,2.077,2.077,0,0,1,1.96-2.39c1.462-.218,3.019-1.26,4.431.442,1.585,1.91,3.748,1.816,5.417-.029,1.512-1.671,3.16-.594,4.778-.255a2.023,2.023,0,0,1,1.721,2.373,3.253,3.253,0,0,0,.276.969c-1.191.333-2.341.883-3.646.492-.613-.183-1.052.282-1.533.594a7.263,7.263,0,0,1-8.358.1,2.987,2.987,0,0,0-2.538-.618C2889.226,426.552,2888.327,425.592,2887.237,425.649Z" fill="#fbac6d"/>
    <path id="Path_2917" data-name="Path 2917" d="M2910.207,395.034a30.122,30.122,0,0,1,10.074-.589,6.205,6.205,0,0,1,5.1,6.562c-3.521-4.038-7.914-3.467-12.354-2.668-.336.06-.677.1-1.015.145C2910.289,397.92,2910.7,396.238,2910.207,395.034Z" fill="#41416b"/>
    <path id="Path_2918" data-name="Path 2918" d="M2877.417,397.887c.493-.107,1.258.077.9-.9a2.953,2.953,0,0,1,.566-2.526,68.883,68.883,0,0,1,8.819,1.466,4.057,4.057,0,0,1,2.932,4.133c-.128,1.056-.85.495-1.3.378q-4.5-1.165-9.053-2.091C2879.322,398.153,2878.3,398.443,2877.417,397.887Z" fill="#41416b"/>
    <path id="Path_2919" data-name="Path 2919" d="M2916.217,409.225c-1.853,1.139-3.885.7-5.87.671-2.038-1.159-2.682-2.98-1.717-4.846,1.546-1.847,5.524-2.338,8.2-1.01A3.462,3.462,0,0,1,2916.217,409.225Z" fill="#41416b"/>
    <path id="Path_2920" data-name="Path 2920" d="M2876.776,409.222a5.14,5.14,0,0,1-.473-5.177,8.094,8.094,0,0,1,8.118.685c.954,2.159.458,3.846-1.443,4.9A8.322,8.322,0,0,1,2876.776,409.222Z" fill="#41416b"/>
    <path id="Path_2921" data-name="Path 2921" d="M2910.207,395.034c.519.082.858.369.763.912a2.989,2.989,0,0,0,1.04,2.54l-8.6,2.112c-.829.2-1.143-.026-.958-.953.556-2.789,1.041-3.3,3.9-3.945A19.5,19.5,0,0,1,2910.207,395.034Z" fill="#36355e"/>
    <path id="Path_2922" data-name="Path 2922" d="M2882.978,409.636c1.517-1.33,1.725-3.044,1.443-4.9,2.076.848,3.529,2.646,6.114,3.578-2.525.6-4.481,1.079-6.44,1.54A1.052,1.052,0,0,1,2882.978,409.636Z" fill="#fcf2eb"/>
    <path id="Path_2923" data-name="Path 2923" d="M2908.632,405.05a5,5,0,0,0,1.716,4.847c-2.477.033-4.692-1.119-7.143-1.54C2905.154,407.379,2906.442,405.48,2908.632,405.05Z" fill="#fdf3eb"/>
    <path id="Path_2924" data-name="Path 2924" d="M2916.217,409.225a5.046,5.046,0,0,0,.611-5.185c1.99.226,3.331,1.578,4.779,2.75.425.344.44.808-.053.893C2919.715,408,2918.191,409.4,2916.217,409.225Z" fill="#fdf2eb"/>
    <path id="Path_2925" data-name="Path 2925" d="M2896.9,449.255a4.511,4.511,0,0,1-1.853-.294,1.814,1.814,0,0,1-1.287-2,1.742,1.742,0,0,1,1.566-1.78,14.119,14.119,0,0,1,3.268-.022,1.759,1.759,0,0,1,1.668,1.688,1.842,1.842,0,0,1-1.331,2.132A5.469,5.469,0,0,1,2896.9,449.255Z" fill="#fbac6d"/>
    <path id="Path_2926" data-name="Path 2926" d="M2914.437,406.461c.128,1.133-.643,1.619-1.618,1.688-1.052.074-1.444-.651-1.5-1.647a1.559,1.559,0,1,1,3.113-.041Z" fill="#35355e"/>
    <path id="Path_2927" data-name="Path 2927" d="M2882.018,406.567c-.339.883-.83,1.668-1.9,1.586a1.52,1.52,0,0,1-1.527-1.513,1.683,1.683,0,0,1,.012-.2,1.641,1.641,0,0,1,1.643-1.64,1.514,1.514,0,0,1,.165.008A1.872,1.872,0,0,1,2882.018,406.567Z" fill="#35355e"/>
  </g>
</svg>
