<svg xmlns="http://www.w3.org/2000/svg" width="28" height="38.67" viewBox="0 0 28 38.67">
  <g id="Group_2802" data-name="Group 2802" transform="translate(-14811.568 -12620.303)" opacity="0.8">
    <g id="Group_2801" data-name="Group 2801">
      <path id="Path_2744" data-name="Path 2744" d="M14825.271,12658.973a7.366,7.366,0,0,1-.966-.807,78.722,78.722,0,0,1-8.668-12.013,34.486,34.486,0,0,1-3.477-7.881,13.633,13.633,0,0,1,1.8-11.762,13.988,13.988,0,0,1,20.471-3.033,13.694,13.694,0,0,1,4.981,8.744,15.526,15.526,0,0,1-1.042,7.95,46.964,46.964,0,0,1-5.133,9.633,83.994,83.994,0,0,1-6.4,8.361,7.523,7.523,0,0,1-.966.807Zm.259-17.62a7.051,7.051,0,1,0-6.994-7.122A7.056,7.056,0,0,0,14825.53,12641.353Z" fill="#f77a23"/>
    </g>
  </g>
</svg>
