<svg xmlns="http://www.w3.org/2000/svg" width="57.06" height="68.382" viewBox="0 0 57.06 68.382">
  <g id="Group_156" data-name="Group 156" transform="translate(-932.175 -14346.417)">
    <path id="Path_116" data-name="Path 116" d="M947.226,14405.186a3.082,3.082,0,0,1-2.86,1.74c-2.981.018-5.963.026-8.945,0a3.123,3.123,0,0,1-3.2-3.758c.812-5,1.664-9.993,2.5-14.989q1.5-8.94,3.007-17.878l3.144-18.666c.1-.591.246-1.178.3-1.773a3.56,3.56,0,0,1,2.7-3.444h26.845a7.722,7.722,0,0,0,1.784.383,14.752,14.752,0,0,1,11.44,14.854c-.014.8-.1,1.6-.151,2.394-.321.091-.56-.1-.8-.256a13.129,13.129,0,0,0-7.18-1.945c-5.583-.028-11.166-.014-16.749,0a5.223,5.223,0,0,0-2.773.589,4.339,4.339,0,0,0-2.061,3.267c-.447,2.9-.986,5.788-1.465,8.685-.642,3.884-1.272,7.771-1.979,11.644a1.993,1.993,0,0,0-.009.463c-1.067,5.727-1.948,11.486-2.947,17.226a4.494,4.494,0,0,1-.191.844A1.057,1.057,0,0,1,947.226,14405.186Z" fill="#002986"/>
    <path id="Path_117" data-name="Path 117" d="M947.48,14404.646q1.467-8.678,2.926-17.356c.049-.294.2-.54.265-.818a2.42,2.42,0,0,1,1.58-1.75,4.481,4.481,0,0,1,2.075-.421c2.181,0,4.362.007,6.542,0a23.029,23.029,0,0,0,22.642-19.676c.03-.2-.005-.475.33-.479a11.748,11.748,0,0,1,5.139,7.939c1.061,6.818-1.227,12.579-6.063,17.376a19.673,19.673,0,0,1-9.983,5.256,20.94,20.94,0,0,1-5.568.424c-2.918-.167-5.038,1.641-5.489,4.843-.588,4.185-1.368,8.344-2.1,12.506a2.685,2.685,0,0,1-2.818,2.31q-3.873,0-7.746,0a2.866,2.866,0,0,1-2.881-3.521c.371-2.024.685-4.06,1.024-6.088C947.444,14405.02,947.375,14404.812,947.48,14404.646Z" fill="#0084cb"/>
    <path id="Path_118" data-name="Path 118" d="M983.84,14364.145c-.292.245-.118.583-.169.875a23.267,23.267,0,0,1-5.41,11.465,23.013,23.013,0,0,1-10.8,7.017,22.575,22.575,0,0,1-7.079,1c-2.067-.029-4.135-.006-6.2-.006a3.68,3.68,0,0,0-3.512,1.976,4.985,4.985,0,0,1,.231-2.121q.863-5.361,1.8-10.714c.518-2.979.927-5.979,1.585-8.935a4.092,4.092,0,0,1,3.212-2.929,13.422,13.422,0,0,1,2.121-.132c5.5,0,10.993-.024,16.49.016a12.98,12.98,0,0,1,6.144,1.477c.527.283,1.031.608,1.546.914A.106.106,0,0,1,983.84,14364.145Z" fill="#00186a"/>
    <path id="Path_119" data-name="Path 119" d="M947.48,14404.646c-.011.188.056.4-.131.542l-.061-.015-.062.013Z" fill="#568ac2"/>
  </g>
</svg>
