<svg xmlns="http://www.w3.org/2000/svg" xmlns:xlink="http://www.w3.org/1999/xlink" width="105" height="105" viewBox="0 0 105 105">
  <defs>
    <filter id="Ellipse_220" x="0" y="0" width="105" height="105" filterUnits="userSpaceOnUse">
      <feOffset dy="3" input="SourceAlpha"/>
      <feGaussianBlur stdDeviation="3" result="blur"/>
      <feFlood flood-opacity="0.161"/>
      <feComposite operator="in" in2="blur"/>
      <feComposite in="SourceGraphic"/>
    </filter>
    <clipPath id="clip-path">
      <rect id="Rectangle_10566" data-name="Rectangle 10566" width="47.394" height="42.677" fill="#fff"/>
    </clipPath>
  </defs>
  <g id="Group_11933" data-name="Group 11933" transform="translate(-1259.412 -298)">
    <g id="Group_11754" data-name="Group 11754" transform="translate(957 54)">
      <g transform="matrix(1, 0, 0, 1, 302.41, 244)" filter="url(#Ellipse_220)">
        <circle id="Ellipse_220-2" data-name="Ellipse 220" cx="43.5" cy="43.5" r="43.5" transform="translate(9 6)" fill="#f37521"/>
      </g>
    </g>
    <g id="Group_11791" data-name="Group 11791" transform="translate(1288.215 326.129)">
      <g id="Group_11790" data-name="Group 11790" clip-path="url(#clip-path)">
        <path id="Path_4733" data-name="Path 4733" d="M315,101.921a2.173,2.173,0,0,1-2.368,1.411c-2.034-.054-4.07-.015-6.106-.015-.123,0-.247,0-.37,0-.5-.016-.8-.286-.787-.71a.694.694,0,0,1,.775-.678c1.079-.009,2.158,0,3.238,0,1.187,0,2.375,0,3.562,0,.539,0,.665-.119.665-.641q0-12.882,0-25.765c0-.527-.115-.632-.67-.632q-3.261,0-6.522,0a2.13,2.13,0,0,1-.461-.019.654.654,0,0,1-.582-.717.645.645,0,0,1,.649-.65c.138-.013.277-.006.416-.006,2.066,0,4.134.041,6.2-.017A2.156,2.156,0,0,1,315,74.892Z" transform="translate(-267.61 -64.388)" fill="#fff"/>
        <path id="Path_4734" data-name="Path 4734" d="M113.749,99.894q0,7.242,0,14.484a1.916,1.916,0,0,1-2.189,2.18q-10.527,0-21.055,0a1.916,1.916,0,0,1-2.2-2.207q0-6.062,0-12.124a2.657,2.657,0,0,1,.012-.462.689.689,0,0,1,1.365,0,2.83,2.83,0,0,1,.012.462q0,6.039,0,12.078c0,.79.062.855.831.855h21.009c.746,0,.826-.08.826-.819q0-14.438,0-28.875c0-.17-.008-.34.006-.509a.685.685,0,0,1,1.355-.1,2.183,2.183,0,0,1,.028.506q0,7.265,0,14.53" transform="translate(-77.38 -73.882)" fill="#fff"/>
        <path id="Path_4735" data-name="Path 4735" d="M126.576,81.882q3.471,0,6.942,0a1.961,1.961,0,0,1,2.164,2.183q0,4.443,0,8.886a1.971,1.971,0,0,1-2.155,2.157q-3.8,0-7.59,0a1.765,1.765,0,0,1-.5-.049.679.679,0,0,1,.134-1.327c.245-.019.493-.01.74-.01h7.081c.752,0,.9-.147.9-.88q0-4.374,0-8.747c0-.667-.152-.822-.809-.822q-6.919,0-13.838,0c-.672,0-.814.142-.814.812q0,4.42,0,8.84c0,.625.167.794.793.8.972,0,1.944,0,2.916,0,.5,0,.818.267.824.675a.714.714,0,0,1-.8.708c-1.064.01-2.129.023-3.193,0a1.915,1.915,0,0,1-1.925-2q-.01-4.605,0-9.21a1.906,1.906,0,0,1,2.007-2.006c2.376-.007,4.752,0,7.127,0" transform="translate(-102.915 -71.755)" fill="#fff"/>
        <path id="Path_4736" data-name="Path 4736" d="M0,88.524q0-6.41,0-12.819a1.853,1.853,0,0,1,2.072-2.086q3.24,0,6.479,0c.077,0,.154,0,.231,0a.705.705,0,0,1,.746.661.7.7,0,0,1-.736.724c-.771.018-1.543.006-2.314.006q-2.221,0-4.443,0c-.535,0-.645.112-.645.657q0,12.866,0,25.731c0,.531.121.649.656.65q3.216,0,6.433,0a2.2,2.2,0,0,1,.461.017.689.689,0,0,1-.029,1.365,2.5,2.5,0,0,1-.37.01q-3.24,0-6.479,0A1.85,1.85,0,0,1,0,101.39q0-6.433,0-12.865" transform="translate(0 -64.514)" fill="#fff"/>
        <path id="Path_4737" data-name="Path 4737" d="M88.315,53.684q0-4.3,0-8.606a1.866,1.866,0,0,1,2.052-2.07h14.621a2.227,2.227,0,0,1,.369.009.689.689,0,0,1,0,1.366,2.608,2.608,0,0,1-.462.012H90.51c-.712,0-.8.091-.8.791q0,8.537,0,17.073c0,.154.009.309-.005.462a.691.691,0,0,1-1.381-.016c-.011-.122,0-.247,0-.37q0-4.326,0-8.652" transform="translate(-77.392 -37.686)" fill="#fff"/>
        <path id="Path_4738" data-name="Path 4738" d="M136.5,265.239q2.938,0,5.875,0a1.68,1.68,0,0,1,1.835,1.8q.013,1.087,0,2.174a1.677,1.677,0,0,1-1.789,1.8c-.756.009-1.511.008-2.267,0-.5-.006-.814-.284-.81-.692s.321-.688.819-.7c.709-.012,1.419-.017,2.128,0,.369.01.542-.11.533-.5-.016-.678-.009-1.357,0-2.035,0-.33-.134-.466-.473-.465q-5.852.01-11.7,0c-.37,0-.487.158-.48.5.013.663.017,1.327,0,1.989-.011.384.145.51.521.508,2.02-.012,4.04-.008,6.06,0,.2,0,.457-.025.578.084a1.038,1.038,0,0,1,.4.68c-.02.217-.31.429-.518.6-.086.07-.268.028-.407.028q-3.053,0-6.107,0a1.7,1.7,0,0,1-1.912-1.906c0-.709-.008-1.419,0-2.128a1.657,1.657,0,0,1,1.751-1.736c1.989-.006,3.979,0,5.968,0" transform="translate(-112.852 -232.438)" fill="#fff"/>
        <path id="Path_4739" data-name="Path 4739" d="M245.6,9.141a4.571,4.571,0,1,1,4.6-4.526,4.573,4.573,0,0,1-4.6,4.526m.009-1.393a3.177,3.177,0,1,0-3.176-3.174,3.183,3.183,0,0,0,3.176,3.174" transform="translate(-211.237 0.001)" fill="#fff"/>
        <path id="Path_4740" data-name="Path 4740" d="M310.49,105.722h-1.858c-.8,0-1.6,0-2.406,0-.543,0-.85-.263-.849-.7s.305-.685.854-.686c1.434,0,2.869-.006,4.3,0a1.239,1.239,0,0,1,1.365,1.3q.034,3.215,0,6.431a1.218,1.218,0,0,1-1.28,1.3c-1.5.032-2.992.021-4.488.007a.7.7,0,1,1,.012-1.384c1.3-.013,2.591-.019,3.886,0,.381.006.5-.1.5-.49-.019-1.774-.008-3.547-.01-5.321,0-.135-.015-.271-.026-.458" transform="translate(-267.613 -91.43)" fill="#fff"/>
        <path id="Path_4741" data-name="Path 4741" d="M25.523,111.99h.52c1.249,0,2.5,0,3.746,0,.544,0,.858.27.857.693s-.318.7-.859.7c-1.418.008-2.837.014-4.255,0a1.3,1.3,0,0,1-1.429-1.447q-.013-3.075,0-6.151a1.3,1.3,0,0,1,1.467-1.444q2.081,0,4.162,0c.585,0,.908.243.914.677.007.453-.327.709-.937.71q-1.827,0-3.653,0h-.532Z" transform="translate(-21.117 -91.436)" fill="#fff"/>
        <path id="Path_4742" data-name="Path 4742" d="M310.489,232.14v-2.951h-.524c-1.263,0-2.527.005-3.79,0-.5,0-.8-.28-.8-.7s.3-.679.81-.681c1.433,0,2.866-.008,4.3,0a1.322,1.322,0,0,1,1.416,1.376q.036,1.478,0,2.958a1.341,1.341,0,0,1-1.419,1.385c-1.433.015-2.866.01-4.3,0-.514,0-.805-.271-.807-.695s.288-.685.8-.688c1.263-.006,2.527,0,3.79,0h.52" transform="translate(-267.613 -199.628)" fill="#fff"/>
        <path id="Path_4743" data-name="Path 4743" d="M25.475,229.192v2.925c.18.009.343.024.506.024,1.249,0,2.5,0,3.747,0,.555,0,.867.241.881.662.015.44-.315.721-.88.723-1.388.005-2.775.008-4.163,0a1.375,1.375,0,0,1-1.5-1.459q-.027-1.41,0-2.821a1.345,1.345,0,0,1,1.453-1.442c1.419-.008,2.837,0,4.256,0,.511,0,.819.256.832.665.013.43-.307.717-.835.719-1.249.006-2.5,0-3.747,0h-.552" transform="translate(-21.08 -199.631)" fill="#fff"/>
        <path id="Path_4744" data-name="Path 4744" d="M138.766,238.266h-6.474a2.443,2.443,0,0,1-.415-.01.689.689,0,0,1-.009-1.366,2.4,2.4,0,0,1,.415-.012h12.993c.092,0,.185,0,.277,0a.709.709,0,0,1,.748.712.7.7,0,0,1-.739.672c-.431.012-.863,0-1.295,0h-5.5" transform="translate(-115.042 -207.583)" fill="#fff"/>
        <path id="Path_4745" data-name="Path 4745" d="M138.709,209.923q-3.329,0-6.658,0c-.526,0-.861-.29-.824-.716a.683.683,0,0,1,.609-.656,2.366,2.366,0,0,1,.415-.014h12.992c.077,0,.154,0,.231,0a.732.732,0,0,1,.783.684c.011.414-.3.7-.8.7q-3.375.007-6.75,0" transform="translate(-114.997 -182.746)" fill="#fff"/>
        <path id="Path_4746" data-name="Path 4746" d="M307.811,194.909c.553,0,1.107-.006,1.661,0a.7.7,0,1,1,.008,1.386q-1.66.016-3.321,0a.7.7,0,0,1-.782-.716.69.69,0,0,1,.774-.67c.553-.008,1.107,0,1.661,0" transform="translate(-267.614 -170.804)" fill="#fff"/>
        <path id="Path_4747" data-name="Path 4747" d="M41.974,194.907c.524,0,1.049-.008,1.573,0a.693.693,0,1,1,.008,1.382q-1.573.022-3.146,0a.688.688,0,0,1-.74-.714.7.7,0,0,1,.779-.67c.509-.008,1.018,0,1.527,0" transform="translate(-34.762 -170.802)" fill="#fff"/>
      </g>
    </g>
  </g>
</svg>
