<svg xmlns="http://www.w3.org/2000/svg" width="30" height="34.138" viewBox="0 0 30 34.138">
  <g id="Group_3310" data-name="Group 3310" transform="translate(-476.853 -3056.129)">
    <g id="Group_3309" data-name="Group 3309">
      <path id="Path_3193" data-name="Path 3193" d="M492.513,3056.129c.793.149,1.6.242,2.377.458a11.033,11.033,0,0,1,6.286,16.41c-1.125,1.81-2.294,3.593-3.443,5.388-.053.083-.1.17-.17.293.352.065.676.12,1,.186a19.606,19.606,0,0,1,5.482,1.792,5.582,5.582,0,0,1,2.37,2.082,2.922,2.922,0,0,1-.206,3.373,6.306,6.306,0,0,1-2.387,1.875,20.4,20.4,0,0,1-6.066,1.809,37.557,37.557,0,0,1-10,.254,24.089,24.089,0,0,1-7.341-1.8,7.323,7.323,0,0,1-2.74-1.9,3.11,3.11,0,0,1,.246-4.456,9.139,9.139,0,0,1,3.144-1.893,24.247,24.247,0,0,1,4.783-1.271c.084-.014.166-.039.284-.068-.082-.13-.144-.231-.209-.332-1.143-1.786-2.308-3.558-3.423-5.361a10.509,10.509,0,0,1-1.489-7.57,10.9,10.9,0,0,1,6.537-8.377,9.779,9.779,0,0,1,3.373-.843,1.856,1.856,0,0,0,.257-.052Zm-.665,27.748c.084-.124.153-.22.217-.32q3.6-5.641,7.2-11.283a8.768,8.768,0,0,0,.574-9.17,8.5,8.5,0,0,0-7.1-4.9,8.656,8.656,0,0,0-8.186,3.7,9.039,9.039,0,0,0-.353,10.038q3.717,5.825,7.442,11.645C491.7,3083.675,491.767,3083.761,491.848,3083.877Zm-.014,4.316c.755,0,1.511.034,2.264-.007a26.367,26.367,0,0,0,7.119-1.269,8.461,8.461,0,0,0,3.012-1.585,1.224,1.224,0,0,0,.043-2.089,6.912,6.912,0,0,0-2.182-1.315,21.331,21.331,0,0,0-5.54-1.356.434.434,0,0,0-.321.189c-.465.7-.914,1.418-1.367,2.129-.7,1.1-1.4,2.188-2.091,3.286a1.04,1.04,0,0,1-1.111.558,1.114,1.114,0,0,1-.759-.593q-1.7-2.67-3.395-5.337c-.118-.187-.22-.287-.472-.231-.465.1-.943.14-1.412.227a15.827,15.827,0,0,0-5.068,1.648,6.476,6.476,0,0,0-1.377,1.08,1,1,0,0,0,0,1.491,4.163,4.163,0,0,0,.736.668,11.258,11.258,0,0,0,3.458,1.511A28.921,28.921,0,0,0,491.834,3088.193Z" fill="#8a8a8a"/>
      <path id="Path_3194" data-name="Path 3194" d="M491.851,3072.2a5,5,0,1,1,4.995-5.012A5.015,5.015,0,0,1,491.851,3072.2Zm-.018-8a3,3,0,1,0,3.011,2.975A3.025,3.025,0,0,0,491.833,3064.2Z" fill="#8a8a8a"/>
    </g>
  </g>
</svg>
