<svg xmlns="http://www.w3.org/2000/svg" width="48.68" height="48.677" viewBox="0 0 48.68 48.677">
  <g id="Group_2611" data-name="Group 2611" transform="translate(-14043.702 -2046.103)" opacity="0.8">
    <path id="Path_2550" data-name="Path 2550" d="M14043.7,2085.937a3.268,3.268,0,0,1,1.786-2.378,4.211,4.211,0,0,1,1.6-.364q9.27-.038,18.542-.013a3.234,3.234,0,0,1,1.73,6.038.537.537,0,0,0-.252.342c-.021,1.089-.013,2.178-.013,3.292h10.044v-12.279c-.213.156-.394.3-.586.427a7.843,7.843,0,0,1-8.786.374,7.762,7.762,0,0,1-4-8.042,12.54,12.54,0,0,1,.777-2.621.585.585,0,0,0-.064-.671,9.376,9.376,0,0,1,4.806-15c.592-.166,1.209-.238,1.862-.363a6.4,6.4,0,0,1,1.363-6.5,6.086,6.086,0,0,1,4.3-2.063,6.205,6.205,0,0,1,5.275,2.22,6.4,6.4,0,0,1,1.453,5.482,9.9,9.9,0,0,1,6.682,15.117,8.037,8.037,0,0,1,2.125,6.308,7.938,7.938,0,0,1-2.339,4.921,8.128,8.128,0,0,1-10.9.468v12.246c.99,0,1.969,0,2.946,0,.189,0,.425-.04.558.054.265.189.606.427.668.7s-.166.62-.3.92c-.044.1-.189.151-.289.225h-22.441c-.611-.369-.795-.707-.66-1.214.122-.463.515-.685,1.213-.688h.554v-3.21h-10.045c0,1.27-.02,2.518.01,3.765a1.336,1.336,0,0,1-.676,1.347h-4.374a1.337,1.337,0,0,1-.674-1.344c.029-1.233.015-2.467,0-3.7,0-.154-.047-.393-.148-.447a3.689,3.689,0,0,1-1.746-2.306Zm35.373-15.393c1.335-1.338,2.575-2.582,3.815-3.824.624-.624,1.154-.706,1.6-.254s.36.983-.261,1.6c-1.625,1.625-3.254,3.245-4.868,4.881a.977.977,0,0,0-.278.6c-.026,1.267-.019,2.535-.006,3.8a1.014,1.014,0,0,0,.159.522,6.14,6.14,0,1,0,9.359-7.844c-.765-.742-.786-1.024-.156-1.91l.027-.038a7.941,7.941,0,0,0-1-10.247,8.081,8.081,0,0,0-5.17-2.212c-.8-.058-1.125-.589-.908-1.361a8.923,8.923,0,0,0,.289-1.145,4.48,4.48,0,0,0-2.07-4.429,4.532,4.532,0,0,0-5.014.164,4.451,4.451,0,0,0-1.737,4.74,9.718,9.718,0,0,0,.732,1.634.937.937,0,0,1-.854,1.426c-.222,0-.444-.01-.665-.023a7.477,7.477,0,0,0-5.877,12.5c.823.881.844,1.033.265,2.019a6.259,6.259,0,0,0,9.7,7.726,2.44,2.44,0,0,0,1.021-2.35c-.035-.167.029-.356-.013-.52a1.458,1.458,0,0,0-.271-.653c-.923-.958-1.887-1.877-2.8-2.84a.538.538,0,0,0-.8-.1c-.846.495-1.712.958-2.58,1.415a.945.945,0,1,1-.953-1.631c.318-.207.662-.372,1-.555l1.635-.9c-.528-.5-1.016-.937-1.462-1.406a.877.877,0,0,1-.115-1.135.843.843,0,0,1,1.021-.405,1.743,1.743,0,0,1,.654.445c1.431,1.415,2.85,2.841,4.273,4.263.114.114.234.223.416.4,0-2.031,0-3.947-.01-5.864a.732.732,0,0,0-.221-.437c-.573-.593-1.167-1.164-1.743-1.753a.971.971,0,0,1-.114-1.47,1,1,0,0,1,1.472.138c.185.176.364.357.616.6,0-.842,0-1.554,0-2.266s.367-1.123.951-1.121.944.418.947,1.126c.006,1.283,0,2.567,0,3.85Zm-22.774,17.2h6.367c1.029,0,2.059.012,3.088-.006a1.321,1.321,0,0,0,1.334-1.325,1.338,1.338,0,0,0-1.333-1.329c-.126-.006-.253,0-.38,0h-18.056a4.412,4.412,0,0,0-.476.008,1.292,1.292,0,0,0-1.148.86,1.331,1.331,0,0,0,1.386,1.792Q14051.693,2087.75,14056.3,2087.743Zm-8.773,5.109h1.851v-3.173h-1.851Zm17.626.007v-3.187h-1.832v3.187Z"/>
    <path id="Path_2551" data-name="Path 2551" d="M14086.112,2094.78a1.012,1.012,0,0,1-.746-1.027.935.935,0,0,1,1.8-.275.908.908,0,0,1-.345,1.12c-.1.07-.22.122-.329.182Z"/>
    <path id="Path_2552" data-name="Path 2552" d="M14049.81,2063.433a3.82,3.82,0,0,1,2.459-1.119,4.964,4.964,0,0,1,1.312.137.893.893,0,0,1,.72,1.06.908.908,0,0,1-1.074.76,4.95,4.95,0,0,0-.8-.068,1.87,1.87,0,0,0-1.676,1.273.988.988,0,0,1-.937.743,1,1,0,0,1-.949-.73,1.886,1.886,0,0,0-2.227-1.25,1.728,1.728,0,0,1-.829-.064.832.832,0,0,1-.5-.934.891.891,0,0,1,.713-.795,3.772,3.772,0,0,1,3.44.7C14049.576,2063.232,14049.681,2063.326,14049.81,2063.433Z"/>
    <path id="Path_2553" data-name="Path 2553" d="M14055.912,2056.389a3.849,3.849,0,0,1,3.639-.984.941.941,0,1,1-.344,1.847,1.94,1.94,0,0,0-2.445,1.332.948.948,0,0,1-1.785-.015,1.941,1.941,0,0,0-2.454-1.314.94.94,0,1,1-.356-1.844,3.782,3.782,0,0,1,3.424.776c.073.06.149.118.225.174A.462.462,0,0,0,14055.912,2056.389Z"/>
    <path id="Path_2554" data-name="Path 2554" d="M14066.176,2064.067a5.6,5.6,0,0,1,1.424-3.675.955.955,0,0,1,1.388-.2.929.929,0,0,1,.081,1.389,4.373,4.373,0,0,0-1.007,2.506.907.907,0,0,1-1.015.943A.923.923,0,0,1,14066.176,2064.067Z"/>
    <path id="Path_2555" data-name="Path 2555" d="M14072.687,2059.471a.984.984,0,0,1-.921.961.966.966,0,0,1-.966-.908.938.938,0,0,1,.936-.975A.962.962,0,0,1,14072.687,2059.471Z"/>
  </g>
</svg>
