<svg xmlns="http://www.w3.org/2000/svg" xmlns:xlink="http://www.w3.org/1999/xlink" width="85" height="85" viewBox="0 0 85 85">
  <defs>
    <filter id="Ellipse_218" x="0" y="0" width="85" height="85" filterUnits="userSpaceOnUse">
      <feOffset dy="1" input="SourceAlpha"/>
      <feGaussianBlur stdDeviation="2.5" result="blur"/>
      <feFlood flood-opacity="0.161"/>
      <feComposite operator="in" in2="blur"/>
      <feComposite in="SourceGraphic"/>
    </filter>
  </defs>
  <g id="Group_11843" data-name="Group 11843" transform="translate(-1528.833 -300.325)">
    <g transform="matrix(1, 0, 0, 1, 1528.83, 300.33)" filter="url(#Ellipse_218)">
      <circle id="Ellipse_218-2" data-name="Ellipse 218" cx="35" cy="35" r="35" transform="translate(7.5 6.5)" fill="#fff"/>
    </g>
    <path id="Path_19612" data-name="Path 19612" d="M400.87,15.479V26.431a1.305,1.305,0,0,0-.075.216,5.919,5.919,0,0,1-5.082,4.952c-.623.083-1.258.07-1.919.1,0,.154,0,.3,0,.439,0,1.665.013,3.33-.006,4.995a3.541,3.541,0,0,1-2.377,3.29c-.234.083-.478.141-.718.21H370.339a.853.853,0,0,0-.144-.061,3.557,3.557,0,0,1-2.956-3.677q0-2.4,0-4.8v-.433c-.416,0-.773,0-1.13,0a5.978,5.978,0,0,1-5.751-4.44c-.071-.264-.131-.532-.2-.8V15.479a1.332,1.332,0,0,0,.074-.217,5.919,5.919,0,0,1,5.087-4.953c.622-.083,1.258-.07,1.916-.1,0-1.4,0-2.786,0-4.172A5.949,5.949,0,0,1,373.284,0Q380.516,0,387.748,0a5.951,5.951,0,0,1,6.045,6.031c0,1.256,0,2.512,0,3.768v.438c.427,0,.8,0,1.166,0a5.955,5.955,0,0,1,5.689,4.364c.081.289.148.582.222.872m-7.058,13.809c.376,0,.707,0,1.038,0a3.567,3.567,0,0,0,3.632-3.616q.017-4.721,0-9.442a3.549,3.549,0,0,0-3.6-3.6q-14.367-.011-28.735,0a3.55,3.55,0,0,0-3.6,3.608q-.016,4.721.006,9.441a3.906,3.906,0,0,0,.2,1.2,3.789,3.789,0,0,0,4.456,2.365V25.318c-.263,0-.5.011-.737,0a1.186,1.186,0,0,1-.183-2.35,2.61,2.61,0,0,1,.514-.026h27.423c.093,0,.186,0,.278,0a1.189,1.189,0,1,1,.008,2.378c-.233.009-.466,0-.7,0Zm-24.188-3.953v.425q0,5.553,0,11.106a1.227,1.227,0,0,0,1.389,1.389h18.994a1.235,1.235,0,0,0,1.4-1.417q0-5.553,0-11.106c0-.128-.011-.256-.018-.4Zm.064-15.122h21.721c0-1.375,0-2.722,0-4.068a3.579,3.579,0,0,0-3.766-3.76q-3.456,0-6.913,0c-2.516,0-5.032-.01-7.548,0a3.4,3.4,0,0,0-3.461,2.941c-.151,1.608-.032,3.24-.032,4.884" transform="translate(1190.817 321.507)" opacity="0.75"/>
  </g>
</svg>
