<svg xmlns="http://www.w3.org/2000/svg" xmlns:xlink="http://www.w3.org/1999/xlink" width="24.766" height="23.533" viewBox="0 0 24.766 23.533">
  <defs>
    <clipPath id="clip-path">
      <rect id="Rectangle_1510" data-name="Rectangle 1510" width="24.766" height="23.533" fill="none"/>
    </clipPath>
  </defs>
  <g id="Group_11677" data-name="Group 11677" opacity="0.8">
    <g id="Group_2702" data-name="Group 2702" transform="translate(0)">
      <g id="Group_2701" data-name="Group 2701" clip-path="url(#clip-path)">
        <g id="Group_11676" data-name="Group 11676" transform="translate(-0.005 0.002)">
          <path id="Path_4735" data-name="Path 4735" d="M11968.884,1457.56a3.6,3.6,0,0,1-.238.5,1.263,1.263,0,0,1-1.149.549h-1.663v9.955c0,.652-.253.907-.9.907h-5.75c-.634,0-.889-.26-.889-.9v-5.964h-3.579v5.983c0,.619-.265.878-.885.878h-5.777c-.62,0-.885-.265-.885-.877V1458.6h-1.1c-.257,0-.517.006-.772-.014a1.187,1.187,0,0,1-1.089-.823,1.172,1.172,0,0,1,.3-1.332c.6-.573,1.221-1.124,1.834-1.68l9.188-8.375a1.3,1.3,0,0,1,1.827-.119,1.316,1.316,0,0,1,.119.119l2.408,2.2v-.394a.709.709,0,0,1,.681-.733h.053q2.5-.008,5,0a.707.707,0,0,1,.752.661.643.643,0,0,1,0,.13v6a.507.507,0,0,0,.2.432c.589.524,1.163,1.067,1.757,1.592a1.983,1.983,0,0,1,.563.823Zm-4.5,10.444V1458a.748.748,0,0,1,.842-.852c.53-.005,1.061,0,1.593,0,.076,0,.153-.007.229-.01l.043-.066a1.365,1.365,0,0,1-.177-.116c-.549-.5-1.09-1-1.646-1.494a.991.991,0,0,1-.354-.8c.008-1.82,0-3.641,0-5.463v-.279h-3.573c0,.4-.007.783,0,1.167a.76.76,0,0,1-.428.8.773.773,0,0,1-.9-.213q-1.591-1.462-3.2-2.919l-.314-.284-10.6,9.668c.136.007.212.014.288.015h1.522c.664,0,.916.255.916.924V1468h4.637v-5.977c0-.619.259-.885.874-.885h4.738c.619,0,.875.265.875.885V1468Z" transform="translate(-11944.113 -1445.938)"/>
        </g>
      </g>
    </g>
  </g>
</svg>
