<svg xmlns="http://www.w3.org/2000/svg" width="50" height="41.987" viewBox="0 0 50 41.987">
  <g id="Group_1094" data-name="Group 1094" transform="translate(-13766.421 -8462.493)" opacity="0.8">
    <path id="Path_980" data-name="Path 980" d="M13766.421,8473.714a15.142,15.142,0,0,1,1.141-2.543,5.439,5.439,0,0,1,4.7-2.433q13.254-.015,26.508,0h.685c-.23-.1-.328-.159-.435-.192q-5.093-1.569-10.188-3.134a1.482,1.482,0,1,1,.847-2.82q9.746,2.993,19.49,5.983a3.653,3.653,0,0,0,1.193.153,5.893,5.893,0,0,1,6.012,5.032,5.3,5.3,0,0,1,.05.777q0,12.06,0,24.12a5.837,5.837,0,0,1-5.841,5.824q-19.088.006-38.174,0a5.851,5.851,0,0,1-5.887-4.769,1.054,1.054,0,0,0-.1-.212Zm2.928,7.34v.533q0,8.375,0,16.748a2.977,2.977,0,0,0,3.229,3.218h37.688a2.979,2.979,0,0,0,3.229-3.219q0-8.373,0-16.748v-.532Zm44.136-2.961c0-1.265.023-2.482-.011-3.7a2.682,2.682,0,0,0-.719-1.723,3.123,3.123,0,0,0-2.488-1.011q-18.842.007-37.686,0c-.13,0-.261,0-.39,0a2.781,2.781,0,0,0-2.709,2.2c-.178,1.389-.13,2.807-.179,4.212h8.937c0-.538,0-1.041,0-1.544a1.464,1.464,0,1,1,2.924,0c0,.514,0,1.028,0,1.56Z"/>
    <path id="Path_981" data-name="Path 981" d="M13786.635,8491.288a6.932,6.932,0,1,1-6.9-6.925A6.917,6.917,0,0,1,13786.635,8491.288Zm-2.929,0a4,4,0,1,0-4,4.017A4.042,4.042,0,0,0,13783.706,8491.283Z"/>
    <path id="Path_982" data-name="Path 982" d="M13800.852,8485.925q3.806,0,7.61,0a1.47,1.47,0,1,1-.014,2.925q-7.658,0-15.316,0a1.47,1.47,0,1,1,.013-2.925Q13797,8485.923,13800.852,8485.925Z"/>
    <path id="Path_983" data-name="Path 983" d="M13800.8,8496.666h-7.658a1.47,1.47,0,1,1-.011-2.926h15.317a1.47,1.47,0,1,1,.01,2.925Q13804.632,8496.668,13800.8,8496.666Z"/>
  </g>
</svg>
