<svg xmlns="http://www.w3.org/2000/svg" width="48.68" height="53.051" viewBox="0 0 48.68 53.051">
  <g id="Group_2586" data-name="Group 2586" transform="translate(-14487.119 -1327.181)" opacity="0.8">
    <path id="Path_2500" data-name="Path 2500" d="M14496.847,1380.232a1.328,1.328,0,0,1-.864-1.428c.031-.978.008-1.957.008-3-1.043,0-2.024.035-3-.012a8.213,8.213,0,0,1-2.086-.3,5.4,5.4,0,0,1-3.76-5.227q-.045-9.921,0-19.842a5.436,5.436,0,0,1,5.609-5.552q18.7-.025,37.405,0a5.436,5.436,0,0,1,5.608,5.552q.06,9.894,0,19.79a5.479,5.479,0,0,1-5.64,5.583c-1.048.013-2.1,0-3.208,0,0,1.044-.023,2.023.008,3a1.328,1.328,0,0,1-.863,1.428h-.52a1.426,1.426,0,0,1-.836-1.506c.031-.958.007-1.919.007-2.883h-26.527c0,.987-.023,1.936.008,2.883a1.428,1.428,0,0,1-.837,1.506Zm14.663-33.16h-18.5a3.342,3.342,0,0,0-3.652,3.627q-.006,9.636,0,19.274a4.408,4.408,0,0,0,.1,1.077,3.307,3.307,0,0,0,3.5,2.55h36.994a3.334,3.334,0,0,0,3.6-3.627q.006-9.638,0-19.274a4.4,4.4,0,0,0-.1-1.077,3.3,3.3,0,0,0-3.446-2.549Q14520.758,1347.068,14511.51,1347.072Z"/>
    <path id="Path_2501" data-name="Path 2501" d="M14520.447,1342.737a1.2,1.2,0,0,1-1.107-1.572,3.4,3.4,0,0,1,.307-.6,3.941,3.941,0,0,0,.2-3.948c-.478-1.05-1-2.089-1.374-3.176a6.165,6.165,0,0,1,.953-5.741,1.075,1.075,0,0,1,1.5-.352,1.087,1.087,0,0,1,.38,1.453c-.154.327-.358.63-.518.954a4.144,4.144,0,0,0,.021,3.694c.461,1.02.963,2.027,1.343,3.078a5.905,5.905,0,0,1-.875,5.593A3.253,3.253,0,0,1,14520.447,1342.737Z"/>
    <path id="Path_2502" data-name="Path 2502" d="M14504.948,1338.335a6.93,6.93,0,0,1-1.314,3.838,1.07,1.07,0,0,1-1.426.327,1.085,1.085,0,0,1-.46-1.387,4.279,4.279,0,0,1,.31-.6,3.885,3.885,0,0,0,.192-3.854c-.468-1.035-.975-2.059-1.361-3.125a6.169,6.169,0,0,1,.894-5.8,1.086,1.086,0,0,1,1.529-.39,1.108,1.108,0,0,1,.36,1.5,14.548,14.548,0,0,0-.795,1.731,3.965,3.965,0,0,0,.319,2.866c.444.99.922,1.968,1.306,2.981A14.115,14.115,0,0,1,14504.948,1338.335Z"/>
    <path id="Path_2503" data-name="Path 2503" d="M14512.634,1328.411a3.6,3.6,0,0,1-.291.679,4.475,4.475,0,0,0-.2,4.709,19.864,19.864,0,0,1,1.4,3.6,5.685,5.685,0,0,1-1.114,4.786,1.068,1.068,0,0,1-1.428.314,1.1,1.1,0,0,1-.449-1.392,3.852,3.852,0,0,1,.289-.549,3.936,3.936,0,0,0,.187-3.948c-.479-1.05-1-2.089-1.373-3.176a6.175,6.175,0,0,1,.966-5.74,1.038,1.038,0,0,1,1.267-.434A1.11,1.11,0,0,1,14512.634,1328.411Z"/>
    <path id="Path_2504" data-name="Path 2504" d="M14493.765,1360.279q0-4.712,0-9.423c0-1.024.377-1.556,1.1-1.565s1.122.533,1.123,1.546v19c0,1.009-.4,1.55-1.13,1.537-.714-.013-1.1-.539-1.1-1.518Q14493.763,1365.069,14493.765,1360.279Z"/>
    <path id="Path_2505" data-name="Path 2505" d="M14500.4,1360.338q0-4.815,0-9.631c0-.816.292-1.252.893-1.375a1.035,1.035,0,0,1,1.257.781,3.156,3.156,0,0,1,.072.717q.006,9.5,0,19c0,1.013-.395,1.551-1.123,1.543s-1.1-.539-1.1-1.563Q14500.4,1365.076,14500.4,1360.338Z"/>
    <path id="Path_2506" data-name="Path 2506" d="M14507.029,1360.31q0-4.739,0-9.475c0-1.012.4-1.553,1.124-1.544s1.1.539,1.1,1.516q0,9.552,0,19.1c0,.807-.258,1.257-.793,1.409a1.055,1.055,0,0,1-1.369-.818,3.6,3.6,0,0,1-.06-.718Q14507.026,1365.048,14507.029,1360.31Z"/>
    <path id="Path_2507" data-name="Path 2507" d="M14515.887,1360.392q0,4.711,0,9.423a3.435,3.435,0,0,1-.075.769,1.061,1.061,0,0,1-1.026.792,1.074,1.074,0,0,1-1.041-.777,3.034,3.034,0,0,1-.077-.716q-.006-9.554,0-19.107c0-.871.27-1.309.876-1.441a1.035,1.035,0,0,1,1.281.811,3.54,3.54,0,0,1,.065.718Q14515.891,1355.628,14515.887,1360.392Z"/>
    <path id="Path_2508" data-name="Path 2508" d="M14520.293,1360.28v-9.423c0-1.024.378-1.557,1.1-1.566s1.121.533,1.121,1.545q0,9.5,0,19c0,1.011-.4,1.55-1.128,1.538-.714-.012-1.1-.539-1.1-1.517Q14520.292,1365.07,14520.293,1360.28Z"/>
    <path id="Path_2509" data-name="Path 2509" d="M14529.152,1360.393q0,4.712,0,9.423c0,1.023-.378,1.554-1.105,1.56s-1.12-.531-1.12-1.546q0-9.5,0-19c0-1.006.405-1.552,1.132-1.536s1.094.543,1.094,1.523Q14529.153,1355.6,14529.152,1360.393Z"/>
  </g>
</svg>
