<svg xmlns="http://www.w3.org/2000/svg" width="48.681" height="42.228" viewBox="0 0 48.681 42.228">
  <g id="Group_2612" data-name="Group 2612" transform="translate(-14190.968 -2049.327)" opacity="0.8">
    <path id="Path_2556" data-name="Path 2556" d="M14190.968,2061.012a3.223,3.223,0,0,1,1.988-1.936q10.23-4.625,20.436-9.3a4.368,4.368,0,0,1,3.807-.016q10.452,4.768,20.908,9.527a2.359,2.359,0,0,1-.007,4.428c-2.032.918-4.056,1.86-6.1,2.763a.678.678,0,0,0-.459.748c.012,3.313-.03,6.626.021,9.938a5.693,5.693,0,0,1-2.059,4.554,14.277,14.277,0,0,1-6.052,3.052,29.408,29.408,0,0,1-19.184-1.059c-.071-.029-.146-.049-.312-.106,0,.5-.024.949.018,1.392.011.106.23.22.374.28a3.242,3.242,0,0,1,.895,5.473,3.233,3.233,0,1,1-3.386-5.421.637.637,0,0,0,.473-.724c-.031-.521-.022-1.046,0-1.568a.7.7,0,0,0-.317-.629,14.939,14.939,0,0,1-1.525-1.352,5.1,5.1,0,0,1-1.421-3.667c.021-3.408,0-6.816.015-10.224a.62.62,0,0,0-.428-.673c-1.908-.849-3.792-1.754-5.71-2.58a3.126,3.126,0,0,1-1.978-1.945Zm19.869,1.836a2.57,2.57,0,0,1,.748-3.461,6.681,6.681,0,0,1,7.453,0,2.5,2.5,0,0,1,.049,4.166,4.514,4.514,0,0,1-1.182.689,6.766,6.766,0,0,1-5.358-.08.784.784,0,0,0-.753.015q-3.021,1.548-6.052,3.078c-.22.112-.437.229-.694.363.149.071.247.12.349.166,2.863,1.307,5.732,2.6,8.59,3.927a2.94,2.94,0,0,0,2.649.005c.729-.348,1.468-.671,2.2-1.006q9.262-4.225,18.528-8.448c.347-.158.666-.332.666-.77,0-.414-.3-.595-.63-.746q-10.392-4.731-20.775-9.469a2.993,2.993,0,0,0-2.648.01q-10.358,4.739-20.73,9.45c-.348.158-.663.339-.652.778.011.412.31.585.644.736,2.954,1.34,5.919,2.657,8.847,4.051a2,2,0,0,0,2.047-.031C14206.333,2065.085,14208.581,2063.99,14210.837,2062.848Zm-6.882,6.071v.624q0,5.181,0,10.363c0,.614-.187,1.392.113,1.8a3.725,3.725,0,0,0,1.738.888,28.456,28.456,0,0,0,17.558.5,12.774,12.774,0,0,0,5.01-2.516,4.165,4.165,0,0,0,1.566-3.4c-.049-3.058-.016-6.117-.016-9.175v-.546c-.246.1-.405.166-.562.238q-6.067,2.765-12.134,5.533a4.4,4.4,0,0,1-3.853-.012c-2.327-1.073-4.663-2.127-7-3.188C14205.609,2069.67,14204.835,2069.319,14203.955,2068.919Zm-3.23-1.468c-.012.163-.023.241-.023.319q0,4.869,0,9.738a3.407,3.407,0,0,0,.066.66,3.877,3.877,0,0,0,1.558,2.443V2074.2c0-1.869,0-3.737-.009-5.606a.672.672,0,0,0-.211-.5C14201.687,2067.848,14201.229,2067.676,14200.725,2067.451Zm14.586-4.339a4.74,4.74,0,0,0,2.537-.65c.927-.6.964-1.374.019-1.912a4.912,4.912,0,0,0-5.061-.025c-1,.557-.975,1.352.011,1.96A4.64,4.64,0,0,0,14215.311,2063.112Zm-10.552,25.155a1.618,1.618,0,0,0-3.236-.006,1.618,1.618,0,1,0,3.236.006Z"/>
  </g>
</svg>
