<svg xmlns="http://www.w3.org/2000/svg" width="43.465" height="57.965" viewBox="0 0 43.465 57.965">
  <g id="Group_2596" data-name="Group 2596" transform="translate(-14340.841 -1561.093)" opacity="0.8">
    <path id="Path_2521" data-name="Path 2521" d="M14341.4,1619.058a3.1,3.1,0,0,1-.525-.758.864.864,0,0,1,.838-1.042c.28-.026.565,0,.933,0v-.736q0-21.567,0-43.133c0-1.188.237-1.428,1.416-1.428h31.587c1.18,0,1.417.24,1.417,1.428v43.834c.668.1,1.469-.189,1.763.7.176.531-.2.827-.518,1.143Zm17.509-1.836v-40.709h-11.7v40.709Zm1.891-40.71V1617.2h11.707v-40.689Zm-16.3-2.717v43.426h.867V1576.06c0-1.137.251-1.385,1.4-1.385h26.095c1.271,0,1.488.215,1.488,1.468V1617.2h.876V1573.8Z"/>
    <path id="Path_2522" data-name="Path 2522" d="M14359.8,1570.146q-3.478,0-6.955,0c-.848,0-1.159-.322-1.135-1.161a8.142,8.142,0,0,1,16.2-.9,8.78,8.78,0,0,1,.095,1.011.9.9,0,0,1-1.023,1.044Q14363.387,1570.152,14359.8,1570.146Zm6.272-1.839a6.277,6.277,0,0,0-12.43-.012h5.313c0-.905-.024-1.771.008-2.635a.861.861,0,0,1,1.38-.756,1.435,1.435,0,0,1,.4.923c.056.819.019,1.644.019,2.48Z"/>
    <path id="Path_2523" data-name="Path 2523" d="M14381.58,1592.161c-.416.46-.727.841-1.076,1.179a.907.907,0,1,1-1.267-1.281q.817-.861,1.673-1.688a.893.893,0,0,1,1.357-.009c.571.549,1.127,1.114,1.674,1.688a.912.912,0,1,1-1.292,1.261C14382.312,1592.984,14382.007,1592.623,14381.58,1592.161Z"/>
    <path id="Path_2524" data-name="Path 2524" d="M14381.58,1598.859c.444-.48.759-.858,1.113-1.2a.9.9,0,1,1,1.283,1.262q-.832.886-1.712,1.729a.892.892,0,0,1-1.356-.013q-.855-.825-1.673-1.688a.907.907,0,1,1,1.271-1.277C14380.856,1598.016,14381.164,1598.4,14381.58,1598.859Z"/>
  </g>
</svg>
