<svg xmlns="http://www.w3.org/2000/svg" width="48.68" height="35.831" viewBox="0 0 48.68 35.831">
  <g id="Group_2588" data-name="Group 2588" transform="translate(-14634.385 -1335.791)" opacity="0.8">
    <path id="Path_2510" data-name="Path 2510" d="M14634.385,1346.943a7.358,7.358,0,0,1,.67-.964,31.465,31.465,0,0,1,19.109-9.868c11.081-1.433,20.543,1.962,28.337,9.974a1.528,1.528,0,1,1-2.164,2.132,29.267,29.267,0,0,0-6.082-4.984,29.473,29.473,0,0,0-36.95,4.824c-.985,1.036-2.469.947-2.92-.449Z"/>
    <path id="Path_2511" data-name="Path 2511" d="M14676.155,1353.944a1.61,1.61,0,0,1-.918,1.638,1.525,1.525,0,0,1-1.706-.347c-.936-.876-1.82-1.817-2.828-2.6a18.8,18.8,0,0,0-10.392-3.989,19.555,19.555,0,0,0-16.143,6.3,2.69,2.69,0,0,1-1.127.714,1.4,1.4,0,0,1-1.557-.741,1.512,1.512,0,0,1,.216-1.764,22.491,22.491,0,0,1,5.443-4.477,22.794,22.794,0,0,1,28.472,4.342A4.412,4.412,0,0,1,14676.155,1353.944Z"/>
    <path id="Path_2512" data-name="Path 2512" d="M14658.222,1355.26a13.3,13.3,0,0,1,10.568,4.766,1.537,1.537,0,0,1-.095,2.243,1.518,1.518,0,0,1-2.223-.279,9.805,9.805,0,0,0-8.333-3.638,9.679,9.679,0,0,0-7.085,3.559,1.609,1.609,0,0,1-1.655.678,1.517,1.517,0,0,1-.781-2.511,12.63,12.63,0,0,1,6.791-4.359A26.918,26.918,0,0,1,14658.222,1355.26Z"/>
    <path id="Path_2513" data-name="Path 2513" d="M14658.668,1371.621a3.3,3.3,0,1,1,3.354-3.236A3.317,3.317,0,0,1,14658.668,1371.621Z"/>
  </g>
</svg>
