<svg xmlns="http://www.w3.org/2000/svg" width="40.566" height="57.989" viewBox="0 0 40.566 57.989">
  <g id="Group_2616" data-name="Group 2616" transform="translate(-14195.024 -2291.132)" opacity="0.8">
    <path id="Path_2563" data-name="Path 2563" d="M14208.177,2349.121a2.077,2.077,0,0,0-.259-.1,3.863,3.863,0,0,1-3-4.1c.074-1.185.161-2.371.285-3.552a.792.792,0,0,0-.449-.9,15.438,15.438,0,0,1-7.146-8.58,18.155,18.155,0,0,1-.608-2.983,5.577,5.577,0,0,1,2.312-5.34c.638-.522,1.341-.964,2.1-1.5-.521,0-.977,0-1.432,0a4.8,4.8,0,0,1-4.938-4.93q-.018-9.084,0-18.168a4.758,4.758,0,0,1,4.844-4.9c1.905-.033,3.812.006,5.716-.021a1.8,1.8,0,0,0,.934-.282,15.951,15.951,0,0,1,17.56,0,1.809,1.809,0,0,0,.932.285c1.829.027,3.66.007,5.489.015a4.8,4.8,0,0,1,5.077,5.072q.009,8.941,0,17.884a4.812,4.812,0,0,1-5.051,5.047c-.414,0-.828,0-1.384,0,.253.165.408.247.542.357a30.47,30.47,0,0,1,2.75,2.323,5.158,5.158,0,0,1,1.155,4.442c-.625,5.025-3.407,8.59-7.587,11.194a1.013,1.013,0,0,0-.58,1.153c.143,1.14.21,2.291.272,3.44a3.856,3.856,0,0,1-3,4.043,1.924,1.924,0,0,0-.258.1Zm18.073-28.3c.465-1.065,1-2.1,1.382-3.2a24.721,24.721,0,0,0,.4-14.047,14.35,14.35,0,0,0-3.7-7.014,11.781,11.781,0,0,0-7.906-3.436c-5.507-.363-10.364,1.763-12.776,7.375a24.346,24.346,0,0,0-1.163,15.514,16.49,16.49,0,0,0,1.964,4.784A36.693,36.693,0,0,1,14226.25,2320.824Zm-11.03,13.815a32.127,32.127,0,0,0,10.8-1.693,11.7,11.7,0,0,0,4.584-2.707,3.21,3.21,0,0,0-.1-4.975,9.707,9.707,0,0,0-3.214-1.958,35.037,35.037,0,0,0-22.027-.746,12.164,12.164,0,0,0-5.264,2.967,3.026,3.026,0,0,0-.036,4.648,2.971,2.971,0,0,0,.577.539,26.3,26.3,0,0,0,3.154,1.85A29.586,29.586,0,0,0,14215.22,2334.639Zm-15.076-1.794c0,.092-.012.133,0,.162.064.136.134.27.205.4a12.949,12.949,0,0,0,3.9,4.418c5.592,3.949,11.647,4.567,18.008,2.264a14.639,14.639,0,0,0,8-6.669c.094-.165.168-.342.31-.631C14223.076,2337.816,14207.439,2337.766,14200.144,2332.845Zm26.442-36.8c2.792,3.467,3.759,7.509,4.088,11.759a24.335,24.335,0,0,1-1.964,12.338c.618,0,1.11-.033,1.6.006a3.055,3.055,0,0,0,3.374-3.328c-.086-3.073-.022-6.15-.022-9.226,0-2.905.009-5.811,0-8.716a2.722,2.722,0,0,0-2.312-2.8C14229.8,2295.943,14228.232,2296.042,14226.586,2296.042Zm-24.836,24.064c-2.949-8.364-2.759-16.423,2.105-24.092a.712.712,0,0,0-.134-.015c-1.339,0-2.678-.025-4.015.013a2.8,2.8,0,0,0-2.739,2.822q-.021,9.218,0,18.437a2.8,2.8,0,0,0,2.44,2.817A18.381,18.381,0,0,0,14201.75,2320.106Zm5.345,21.577c-.092,1.286-.228,2.466-.245,3.647a1.878,1.878,0,0,0,1.958,1.857q6.5.016,13.008,0a1.929,1.929,0,0,0,1.96-2.144c-.045-.734-.118-1.465-.177-2.2-.028-.364-.054-.728-.085-1.154A21.459,21.459,0,0,1,14207.095,2341.683Z"/>
    <path id="Path_2564" data-name="Path 2564" d="M14203.738,2309.291a20.5,20.5,0,0,1,1.826-8.364c1.949-3.977,5.223-5.828,9.579-5.907a.975.975,0,0,1,1.12.933c.02.594-.4.975-1.112.992a8.507,8.507,0,0,0-6.369,2.556,10.638,10.638,0,0,0-2.625,5.659c-.268,1.61-.337,3.254-.493,4.882a4.826,4.826,0,0,1-.072.727.89.89,0,0,1-1.02.69.871.871,0,0,1-.828-.853C14203.714,2310.194,14203.738,2309.778,14203.738,2309.291Z"/>
    <path id="Path_2565" data-name="Path 2565" d="M14215.3,2323.009a25.915,25.915,0,0,1,7.867,1.1,9.877,9.877,0,0,1,2.566,1.262c1.591,1.134,1.558,2.875,0,4.059a10.236,10.236,0,0,1-4.437,1.729,29.639,29.639,0,0,1-13.553-.406,9.659,9.659,0,0,1-2.705-1.235c-1.8-1.194-1.771-3.047,0-4.294a11.572,11.572,0,0,1,4.581-1.677,22.21,22.21,0,0,1,2.292-.332C14213.043,2323.114,14214.174,2323.074,14215.3,2323.009Zm.039,1.97-.02-.163c-2,.251-4,.423-5.978.787a12.251,12.251,0,0,0-3.053,1.117c-.868.422-.837.852.01,1.35a6.757,6.757,0,0,0,1.485.673,26.959,26.959,0,0,0,14.227.248,10.074,10.074,0,0,0,2.342-.949c.816-.436.8-.855-.014-1.333a8.084,8.084,0,0,0-1.481-.681A23.121,23.121,0,0,0,14215.342,2324.979Z"/>
  </g>
</svg>
