<svg xmlns="http://www.w3.org/2000/svg" width="48.681" height="30.409" viewBox="0 0 48.681 30.409">
  <g id="Group_2610" data-name="Group 2610" transform="translate(-13896.436 -2055.237)" opacity="0.8">
    <path id="Path_2548" data-name="Path 2548" d="M13945.116,2072.827a2.9,2.9,0,0,1-1.953,2.2,14.352,14.352,0,0,1-1.85.259c0,.109,0,.276,0,.442,0,1.22.015,2.44,0,3.66a3.8,3.8,0,0,1-5.64,3.417c-.029-.014-.059-.024-.116-.048a1.342,1.342,0,0,0-.126.223,3.755,3.755,0,0,1-4.3,2.608,3.8,3.8,0,0,1-3.118-3.819c-.018-2.012,0-4.024,0-6.036v-.5h-14.449v.524c0,2,.016,3.993,0,5.989a3.784,3.784,0,0,1-4.927,3.725,3.644,3.644,0,0,1-2.408-2.253c-.059-.145-.108-.293-.178-.482a3.959,3.959,0,0,1-2.23.53,3.8,3.8,0,0,1-3.557-3.863c-.02-1.377,0-2.754,0-4.2-.3,0-.578,0-.856,0a2.862,2.862,0,0,1-2.943-2.946c-.016-1.188-.012-2.376,0-3.565a2.867,2.867,0,0,1,2.991-2.994c.252,0,.5,0,.809,0,0-.5,0-.974,0-1.443,0-.935-.021-1.87,0-2.8a3.8,3.8,0,0,1,5.613-3.363c.043.021.088.037.071.031a10.446,10.446,0,0,1,1.1-1.694,3.61,3.61,0,0,1,4.14-.893,3.772,3.772,0,0,1,2.372,3.576c.02,2.011,0,4.024,0,6.036v.531H13928v-.5c0-2.012-.018-4.024,0-6.036a3.784,3.784,0,0,1,4.945-3.7,3.635,3.635,0,0,1,2.4,2.266c.058.144.112.29.182.469a3.728,3.728,0,0,1,2.939-.413,3.783,3.783,0,0,1,2.838,3.76c.016,1.22,0,2.44,0,3.66,0,.155,0,.31,0,.521h.731a2.859,2.859,0,0,1,2.988,2.211,1.034,1.034,0,0,0,.083.165Zm-33.463-2.376v-9.457c0-.665.019-1.331-.009-2a1.89,1.89,0,0,0-2.509-1.749,1.968,1.968,0,0,0-1.285,2.056q0,11.145,0,22.288a4.141,4.141,0,0,0,.013.427,1.9,1.9,0,0,0,2.573,1.607,1.937,1.937,0,0,0,1.216-1.961Q13911.657,2076.059,13911.653,2070.451Zm18.253,0q0,4.846,0,9.694c0,.6-.022,1.206.011,1.806a1.894,1.894,0,0,0,2.553,1.686,1.963,1.963,0,0,0,1.238-2q0-11.19,0-22.382a3.793,3.793,0,0,0-.012-.38,1.89,1.89,0,0,0-2.617-1.581,1.914,1.914,0,0,0-1.176,1.939Q13929.912,2064.843,13929.906,2070.451Zm-23.957,0q0-2.448,0-4.9c0-1.378.019-2.756-.007-4.134a1.9,1.9,0,0,0-2.559-1.78,1.952,1.952,0,0,0-1.235,2q0,8.2,0,16.394c0,.507-.014,1.015.008,1.521a1.9,1.9,0,1,0,3.791-.168C13905.957,2076.405,13905.949,2073.427,13905.949,2070.449Zm29.661,0q0,2.448,0,4.9c0,1.378-.02,2.756.007,4.134a1.9,1.9,0,0,0,2.558,1.78,1.954,1.954,0,0,0,1.236-2q0-8.245,0-16.49c0-.475.013-.951-.008-1.425a1.9,1.9,0,1,0-3.791.168C13935.6,2064.5,13935.61,2067.473,13935.61,2070.451Zm-22.035,2.816h14.4V2071.4h-6.233a3.821,3.821,0,0,1-.427-.009.943.943,0,0,1,.021-1.885c.142-.013.285-.006.428-.006h6.2v-1.876h-14.389Zm-13.348-5.668c-.317,0-.586-.01-.853,0a.961.961,0,0,0-1.024,1.008q-.026,1.848,0,3.7a.907.907,0,0,0,.8.964,8.5,8.5,0,0,0,1.071.009Zm41.107,5.7c.34,0,.625.015.908,0a.94.94,0,0,0,.962-.969c.021-1.248.017-2.5,0-3.745a.866.866,0,0,0-.725-.927,6.868,6.868,0,0,0-1.147-.013Z"/>
    <path id="Path_2549" data-name="Path 2549" d="M13917.563,2069.507a.943.943,0,1,1-.958.929A.974.974,0,0,1,13917.563,2069.507Z"/>
  </g>
</svg>
