<svg xmlns="http://www.w3.org/2000/svg" width="48.679" height="62.061" viewBox="0 0 48.679 62.061">
  <g id="Group_2584" data-name="Group 2584" transform="translate(-14338.234 -1320.227)" opacity="0.8">
    <path id="Path_2487" data-name="Path 2487" d="M14386.913,1320.227c-.017.24-.05.48-.05.72q0,7,0,14v.709a28.686,28.686,0,0,1-3.773-.034,2.975,2.975,0,0,1-2.444-3.159c-.015-.6,0-1.207,0-1.9h-20.21c-1.185,0-1.513.331-1.513,1.514,0,.808,0,1.616.01,2.424a1.1,1.1,0,0,0,.073.205c.5,0,1.038,0,1.575,0a3.187,3.187,0,0,1,3.531,3.522c0,.909-.021,1.819.016,2.726a.884.884,0,0,0,.33.621,14.938,14.938,0,0,1,6.784,11.087c.109.817.052,1.655.12,2.479a.854.854,0,0,0,.345.594,3.179,3.179,0,0,1,1.708,2.871c.016.545.011,1.091,0,1.637-.014,1-.357,1.351-1.354,1.353q-5.666.008-11.334,0h-20.91c-1.324,0-1.588-.264-1.582-1.607,0-.606-.008-1.214.044-1.816a2.746,2.746,0,0,1,1.477-2.3.964.964,0,0,0,.561-1.046,14.688,14.688,0,0,1,3.4-10.039,25.44,25.44,0,0,1,3.281-3.024,1.19,1.19,0,0,0,.549-1.083c-.04-.867-.019-1.737-.009-2.606a3.139,3.139,0,0,1,3.31-3.373c.6-.017,1.2,0,1.873,0,0-1.067-.021-2.073.006-3.077a16.931,16.931,0,0,1,.2-3.371,5.079,5.079,0,0,1,5.3-3.9q10.819-.008,21.638,0h.779c0-.4-.022-.743,0-1.08a3.072,3.072,0,0,1,2.3-2.934,1.121,1.121,0,0,0,.2-.116Zm-17.653,35.131c.126-4.708-1.429-8.6-5.151-11.5a3.309,3.309,0,0,0-1.746-.824c-4.361-.07-8.723-.042-13.084-.027a1.55,1.55,0,0,0-.778.238,12.9,12.9,0,0,0-5.058,5.946,13.443,13.443,0,0,0-1.034,6.168Zm11.352-28.934h-12.184c-3.432,0-6.863-.009-10.3,0a3.13,3.13,0,0,0-3.343,3.335c-.008,1.453,0,2.907,0,4.361,0,.176.018.353.028.534h2.034v-2.523q0-3.645,3.651-3.64h20.108Zm-40.283,33.063h30.951c.229-1.6-.139-2.028-1.691-2.028h-27.618a4.261,4.261,0,0,0-.725.028.985.985,0,0,0-.913.966C14340.311,1358.789,14340.328,1359.126,14340.328,1359.487Zm21.709-18.6c0-.881,0-1.687,0-2.493,0-1.332-.276-1.614-1.585-1.615q-4.633,0-9.268,0a5.653,5.653,0,0,0-.663.034.856.856,0,0,0-.846.8c-.043,1.079-.014,2.16-.014,3.269Zm22.721-18.55c-1.689-.172-2.046.138-2.046,1.715v6.471c0,.665-.02,1.331.01,1.995a1.073,1.073,0,0,0,1.187,1.155c.274.011.551,0,.85,0Z"/>
    <path id="Path_2488" data-name="Path 2488" d="M14350.659,1379.2c0-.664-.015-1.329,0-1.993a1.026,1.026,0,1,1,2.048-.047q.041,2.022,0,4.046a1.026,1.026,0,1,1-2.049-.013C14350.645,1380.532,14350.659,1379.867,14350.659,1379.2Z"/>
    <path id="Path_2489" data-name="Path 2489" d="M14346.523,1375.047c0-.665-.017-1.33,0-1.994a1.022,1.022,0,1,1,2.043-.07c.039,1.368.035,2.738,0,4.107a1.028,1.028,0,1,1-2.052-.05c0-.04,0-.08,0-.12v-1.873Z"/>
    <path id="Path_2490" data-name="Path 2490" d="M14360.982,1379.2c0,.664.014,1.329,0,1.993a1.022,1.022,0,1,1-2.041.081q-.051-2.082,0-4.166a1,1,0,0,1,1.07-.995,1.013,1.013,0,0,1,.97,1.094C14361,1377.87,14360.983,1378.535,14360.982,1379.2Z"/>
    <path id="Path_2491" data-name="Path 2491" d="M14354.788,1366.758c0-.644-.013-1.288,0-1.932a1.033,1.033,0,1,1,2.056.013q.022,1.932,0,3.865a1.042,1.042,0,0,1-1.032,1.164c-.607,0-1.011-.456-1.024-1.178C14354.777,1368.047,14354.788,1367.4,14354.788,1366.758Z"/>
    <path id="Path_2492" data-name="Path 2492" d="M14350.66,1370.9c0-.664-.017-1.328,0-1.992a1,1,0,0,1,.991-1.07.988.988,0,0,1,1.052,1.01q.045,2.082,0,4.165a1.008,1.008,0,0,1-1.018,1,1.031,1.031,0,0,1-1.02-1.058C14350.643,1372.272,14350.66,1371.587,14350.66,1370.9Z"/>
    <path id="Path_2493" data-name="Path 2493" d="M14356.852,1375.111c0,.624.011,1.249,0,1.872a1.07,1.07,0,0,1-1.037,1.173,1.054,1.054,0,0,1-1.018-1.131q-.025-1.964,0-3.926a1.033,1.033,0,1,1,2.056.019C14356.863,1373.782,14356.852,1374.447,14356.852,1375.111Z"/>
    <path id="Path_2494" data-name="Path 2494" d="M14348.591,1366.78c0,.6.008,1.208,0,1.812-.014.81-.413,1.281-1.057,1.271s-1-.454-1.01-1.242q-.015-1.842,0-3.684c0-.787.379-1.232,1.01-1.241s1.042.463,1.056,1.273C14348.6,1365.573,14348.591,1366.177,14348.591,1366.78Z"/>
    <path id="Path_2495" data-name="Path 2495" d="M14365.118,1366.819c0,.664.018,1.329-.006,1.992a1,1,0,0,1-.949,1.048.97.97,0,0,1-1.078-.977q-.064-2.11,0-4.223a.968.968,0,0,1,1.034-.962,1,1,0,0,1,.992,1.07C14365.136,1365.451,14365.119,1366.135,14365.118,1366.819Z"/>
    <path id="Path_2496" data-name="Path 2496" d="M14360.982,1370.931c0,.664.014,1.328-.006,1.992a1.027,1.027,0,0,1-.985,1.085,1.016,1.016,0,0,1-1.055-1.019q-.051-2.052,0-4.1a1.025,1.025,0,1,1,2.047.055C14361,1369.6,14360.982,1370.267,14360.982,1370.931Z"/>
    <path id="Path_2497" data-name="Path 2497" d="M14365.118,1375.086c0,.665.019,1.33,0,1.993a1.024,1.024,0,0,1-1,1.074,1.009,1.009,0,0,1-1.029-.983c-.04-1.407-.043-2.818,0-4.225a.964.964,0,0,1,1.086-.965.984.984,0,0,1,.941,1.053C14365.137,1373.717,14365.118,1374.4,14365.118,1375.086Z"/>
    <path id="Path_2498" data-name="Path 2498" d="M14342.386,1370.916c0-.667-.02-1.334,0-2a.992.992,0,0,1,.99-1.074.977.977,0,0,1,1.048,1.019q.057,2.06,0,4.121a1.012,1.012,0,0,1-1.051,1.026,1.025,1.025,0,0,1-.985-1.092C14342.367,1372.25,14342.386,1371.583,14342.386,1370.916Z"/>
    <path id="Path_2499" data-name="Path 2499" d="M14367.2,1370.844c0-.607-.017-1.213,0-1.819.025-.752.406-1.175,1.019-1.184.641-.009,1.033.424,1.043,1.213q.025,1.85,0,3.7c-.008.788-.4,1.247-1.012,1.258-.635.011-1.037-.47-1.054-1.287C14367.184,1372.1,14367.194,1371.47,14367.2,1370.844Z"/>
  </g>
</svg>
