<svg xmlns="http://www.w3.org/2000/svg" width="48.68" height="48.667" viewBox="0 0 48.68 48.667">
  <g id="Group_2580" data-name="Group 2580" transform="translate(-14043.702 -1326.924)" opacity="0.8">
    <path id="Path_2474" data-name="Path 2474" d="M14048.627,1359.747q.17-6.337.327-12.673a.742.742,0,0,0-.231-.581,8.863,8.863,0,0,1-4.382-5.572,12.054,12.054,0,0,1,1.563-10.911,6.428,6.428,0,0,1,10.767-.3,11.292,11.292,0,0,1,2.387,7.211,11.121,11.121,0,0,1-2.566,7.6,12.546,12.546,0,0,1-2.244,1.838.772.772,0,0,0-.434.747q.357,12.313.683,24.627a6.264,6.264,0,0,1-.04,1.278,3.11,3.11,0,0,1-6.171-.647c.049-2.6.15-5.2.2-7.8.029-1.607.006-3.214.006-4.822Zm1.451-.413q-.179,6.435-.357,12.872a1.717,1.717,0,0,0,1.646,1.947,1.679,1.679,0,0,0,1.7-1.882c-.039-1.9-.093-3.8-.145-5.692q-.277-10.1-.564-20.206a.917.917,0,0,1,.657-1.018,5.7,5.7,0,0,0,2.675-2.078,10.585,10.585,0,0,0,1.836-7.788,9.144,9.144,0,0,0-2.392-5.388,4.855,4.855,0,0,0-7.416-.037,7.7,7.7,0,0,0-1.312,1.819,11.052,11.052,0,0,0-.158,9.982,6.436,6.436,0,0,0,3.42,3.449c.7.291.766.375.746,1.147Q14050.247,1352.9,14050.078,1359.334Z"/>
    <path id="Path_2475" data-name="Path 2475" d="M14086.027,1359.33q-.167-6.388-.334-12.776c-.021-.838.041-.918.835-1.161a6.2,6.2,0,0,0,4.405-5.917c.021-3.815.007-7.631.008-11.446a2.351,2.351,0,0,1,.02-.512.71.71,0,0,1,1.4.027,2.614,2.614,0,0,1,.016.511c0,3.679.009,7.358,0,11.036a7.568,7.568,0,0,1-4.937,7.5c-.3.128-.308.3-.3.55q.127,4.746.251,9.492c.144,5.234.3,10.467.431,15.7a3.115,3.115,0,0,1-3.1,3.26,3.081,3.081,0,0,1-3.115-3.236c.14-5.816.3-11.63.46-17.445.071-2.617.151-5.234.2-7.851a.632.632,0,0,0-.321-.466,7.51,7.51,0,0,1-4.9-7.268c-.054-3.815-.014-7.631-.011-11.446,0-.667.354-1.047.855-.93a.749.749,0,0,1,.579.849c0,.942,0,1.883,0,2.824,0,2.857-.008,5.714,0,8.572a6.17,6.17,0,0,0,4.588,6.236.884.884,0,0,1,.687.99q-.186,6.234-.354,12.468-.183,6.7-.354,13.392a1.672,1.672,0,0,0,1.705,1.876,1.714,1.714,0,0,0,1.644-1.948Q14086.2,1365.769,14086.027,1359.33Z"/>
    <path id="Path_2476" data-name="Path 2476" d="M14071.452,1350.765q0,10.777,0,21.555a3.1,3.1,0,1,1-6.2.041c.095-2.1.253-4.2.387-6.3.137-2.151.284-4.3.4-6.452a.633.633,0,0,0-.3-.446c-.782-.457-1.576-.892-2.377-1.315a.908.908,0,0,1-.523-.913,97.6,97.6,0,0,1,4.727-28.418,1.969,1.969,0,0,1,2.551-1.487,1.893,1.893,0,0,1,1.321,1.717c.019.5.007.992.007,1.488Q14071.453,1340.5,14071.452,1350.765Zm-1.437.012q0-10.7,0-21.4c0-.385.157-.9-.438-.991-.553-.08-.58.43-.7.785a94.3,94.3,0,0,0-4.548,27.2.678.678,0,0,0,.29.5c.764.452,1.546.873,2.332,1.286a.974.974,0,0,1,.587,1.029c-.2,2.865-.383,5.732-.567,8.6-.1,1.536-.205,3.071-.277,4.608a1.647,1.647,0,0,0,1.41,1.741,1.665,1.665,0,0,0,1.848-1.2,3.255,3.255,0,0,0,.063-.812Q14070.018,1361.448,14070.015,1350.777Z"/>
    <path id="Path_2477" data-name="Path 2477" d="M14085.414,1333.346q0,2.721,0,5.44c0,.6-.258.937-.7.941s-.731-.338-.731-.925q0-5.492,0-10.983c0-.55.281-.879.716-.885s.707.316.719.87c0,.119,0,.239,0,.359Z"/>
    <path id="Path_2478" data-name="Path 2478" d="M14088.894,1333.363v5.235c0,.137.008.275,0,.411a.7.7,0,0,1-.718.713.687.687,0,0,1-.7-.679c-.029-.391-.011-.786-.011-1.18q0-4.876,0-9.752a4.53,4.53,0,0,1,0-.461.7.7,0,0,1,.726-.712.7.7,0,0,1,.7.728c.017.444,0,.889,0,1.334Q14088.9,1331.182,14088.894,1333.363Z"/>
    <path id="Path_2479" data-name="Path 2479" d="M14081.937,1333.31q0,2.668,0,5.337c0,.17.052.39-.033.5-.17.223-.4.508-.639.54-.207.028-.5-.216-.672-.413-.11-.129-.088-.391-.088-.593q-.007-5.362,0-10.725c0-.034,0-.068,0-.1.014-.592.28-.927.732-.923s.7.329.7.938C14081.939,1329.684,14081.937,1331.5,14081.937,1333.31Z"/>
  </g>
</svg>
