<svg xmlns="http://www.w3.org/2000/svg" width="48.68" height="37.798" viewBox="0 0 48.68 37.798">
  <g id="Group_2600" data-name="Group 2600" transform="translate(-14486.069 -1573.196)" opacity="0.8">
    <path id="Path_2529" data-name="Path 2529" d="M14502.642,1591.3c-.681-1.214-1.35-2.4-2.014-3.591a4.5,4.5,0,0,1,2.1-6.63q7.854-3.73,15.719-7.444a3.919,3.919,0,1,1,3.486,7.016c-2.432,1.235-4.876,2.442-7.313,3.663-1.4.7-2.8,1.406-4.233,2.126.117.18.205.323.3.462q4.226,6.18,8.45,12.363a1.559,1.559,0,0,0,.884.62,13.821,13.821,0,0,1,2.556,1.088,5.925,5.925,0,0,0,6.381.1,8.981,8.981,0,0,1,4.538-1.412,1.106,1.106,0,0,1,1.183,1.455.986.986,0,0,1-.962.74,8.275,8.275,0,0,0-3.977,1.308,7.785,7.785,0,0,1-8.091-.208,6.311,6.311,0,0,0-7.019,0,7.822,7.822,0,0,1-8.5-.017,6.235,6.235,0,0,0-6.927-.012,7.94,7.94,0,0,1-8.591,0,6.714,6.714,0,0,0-3.312-1.051,1.121,1.121,0,0,1-1.233-1.167,1.1,1.1,0,0,1,1.346-1.028,2.751,2.751,0,0,0,1.881-.492q6.415-3.805,12.85-7.576C14502.311,1591.512,14502.466,1591.407,14502.642,1591.3Zm14.112,8.413c-.119-.181-.218-.341-.325-.5l-7.635-11.1c-1.136-1.652-.8-2.951.975-3.84q5.536-2.767,11.068-5.538a1.932,1.932,0,0,0,1.071-1.065,1.676,1.676,0,0,0-.465-1.845,1.719,1.719,0,0,0-2.024-.2q-7.9,3.755-15.815,7.5a2.279,2.279,0,0,0-1.081,3.446c.627,1.113,1.265,2.221,1.9,3.332a2.275,2.275,0,0,1-.93,3.495q-5.979,3.528-11.963,7.047c-.11.065-.211.145-.328.225a6.012,6.012,0,0,0,6.972.324,8.157,8.157,0,0,1,9.049.032,5.816,5.816,0,0,0,6.373,0,8.758,8.758,0,0,1,2.9-1.2A1.545,1.545,0,0,0,14516.754,1599.708Z"/>
    <path id="Path_2530" data-name="Path 2530" d="M14510.418,1610.94a7.805,7.805,0,0,1-4.325-1.215,6.111,6.111,0,0,0-6.916.014,7.853,7.853,0,0,1-8.5.012,6.9,6.9,0,0,0-3.506-1.095,1.083,1.083,0,0,1-1.1-1.077,1.1,1.1,0,0,1,1.124-1.11,7.73,7.73,0,0,1,4.5,1.325,5.78,5.78,0,0,0,4.719.743,6.328,6.328,0,0,0,1.7-.733,8.2,8.2,0,0,1,9.094,0,5.815,5.815,0,0,0,6.375.01,8.236,8.236,0,0,1,8.972-.086,6.118,6.118,0,0,0,6.795-.073,7.592,7.592,0,0,1,4.173-1.193,1.1,1.1,0,1,1,.025,2.2,6.109,6.109,0,0,0-3.134.932,8.127,8.127,0,0,1-8.875.092,6.16,6.16,0,0,0-6.885.075A7.727,7.727,0,0,1,14510.418,1610.94Z"/>
    <path id="Path_2531" data-name="Path 2531" d="M14517.8,1590.552a7.912,7.912,0,1,1,7.968,7.919A7.951,7.951,0,0,1,14517.8,1590.552Zm7.889,5.69a5.682,5.682,0,1,0-5.658-5.678A5.655,5.655,0,0,0,14525.686,1596.242Z"/>
  </g>
</svg>
