<svg xmlns="http://www.w3.org/2000/svg" width="46.362" height="46.299" viewBox="0 0 46.362 46.299">
  <g id="Group_2594" data-name="Group 2594" transform="translate(-14192.127 -1566.926)" opacity="0.8">
    <path id="Path_2520" data-name="Path 2520" d="M14215.295,1613.225h-21.152c-1.4,0-2.006-.609-2.006-2.018q0-15.362-.01-30.723a2.02,2.02,0,0,1,1.177-1.986q10.474-5.61,20.919-11.267a2.092,2.092,0,0,1,2.188.007q10.4,5.629,20.832,11.214a2.132,2.132,0,0,1,1.247,2.107q-.032,15.309-.014,30.62c0,1.454-.587,2.046-2.029,2.046Zm-14.883-3.331v-.669q0-11.067,0-22.136c0-1.41.6-2,2.018-2h25.753c1.409,0,2.019.6,2.019,2.005v22.783h4.95c.006-.124.014-.209.014-.3q0-14.041.01-28.084a.619.619,0,0,0-.415-.615q-9.554-5.134-19.107-10.268a.856.856,0,0,0-.692,0q-9.539,5.108-19.066,10.238a.765.765,0,0,0-.455.8q.016,13.836.009,27.671v.569Zm3.34-21.473v4.908h23.1v-4.908Zm23.116,8.289h-23.122v4.9h23.122Zm-.015,13.182v-4.9h-23.1v4.9Z"/>
  </g>
</svg>
