<svg xmlns="http://www.w3.org/2000/svg" width="43.465" height="57.967" viewBox="0 0 43.465 57.967">
  <g id="Group_2598" data-name="Group 2598" transform="translate(-13899.044 -2291.143)" opacity="0.8">
    <path id="Path_2525" data-name="Path 2525" d="M13899.6,2349.11a3.1,3.1,0,0,1-.524-.758.863.863,0,0,1,.838-1.042c.28-.026.563-.005.932-.005v-43.87c0-1.188.238-1.427,1.417-1.427h31.587c1.18,0,1.417.239,1.417,1.427v43.836c.668.1,1.47-.189,1.763.7.177.531-.2.827-.518,1.143Zm17.51-1.836v-40.71h-11.7v40.71Zm1.892-40.711v40.69h11.706v-40.69Zm-16.3-2.718v43.427h.867v-41.161c0-1.138.251-1.385,1.4-1.385h26.095c1.271,0,1.488.215,1.488,1.469v41.059h.877v-43.408Z"/>
    <path id="Path_2526" data-name="Path 2526" d="M13918,2300.2q-3.478,0-6.955,0c-.848,0-1.159-.323-1.135-1.162a8.143,8.143,0,0,1,16.2-.894,9.009,9.009,0,0,1,.094,1.011.9.9,0,0,1-1.023,1.044Q13921.59,2300.2,13918,2300.2Zm6.273-1.838a6.278,6.278,0,0,0-12.431-.013h5.313c0-.9-.025-1.77.007-2.634a.861.861,0,0,1,1.38-.756,1.436,1.436,0,0,1,.4.922c.055.819.018,1.645.018,2.481Z"/>
    <path id="Path_2527" data-name="Path 2527" d="M13939.794,2322.261c-.393.413-.716.779-1.066,1.114a.913.913,0,1,1-1.267-1.288q.8-.837,1.635-1.646a.9.9,0,0,1,1.4-.006c.568.552,1.128,1.113,1.673,1.689a.9.9,0,0,1,.063,1.357.908.908,0,0,1-1.357-.1C13940.519,2323.045,13940.2,2322.68,13939.794,2322.261Z"/>
    <path id="Path_2528" data-name="Path 2528" d="M13939.79,2328.9c.424-.46.738-.835,1.089-1.172a.908.908,0,1,1,1.28,1.269q-.817.862-1.673,1.688a.9.9,0,0,1-1.4-.019q-.831-.808-1.635-1.646a.915.915,0,0,1-.118-1.359c.382-.406.9-.378,1.4.082.18.166.354.34.52.52S13939.548,2328.614,13939.79,2328.9Z"/>
  </g>
</svg>
