<svg xmlns="http://www.w3.org/2000/svg" width="48.68" height="48.613" viewBox="0 0 48.68 48.613">
  <g id="Group_2604" data-name="Group 2604" transform="translate(-13896.436 -1807.603)" opacity="0.8">
    <path id="Path_2534" data-name="Path 2534" d="M13896.436,1833.535v-2.942c.028-.138.062-.275.083-.413.215-1.34.316-2.708.655-4.015a23.916,23.916,0,0,1,13.1-16.123,23.885,23.885,0,0,1,28.149,5.465c6.614,7.425,8.464,15.969,4.915,25.277-3.2,8.389-9.551,13.338-18.377,15.059-.895.175-1.809.251-2.714.373h-2.942a1.783,1.783,0,0,0-.313-.078,23.5,23.5,0,0,1-11.585-3.917,23.8,23.8,0,0,1-10.6-16.024C13896.649,1835.317,13896.56,1834.423,13896.436,1833.535Zm45.26-1.5a20.961,20.961,0,1,0-20.913,20.956A21.209,21.209,0,0,0,13941.7,1832.034Z"/>
    <path id="Path_2535" data-name="Path 2535" d="M13928.638,1827.209c-.077.148-.159.294-.231.443q-2.8,5.7-5.6,11.4a4.189,4.189,0,0,1-.636.99,1.961,1.961,0,0,1-3.1-.26,6.592,6.592,0,0,1-.438-.785q-2.789-5.676-5.575-11.355a1.143,1.143,0,0,0-.312-.425c-.008.169-.023.338-.023.508,0,4.934-.03,9.868.015,14.8a2.1,2.1,0,0,1-2.958,1.981,1.639,1.639,0,0,1-1.107-1.512c-.012-.189-.015-.379-.015-.569q0-10.176,0-20.354c0-.268,0-.538.024-.805a2.138,2.138,0,0,1,1.621-1.945c1.774-.424,2.892.052,3.566,1.424q1.922,3.912,3.832,7.829,1.412,2.9,2.813,5.8c.068.14.141.278.247.489.106-.2.188-.339.256-.483q3.089-6.428,6.18-12.851a8.27,8.27,0,0,1,.868-1.463,2.871,2.871,0,0,1,3.218-.712,2.2,2.2,0,0,1,1.523,2.27c.023,2.356.012,4.713.012,7.069,0,4.634-.006,9.268,0,13.9a1.8,1.8,0,0,1-.935,1.825,2.242,2.242,0,0,1-2.3-.117,1.6,1.6,0,0,1-.807-1.321c-.013-.221-.022-.442-.022-.663q0-7.282,0-14.566v-.516Z"/>
  </g>
</svg>
