<svg xmlns="http://www.w3.org/2000/svg" width="43.466" height="50.374" viewBox="0 0 43.466 50.374">
  <g id="Group_2602" data-name="Group 2602" transform="translate(-14635.942 -1566.908)" opacity="0.8">
    <path id="Path_2532" data-name="Path 2532" d="M14637.089,1617.282a1.808,1.808,0,0,1-1.144-1.956c.053-1.41-.019-2.826.064-4.234a14.651,14.651,0,0,1,6.275-11.405,14.258,14.258,0,0,1,7.236-2.707c.077-.007.153-.03.306-.061-.4-.448-.789-.834-1.127-1.259a11.438,11.438,0,0,1-1.989-11.376.7.7,0,0,0-.24-.912,3.669,3.669,0,0,1-1.417-3.1,1.23,1.23,0,0,0-.271-.739c-1.314-1.617-2.654-3.214-3.98-4.822-.978-1.186-.657-2.281.8-2.751q7.6-2.449,15.205-4.9a2.82,2.82,0,0,1,1.821.007q7.6,2.465,15.205,4.9a1.546,1.546,0,0,1,.8,2.723c-1.338,1.62-2.685,3.232-4.013,4.86a1.085,1.085,0,0,0-.25.651,3.832,3.832,0,0,1-1.55,3.294.53.53,0,0,0-.211.7,11.481,11.481,0,0,1-2.822,12.412c-.057.059-.115.116-.168.179a.618.618,0,0,0-.06.131c.634.1,1.266.16,1.874.309,6.179,1.516,10.078,5.358,11.594,11.538a19.985,19.985,0,0,1,.357,3.612c.056.981-.022,1.97.021,2.953a1.8,1.8,0,0,1-1.145,1.957Zm1.936-3.059h17.339v-12.668c-.15.121-.251.2-.348.281q-2.544,2.175-5.091,4.351c-1.163.989-2.268.679-2.768-.772-.477-1.379-.944-2.76-1.417-4.139-.057-.165-.12-.327-.181-.491C14641.394,1602.845,14638.328,1607.884,14639.024,1614.223Zm26.732-29.012a27.816,27.816,0,0,1-16.156-.018,8.634,8.634,0,1,0,16.156.018Zm-6.3,16.5v12.517h16.879c.7-6.7-2.668-11.446-7.346-13.354-.061.168-.122.334-.179.5q-.693,2.047-1.385,4.1a1.55,1.55,0,0,1-2.718.738c-.776-.658-1.544-1.325-2.317-1.986C14661.434,1603.408,14660.478,1602.591,14659.453,1601.714Zm11.614-27.45c-.19-.072-.34-.136-.492-.185q-6.223-2-12.448-3.986a1.474,1.474,0,0,0-.843,0q-6.23,1.976-12.447,3.987c-.151.048-.3.113-.484.186.78.942,1.577,1.819,2.271,2.77.539.739,1.08,1.181,1.989.646a.173.173,0,0,1,.048-.01,36.226,36.226,0,0,1,9.031-.93,33.484,33.484,0,0,1,9.974,1.2.482.482,0,0,0,.422-.1C14669.083,1576.669,14670.061,1575.479,14671.067,1574.264Zm-22.867,6.772a17.494,17.494,0,0,0,1.646.954,16.633,16.633,0,0,0,5.184,1.241,23.244,23.244,0,0,0,9.854-.955,5.183,5.183,0,0,0,2.223-1.293C14663.934,1579.366,14651.638,1579.36,14648.2,1581.036Zm2.206,21.63,3.116-2.669h-4.031Zm15.682-2.664h-3.968c.1.091.181.18.272.259.916.784,1.833,1.566,2.8,2.392Z"/>
    <path id="Path_2533" data-name="Path 2533" d="M14668.41,1609.784c.771,0,1.543-.01,2.313,0a1.5,1.5,0,1,1,.016,2.991q-2.29.03-4.578,0a1.476,1.476,0,0,1-1.534-1.512,1.492,1.492,0,0,1,1.569-1.479C14666.934,1609.775,14667.672,1609.784,14668.41,1609.784Z"/>
  </g>
</svg>
