<svg xmlns="http://www.w3.org/2000/svg" width="28.015" height="30.989" viewBox="0 0 28.015 30.989">
  <path id="Path_1716" data-name="Path 1716" d="M9051.948,8096.118c0,2.027-.019,4.055.006,6.083a3.185,3.185,0,0,1-1.8,3.06q-5.259,2.89-10.491,5.83a3.257,3.257,0,0,1-3.436-.008q-5.19-2.92-10.411-5.785a3.285,3.285,0,0,1-1.865-3.163q.04-6.058,0-12.119a3.253,3.253,0,0,1,1.841-3.127q5.266-2.88,10.5-5.828a3.154,3.154,0,0,1,3.3-.015q5.322,2.973,10.656,5.92a3.089,3.089,0,0,1,1.7,2.927C9051.935,8091.968,9051.948,8094.047,9051.948,8096.118Zm-1.434-6.533c-.13.057-.187.079-.238.107q-5.638,3.133-11.279,6.259a.575.575,0,0,0-.318.6q.012,5.211,0,10.422a2.613,2.613,0,0,1-.028.517.661.661,0,0,1-.684.591.671.671,0,0,1-.718-.609,2.6,2.6,0,0,1-.024-.515c0-3.444-.007-6.886.01-10.329a.743.743,0,0,0-.458-.758q-5.382-2.966-10.748-5.961c-.187-.1-.379-.2-.612-.323-.009.172-.021.292-.021.412v12.4a1.653,1.653,0,0,0,.957,1.546q5.335,2.954,10.657,5.925a1.8,1.8,0,0,0,1.91,0q5.282-2.954,10.578-5.879a1.805,1.805,0,0,0,1.026-1.748c-.021-3.411-.009-6.823-.009-10.235Zm-.792-1.249c-.115-.073-.188-.125-.267-.167q-5.29-2.94-10.577-5.882a1.768,1.768,0,0,0-1.868.014q-5.24,2.93-10.492,5.835c-.1.055-.193.122-.319.2a2.3,2.3,0,0,0,.2.132q5.637,3.135,11.27,6.275a.571.571,0,0,0,.642-.038q5.492-3.059,10.99-6.108C9049.435,8088.525,9049.557,8088.439,9049.723,8088.336Z" transform="translate(-9023.945 -8080.587)" opacity="0.5"/>
</svg>
