<svg xmlns="http://www.w3.org/2000/svg" xmlns:xlink="http://www.w3.org/1999/xlink" width="105" height="105" viewBox="0 0 105 105">
  <defs>
    <filter id="Ellipse_220" x="0" y="0" width="105" height="105" filterUnits="userSpaceOnUse">
      <feOffset dy="3" input="SourceAlpha"/>
      <feGaussianBlur stdDeviation="3" result="blur"/>
      <feFlood flood-opacity="0.161"/>
      <feComposite operator="in" in2="blur"/>
      <feComposite in="SourceGraphic"/>
    </filter>
    <clipPath id="clip-path">
      <rect id="Rectangle_10565" data-name="Rectangle 10565" width="46.368" height="46.445" fill="none"/>
    </clipPath>
  </defs>
  <g id="Group_11929" data-name="Group 11929" transform="translate(-907.412 -298)">
    <g id="Group_11753" data-name="Group 11753" transform="translate(605 54)" opacity="0.05">
      <g transform="matrix(1, 0, 0, 1, 302.41, 244)" filter="url(#Ellipse_220)">
        <circle id="Ellipse_220-2" data-name="Ellipse 220" cx="43.5" cy="43.5" r="43.5" transform="translate(9 6)"/>
      </g>
    </g>
    <g id="Group_11789" data-name="Group 11789" transform="translate(941.911 324.278)" opacity="0.28">
      <g id="Group_11788" data-name="Group 11788" clip-path="url(#clip-path)">
        <path id="Path_4731" data-name="Path 4731" d="M32.34,39.113c0,1.047.037,2.1-.008,3.142a4.092,4.092,0,0,1-2.583,3.8,4.686,4.686,0,0,1-1.829.376q-11.741.037-23.483.015A4.373,4.373,0,0,1,0,41.987c.044-10.251.017-20.5.019-30.753A4.324,4.324,0,0,1,4.581,6.668c.785,0,1.569,0,2.415,0,0-.438,0-.842,0-1.246a2.757,2.757,0,0,1,2.76-2.814c.819-.018,1.638-.013,2.457,0a.484.484,0,0,0,.534-.327A3.578,3.578,0,0,1,16.193,0,3.639,3.639,0,0,1,19.64,2.366a.471.471,0,0,0,.513.343c.834-.018,1.669-.012,2.5-.005A2.611,2.611,0,0,1,25.386,5.35c.015.421,0,.842,0,1.324.963,0,1.873-.017,2.781,0a4.255,4.255,0,0,1,3.92,2.835,5.513,5.513,0,0,1,.247,1.62c.032,1.479.017,2.96.006,4.44a.525.525,0,0,0,.327.547,12.252,12.252,0,0,1,6.714,12.433A17.618,17.618,0,0,1,38.6,31.6a.611.611,0,0,0,.155.731c2.071,2.049,4.118,4.123,6.19,6.17a4.257,4.257,0,0,1,1.222,4.487A4.624,4.624,0,0,1,38.372,45q-2.793-2.785-5.576-5.582a1.867,1.867,0,0,1-.248-.451l-.208.149M6.9,8.6c-.817,0-1.572.031-2.323-.007A2.523,2.523,0,0,0,1.853,11.3c.042,10.158.021,20.316.021,30.475,0,.126,0,.252,0,.378A2.209,2.209,0,0,0,2.852,44a2.85,2.85,0,0,0,1.783.5q11.555-.01,23.109,0c.142,0,.284,0,.425-.008a2.342,2.342,0,0,0,2.258-2.372c0-.8,0-1.606,0-2.41,0-.131-.02-.262-.033-.411-.226.048-.41.085-.593.127A12.33,12.33,0,0,1,21.91,38.6a2.093,2.093,0,0,0-.81-.179q-6.593-.016-13.185-.009a3.608,3.608,0,0,1-.612-.028.891.891,0,0,1-.784-.964c.007-.635.4-.96,1.19-.961q5.128,0,10.255,0h.482c-.625-.788-1.248-1.529-1.816-2.311a.77.77,0,0,0-.712-.392c-2.694.015-5.387.009-8.081.007a3.207,3.207,0,0,1-.564-.036.866.866,0,0,1-.751-.842c-.049-.681.346-1.064,1.125-1.065q3.615-.006,7.231,0h.5l-.7-2.8h-.529c-2.158,0-4.316,0-6.474,0-.666,0-1.02-.235-1.131-.709a.955.955,0,0,1,1.038-1.221c2.205-.007,4.411,0,6.616,0h.473l.291-2.814H14.44q-3.426,0-6.853,0c-.65,0-1.009-.293-1.063-.83a.924.924,0,0,1,1.043-1.084c2.473-.005,4.946-.01,7.419.006a.7.7,0,0,0,.752-.454c.356-.716.8-1.389,1.2-2.08.049-.084.087-.174.147-.294H12.97c-1.843,0-3.686,0-5.529,0A.9.9,0,0,1,6.424,18.6c-.014-.612.338-.962,1-.991.157-.007.315,0,.472,0,3.544,0,7.089.006,10.633-.012a1.463,1.463,0,0,0,.808-.272,12.306,12.306,0,0,1,7.968-2.586c1.031.04,2.056.217,3.1.333,0-1.429.057-2.924-.021-4.412a2.056,2.056,0,0,0-1.549-1.9,14.326,14.326,0,0,0-3.445-.172c0,.4,0,.713,0,1.026a2.689,2.689,0,0,1-2.928,2.942q-3.757,0-7.514,0c-1.8,0-3.592.015-5.387-.007A2.582,2.582,0,0,1,6.9,9.893c0-.408,0-.817,0-1.3M16.532,27.1a10.5,10.5,0,1,0,21-.081A10.71,10.71,0,0,0,27.051,16.477,10.594,10.594,0,0,0,16.532,27.1m-.314-16.467q3.164,0,6.327,0c.758,0,1-.238,1-.978q0-2.006,0-4.013c0-.777-.23-1.013-1.007-1.017-1.055-.005-2.109,0-3.164,0s-1.17-.111-1.354-1.133a1.837,1.837,0,0,0-1.973-1.46,1.621,1.621,0,0,0-1.59,1.605.924.924,0,0,1-1.069.984c-1.18.011-2.361,0-3.541.008-.658.006-.911.269-.913.924,0,1.338,0,2.675,0,4.013,0,.836.229,1.068,1.056,1.068q3.116,0,6.233,0M37.484,33.856a12.025,12.025,0,0,1-3.739,3.758,1.111,1.111,0,0,0,.1.145c2.031,2,4.051,4.012,6.1,5.994a2.608,2.608,0,0,0,3.767-.061,2.558,2.558,0,0,0-.107-3.713c-.987-1-1.982-1.983-2.973-2.975l-3.148-3.149" transform="translate(-0.001 0.001)"/>
        <path id="Path_4732" data-name="Path 4732" d="M164,186.289a2.267,2.267,0,0,1,.275-.444q3.35-3.364,6.712-6.716a3.288,3.288,0,0,1,.418-.381.948.948,0,0,1,1.34,1.266,2.518,2.518,0,0,1-.369.427q-3.789,3.793-7.582,7.583c-.711.711-1.106.708-1.827-.012q-1.805-1.8-3.609-3.606a.983.983,0,0,1-.316-1.185.948.948,0,0,1,1.607-.227c.955.937,1.9,1.887,2.839,2.839a2.831,2.831,0,0,1,.295.432l.218.023" transform="translate(-138.891 -156.043)"/>
      </g>
    </g>
  </g>
</svg>
