<svg xmlns="http://www.w3.org/2000/svg" width="130" height="130" viewBox="0 0 130 130">
  <g id="Group_499" data-name="Group 499" transform="translate(-1561.161 -3464.927)">
    <path id="Path_564" data-name="Path 564" d="M1691.161,3505.552h-40.538v-40.625h40.538Zm-8.217-8.18v-24.218H1658.73v24.218Z"/>
    <path id="Path_565" data-name="Path 565" d="M1561.161,3594.927v-40.538h40.625v40.538Zm8.214-32.442V3586.7h24.219v-24.217Z"/>
    <path id="Path_566" data-name="Path 566" d="M1609.911,3594.927v-8.107H1626.1v-24.337h-16.1v-8.113h24.226v24.268h16.241v8.092h-16.175v8.2Z"/>
    <path id="Path_567" data-name="Path 567" d="M1691.161,3521.8h-8.107v8.061h-32.418v-8.028h7.976v-8.057h8.138v7.951h8.093v-8.052h16.318Z"/>
    <path id="Path_568" data-name="Path 568" d="M1658.661,3594.927v-24.293h24.3v7.977h-16.179v16.316Z"/>
    <path id="Path_569" data-name="Path 569" d="M1691.161,3546.177H1675v-8.125h16.161Z"/>
    <path id="Path_570" data-name="Path 570" d="M1674.911,3594.927V3586.8h16.25v8.125Z"/>
    <path id="Path_571" data-name="Path 571" d="M1691.161,3562.427h-8.038V3554.3h8.038Z"/>
    <path id="Path_572" data-name="Path 572" d="M1561.249,3464.985h40.471v40.467h-40.471Zm32.351,8.138h-24.232v24.21H1593.6Z"/>
    <path id="Path_573" data-name="Path 573" d="M1609.94,3546.1v-7.956h-16.224v7.93h-8.093v-16.1h7.977v-16.214h8.144v16.111h16.269v8.144h8.054v8.083Z"/>
    <path id="Path_574" data-name="Path 574" d="M1609.972,3489.339v-16.225h8.016v8.039h24.354v8.089h-8.025v8.114h-8.092v-8.017Z"/>
    <path id="Path_575" data-name="Path 575" d="M1634.315,3513.723v-8.109h8.005v16.112h-32.346v-8Z"/>
    <path id="Path_576" data-name="Path 576" d="M1561.254,3513.723h8.009v16.159h8.047v8.132H1569.3v8.1h-8.044Z"/>
    <path id="Path_577" data-name="Path 577" d="M1658.692,3562.349v-16.126h-8.079v-8.109h16.081v24.235Z"/>
    <path id="Path_578" data-name="Path 578" d="M1626.219,3472.964v-7.972h16.091v7.972Z"/>
    <path id="Path_579" data-name="Path 579" d="M1642.323,3546.119h-7.972v-16.091h7.972Z"/>
    <path id="Path_580" data-name="Path 580" d="M1650.446,3570.5h-7.968v-16.091h7.968Z"/>
    <path id="Path_581" data-name="Path 581" d="M1617.979,3497.516v7.969h-7.968v-7.969Z"/>
    <path id="Path_582" data-name="Path 582" d="M1585.446,3521.746h-7.968v-7.968h7.968Z"/>
    <path id="Path_583" data-name="Path 583" d="M1609.965,3578.586v-7.965h7.968v7.965Z"/>
    <path id="Path_584" data-name="Path 584" d="M1674.821,3489.245h-7.968v-7.967h7.968Z"/>
    <path id="Path_585" data-name="Path 585" d="M1577.466,3578.586v-7.965h7.967v7.965Z"/>
    <path id="Path_586" data-name="Path 586" d="M1585.478,3481.266v7.97h-7.967v-7.97Z"/>
  </g>
</svg>
