<svg xmlns="http://www.w3.org/2000/svg" width="30" height="23.212" viewBox="0 0 30 23.212">
  <g id="Group_1193" data-name="Group 1193" transform="translate(-11813.765 -8650.395)" opacity="0.8">
    <path id="Path_1124" data-name="Path 1124" d="M11843.765,8671.313a3.57,3.57,0,0,1-.611,1.3,2.651,2.651,0,0,1-2.014.975c-.526.017-1.054.006-1.582,0a2.691,2.691,0,0,1-2.848-2.812c0-.378,0-.756,0-1.148h-15.883c0,.359,0,.708,0,1.058a2.826,2.826,0,0,1-.626,1.93,2.591,2.591,0,0,1-1.958.965c-.633.022-1.27.022-1.9,0a2.635,2.635,0,0,1-2.559-2.581q-.035-4.673,0-9.344a3.368,3.368,0,0,1,1.057-2.344,1.644,1.644,0,0,1,.212-.2,3.971,3.971,0,0,0,1.418-2.106c.544-1.593,1.156-3.163,1.745-4.74a2.674,2.674,0,0,1,2.7-1.878q8.039,0,16.078,0a2.689,2.689,0,0,1,2.737,1.913c.7,1.89,1.4,3.78,2.107,5.666a1.993,1.993,0,0,0,.38.608,5.419,5.419,0,0,1,1.2,1.571c.137.351.23.72.343,1.08Zm-15-2.981q6.122,0,12.242,0a1.376,1.376,0,0,0,1.464-1.467c0-1.67.007-3.339,0-5.009a3.97,3.97,0,0,0-.1-.809,3.669,3.669,0,0,0-1.076-1.571.658.658,0,0,0-.553-.238c-7.605.006-15.211.018-22.816-.015a2.412,2.412,0,0,0-1.963.793,2.993,2.993,0,0,0-.907,2.167c.016,1.523.029,3.048,0,4.569a1.488,1.488,0,0,0,1.6,1.591C11820.686,8668.316,11824.728,8668.332,11828.77,8668.332Zm10.214-10.393h1.462c-.036-.114-.062-.206-.095-.3q-.9-2.436-1.811-4.872a1.44,1.44,0,0,0-1.567-1.09h-15.989a1.441,1.441,0,0,0-1.584,1.105l-1.8,4.846c-.035.1-.064.2-.1.31h12.766a4.411,4.411,0,0,1,8.72,0Zm-19.475,11.685c-.979,0-1.923,0-2.867,0a3.011,3.011,0,0,1-1.5-.31c-.02-.012-.052,0-.088,0,0,.563-.019,1.119.006,1.673a1.363,1.363,0,0,0,1.32,1.313c.6.021,1.209.02,1.813,0a1.329,1.329,0,0,0,1.3-1.13C11819.55,8670.676,11819.509,8670.167,11819.509,8669.624Zm18.5,0c0,.46-.01.887,0,1.312a1.369,1.369,0,0,0,1.378,1.373c.564.012,1.131.011,1.7,0a1.336,1.336,0,0,0,1.364-1.2c.057-.6.012-1.2.012-1.839a3.09,3.09,0,0,1-1.651.352c-.818-.007-1.637,0-2.455,0Zm-.376-11.677a3.067,3.067,0,0,0-6.014,0Z"/>
    <path id="Path_1125" data-name="Path 1125" d="M11819.819,8661.8c.74,0,1.482,0,2.225,0,.605,0,.829.226.831.83q.006,1.479,0,2.958c0,.606-.243.841-.859.841q-2.2,0-4.392,0c-.6,0-.853-.252-.854-.854q0-1.465,0-2.929c0-.609.238-.845.853-.847C11818.354,8661.8,11819.086,8661.8,11819.819,8661.8Zm-1.732,1.309v2h3.467v-2Z"/>
    <path id="Path_1126" data-name="Path 1126" d="M11837.705,8661.8c.742,0,1.484,0,2.226,0,.594,0,.833.243.834.835q0,1.479,0,2.958c0,.581-.256.835-.842.836q-2.21,0-4.422,0c-.6,0-.839-.239-.841-.829q-.006-1.493,0-2.987c0-.585.23-.809.82-.812C11836.222,8661.8,11836.963,8661.8,11837.705,8661.8Zm-1.727,1.313v1.988h3.471v-1.988Z"/>
    <path id="Path_1127" data-name="Path 1127" d="M11828.8,8662.509c.956,0,1.912-.007,2.868,0a1.255,1.255,0,0,1,.555.126.54.54,0,0,1,.272.6.587.587,0,0,1-.453.516,1.757,1.757,0,0,1-.4.047q-2.87,0-5.736,0h-.06c-.5-.006-.811-.258-.812-.651s.306-.641.813-.642C11826.826,8662.507,11827.812,8662.509,11828.8,8662.509Z"/>
    <path id="Path_1128" data-name="Path 1128" d="M11828.761,8664.491c.946,0,1.894,0,2.839,0a2.169,2.169,0,0,1,.407.031.626.626,0,0,1,.04,1.218,1.608,1.608,0,0,1-.4.049q-2.868,0-5.737,0c-.552,0-.87-.236-.877-.647s.313-.652.863-.653C11826.848,8664.489,11827.8,8664.491,11828.761,8664.491Z"/>
  </g>
</svg>
