<svg xmlns="http://www.w3.org/2000/svg" width="30" height="22.503" viewBox="0 0 30 22.503">
  <g id="Group_3312" data-name="Group 3312" transform="translate(-476.843 -3261.275)">
    <g id="Group_3311" data-name="Group 3311">
      <path id="Path_3195" data-name="Path 3195" d="M506.843,3265.379v16.171a1.357,1.357,0,0,0-.045.137,2.484,2.484,0,0,1-2.55,2.088q-12.4.006-24.812-.009a2.857,2.857,0,0,1-1.182-.265,2.407,2.407,0,0,1-1.409-2.341q-.006-7.719,0-15.438a1.66,1.66,0,0,1,.008-.234.62.62,0,0,1,.955-.446,1.981,1.981,0,0,1,.23.18q4.68,3.992,9.358,7.985c1,.85,1.969,1.724,2.978,2.555a2.284,2.284,0,0,0,1.731.477,3.207,3.207,0,0,0,1.781-.929q5.877-5.047,11.763-10.085C506.153,3264.792,506.482,3264.838,506.843,3265.379Z" fill="#8a8a8a"/>
      <path id="Path_3196" data-name="Path 3196" d="M491.843,3261.277q6.182,0,12.363,0a2.559,2.559,0,0,1,1.925.771c.426.438.4.786-.064,1.185-2.046,1.738-4.1,3.471-6.137,5.218q-3.535,3.031-7.056,6.081a1.316,1.316,0,0,1-2.061,0q-6.583-5.641-13.171-11.279c-.5-.43-.52-.783-.046-1.247a2.565,2.565,0,0,1,1.884-.729Q485.662,3261.283,491.843,3261.277Z" fill="#8a8a8a"/>
    </g>
  </g>
</svg>
