<svg xmlns="http://www.w3.org/2000/svg" width="28" height="21.331" viewBox="0 0 28 21.331">
  <g id="Group_2937" data-name="Group 2937" transform="translate(-9011.224 -238.321)" opacity="0.5">
    <path id="Path_2868" data-name="Path 2868" d="M9039.224,241.056a6.375,6.375,0,0,1-.492,1.166,2.412,2.412,0,0,1-2.147,1.023q-8.076,0-16.153,0a4.325,4.325,0,0,1-.544-.04,2.444,2.444,0,0,1,0-4.84,4.278,4.278,0,0,1,.518-.039q8.1,0,16.207,0a2.442,2.442,0,0,1,2.363,1.413,5.245,5.245,0,0,1,.249.774Zm-10.747.547h8.066c.657,0,1.038-.3,1.038-.82s-.382-.821-1.037-.821h-16.078a2.722,2.722,0,0,0-.3.007.817.817,0,0,0,0,1.627,2.722,2.722,0,0,0,.3.007Z"/>
    <path id="Path_2869" data-name="Path 2869" d="M9039.224,249.26a6.336,6.336,0,0,1-.492,1.165,2.413,2.413,0,0,1-2.147,1.024q-8.076,0-16.153,0a4.326,4.326,0,0,1-.544-.039,2.444,2.444,0,0,1,0-4.84,4.086,4.086,0,0,1,.518-.039q8.1,0,16.207,0a2.441,2.441,0,0,1,2.363,1.414,5.245,5.245,0,0,1,.249.774Zm-10.72-1.094h-8.039c-.655,0-1.037.3-1.037.82s.381.82,1.038.82h16.078a2.722,2.722,0,0,0,.3-.007.817.817,0,0,0,0-1.626,2.734,2.734,0,0,0-.3-.007Z"/>
    <path id="Path_2870" data-name="Path 2870" d="M9039.224,257.463a6.316,6.316,0,0,1-.492,1.166,2.412,2.412,0,0,1-2.147,1.023q-8.076,0-16.153,0a4.521,4.521,0,0,1-.544-.039,2.444,2.444,0,0,1,0-4.84,4.085,4.085,0,0,1,.518-.04q8.1,0,16.207,0a2.442,2.442,0,0,1,2.363,1.413,5.246,5.246,0,0,1,.249.774Zm-10.747.547h8.066c.657,0,1.038-.3,1.038-.82s-.381-.821-1.037-.821h-16.078a2.741,2.741,0,0,0-.3.006.817.817,0,0,0,0,1.627,2.718,2.718,0,0,0,.3.007Z"/>
    <path id="Path_2871" data-name="Path 2871" d="M9016.142,240.77a2.459,2.459,0,1,1-2.464-2.447A2.48,2.48,0,0,1,9016.142,240.77Zm-2.448.831a.819.819,0,1,0-.828-.809A.827.827,0,0,0,9013.693,241.6Z"/>
    <path id="Path_2872" data-name="Path 2872" d="M9011.225,248.946a2.458,2.458,0,1,1,2.411,2.5A2.478,2.478,0,0,1,9011.225,248.946Zm3.277.033a.818.818,0,1,0-.812.825A.825.825,0,0,0,9014.5,248.979Z"/>
    <path id="Path_2873" data-name="Path 2873" d="M9013.7,259.649a2.459,2.459,0,1,1,2.446-2.464A2.482,2.482,0,0,1,9013.7,259.649Zm-.021-1.641a.819.819,0,1,0-.809-.828A.827.827,0,0,0,9013.674,258.008Z"/>
  </g>
</svg>
