<svg xmlns="http://www.w3.org/2000/svg" xmlns:xlink="http://www.w3.org/1999/xlink" width="32.577" height="42.49" viewBox="0 0 32.577 42.49">
  <defs>
    <clipPath id="clip-path">
      <rect id="Rectangle_10548" data-name="Rectangle 10548" width="32.577" height="42.49" fill="none"/>
    </clipPath>
  </defs>
  <g id="Group_11689" data-name="Group 11689" opacity="0.4">
    <g id="Group_11688" data-name="Group 11688" clip-path="url(#clip-path)">
      <path id="Path_4739" data-name="Path 4739" d="M20.69,0c.167.058.337.112.5.176A2.86,2.86,0,0,1,23,3.256c-.009.079-.018.158-.033.286.315,0,.6-.016.891,0A2.826,2.826,0,0,1,26.129,7.93c-.618,1-1.259,1.983-1.888,2.974-.072.114-.139.232-.183.307a10.408,10.408,0,0,1,1.539.424c.7.307.689.346,1.282-.179a4.289,4.289,0,0,0,1.448-2.891c.053-.535.316-.8.774-.766.427.029.662.322.635.846a5.3,5.3,0,0,1-1.76,3.719c-.171.159-.356.3-.569.484.107.043.184.082.267.106a5.091,5.091,0,0,1,3.4,2.975.7.7,0,0,1-.2.927.621.621,0,0,1-.837-.01,1.494,1.494,0,0,1-.318-.472,3.74,3.74,0,0,0-2.506-2.063,2.593,2.593,0,0,0-.331-.042,2.546,2.546,0,0,1-1.594,1.876c.123.167.232.317.343.465A38.115,38.115,0,0,1,31.5,27.451,18.751,18.751,0,0,1,32.55,34.5c-.2,3.351-1.614,5.929-4.767,7.367a7.091,7.091,0,0,1-2.976.627q-8.506,0-17.012,0A7.708,7.708,0,0,1,.28,36.317a16.665,16.665,0,0,1,.617-8.3,37.341,37.341,0,0,1,6.04-11.394c.107-.143.213-.287.341-.461A2.508,2.508,0,0,1,5.745,13.2a2.045,2.045,0,0,1,1.06-1.466,11.815,11.815,0,0,1,1.713-.558c-.6-.946-1.256-1.949-1.881-2.97A4.614,4.614,0,0,1,6.081,7.02,2.788,2.788,0,0,1,8.52,3.565c.355-.031.715,0,1.085,0a6.922,6.922,0,0,1,.012-1.253A2.769,2.769,0,0,1,11.626.1c.09-.029.178-.065.266-.1Zm-4.4,41.076v0c2.822,0,5.644.028,8.465-.009a6.161,6.161,0,0,0,5.077-2.61,7.668,7.668,0,0,0,1.318-4.5,17.223,17.223,0,0,0-.962-5.979,37.015,37.015,0,0,0-6.472-11.484.7.7,0,0,0-.494-.194c-2.421-.012-4.841-.008-7.262-.009a3.309,3.309,0,0,1-.5-.021.663.663,0,0,1-.58-.693c0-.452.315-.713.876-.713q4.3,0,8.59,0a1.051,1.051,0,1,0,0-2.093q-8.051,0-16.1,0A1.061,1.061,0,0,0,7.087,13.8a1.074,1.074,0,0,0,1.18,1.06c.968,0,1.937,0,2.9,0,.54,0,.881.286.878.722s-.319.7-.849.7c-.622.008-1.246-.016-1.867.014a.74.74,0,0,0-.508.248c-1.02,1.41-2.088,2.792-3.008,4.266A26.31,26.31,0,0,0,1.472,32.456a10.479,10.479,0,0,0,.442,4.38,6.3,6.3,0,0,0,6.115,4.238c2.753.01,5.505,0,8.258,0m.01-29.762c1.867,0,3.734,0,5.6-.007.159,0,.394-.046.464-.155.9-1.376,1.812-2.745,2.64-4.163a1.366,1.366,0,0,0-1.243-2.017c-.346-.008-.692.011-1.037-.006a.422.422,0,0,0-.486.316c-.534,1.332-1.089,2.654-1.653,3.973a1.391,1.391,0,0,1-.4.553.616.616,0,0,1-.8-.062.717.717,0,0,1-.171-.9c.75-1.794,1.5-3.586,2.24-5.386a1.394,1.394,0,0,0-1.258-2.033q-3.9-.041-7.8,0A1.394,1.394,0,0,0,11.1,3.388c.1.271.22.536.332.8Q12.4,6.5,13.362,8.812a.725.725,0,0,1-.5,1.091c-.352.068-.637-.111-.819-.541-.467-1.105-.924-2.215-1.391-3.32-.149-.353-.226-.836-.5-1.012s-.749-.042-1.134-.062A1.42,1.42,0,0,0,7.6,5.7a1.437,1.437,0,0,0,.141,1.595Q8.933,9.135,10.095,11a.61.61,0,0,0,.6.32c1.867-.011,3.734-.006,5.6-.006" transform="translate(-0.001)" fill="#1a1818"/>
      <path id="Path_4740" data-name="Path 4740" d="M122.126,256.252a.746.746,0,0,1-.572.732.659.659,0,0,1-.79-.383c-.234-.468-.444-.95-.639-1.436a.418.418,0,0,0-.467-.3q-1.078.023-2.157,0a.441.441,0,0,0-.5.312c-.175.449-.379.888-.585,1.324a.7.7,0,0,1-.97.435.717.717,0,0,1-.333-1.012q1.373-3.1,2.757-6.2a.727.727,0,0,1,.683-.51.736.736,0,0,1,.718.522q1.368,3.082,2.738,6.164a3.451,3.451,0,0,1,.117.348m-4.34-2.809h1.562l-.781-1.754-.781,1.754" transform="translate(-102.277 -221.593)" fill="#1a1818"/>
      <path id="Path_4741" data-name="Path 4741" d="M194.556,251.765c.52-.778,1.005-1.5,1.48-2.222a.725.725,0,0,1,.892-.336.7.7,0,0,1,.315,1.094c-.532.824-1.073,1.642-1.632,2.448a.455.455,0,0,0,0,.617c.538.77,1.052,1.557,1.569,2.34.308.466.261.876-.115,1.126s-.763.131-1.08-.338c-.469-.7-.931-1.4-1.432-2.147l-1.195,1.788c-.092.138-.182.277-.277.413a.718.718,0,1,1-1.187-.786c.523-.8,1.046-1.594,1.589-2.377a.485.485,0,0,0,0-.655c-.54-.768-1.052-1.556-1.571-2.339a.726.726,0,1,1,1.188-.79c.472.7.936,1.4,1.447,2.164" transform="translate(-170.474 -221.542)" fill="#1a1818"/>
      <path id="Path_4742" data-name="Path 4742" d="M48.949,250.588v3.655q0,.85,0,1.7c0,.658-.248,1.012-.711,1.023s-.734-.353-.735-1.039q0-2.405,0-4.81v-.529c-.734,0-1.422.008-2.11,0a.674.674,0,0,1-.688-.548.644.644,0,0,1,.3-.749.83.83,0,0,1,.429-.115q2.779-.011,5.557,0a.711.711,0,0,1,.781.724.741.741,0,0,1-.82.693c-.648.005-1.3,0-2,0" transform="translate(-39.725 -221.546)" fill="#1a1818"/>
    </g>
  </g>
</svg>
