<svg xmlns="http://www.w3.org/2000/svg" xmlns:xlink="http://www.w3.org/1999/xlink" width="28" height="27.999" viewBox="0 0 28 27.999">
  <defs>
    <clipPath id="clip-path">
      <rect id="Rectangle_1505" data-name="Rectangle 1505" width="28" height="27.999" transform="translate(12572.82 1845.271)" fill="none"/>
    </clipPath>
  </defs>
  <g id="Group_11672" data-name="Group 11672" transform="translate(-12572.82 -1845.271)" opacity="0.8">
    <g id="Group_2688" data-name="Group 2688">
      <g id="Group_2687" data-name="Group 2687" clip-path="url(#clip-path)">
        <g id="Group_11671" data-name="Group 11671">
          <path id="Path_4729" data-name="Path 4729" d="M12580.727,1845.466c1.284-.062,2.568-.119,3.853-.188a3.183,3.183,0,0,1,2.541.935q6.372,6.37,12.74,12.748a3.082,3.082,0,0,1,.113,4.356c-.029.032-.061.064-.093.094q-4.441,4.491-8.933,8.934a3.081,3.081,0,0,1-4.356.046c-.021-.022-.044-.044-.065-.067q-6.4-6.374-12.774-12.773a3.161,3.161,0,0,1-.926-2.5c.124-2.6.239-5.19.369-7.78a6.5,6.5,0,0,1,.16-1.323,3.01,3.01,0,0,1,2.656-2.239c1.569-.113,3.144-.17,4.715-.252v.009m-.056,1.263h0c-1.468.071-2.937.118-4.4.22a1.811,1.811,0,0,0-1.773,1.77c-.026.261-.035.523-.047.785-.121,2.529-.236,5.059-.364,7.587a2.036,2.036,0,0,0,.612,1.639c.662.655,1.317,1.316,1.977,1.975q5.3,5.3,10.606,10.605a1.876,1.876,0,0,0,2.639.282,1.834,1.834,0,0,0,.188-.173q4.438-4.413,8.852-8.852a1.852,1.852,0,0,0,.111-2.615c-.04-.044-.082-.085-.126-.125q-6.344-6.356-12.7-12.7a2.018,2.018,0,0,0-1.607-.592c-1.322.069-2.646.129-3.97.193"/>
          <path id="Path_4730" data-name="Path 4730" d="M12577.5,1852.731a2.783,2.783,0,0,1,5.566-.012h0a2.783,2.783,0,0,1-5.566.012m1.263.012a1.52,1.52,0,1,0,1.515-1.526h-.006a1.506,1.506,0,0,0-1.509,1.5v.023"/>
        </g>
      </g>
    </g>
  </g>
</svg>
