<svg id="Group_11690" data-name="Group 11690" xmlns="http://www.w3.org/2000/svg" xmlns:xlink="http://www.w3.org/1999/xlink" width="166.593" height="140.73" viewBox="0 0 166.593 140.73">
  <defs>
    <clipPath id="clip-path">
      <rect id="Rectangle_10526" data-name="Rectangle 10526" width="166.593" height="140.73" fill="none"/>
    </clipPath>
  </defs>
  <g id="Group_11689" data-name="Group 11689">
    <g id="Group_11688" data-name="Group 11688" clip-path="url(#clip-path)">
      <text id="TRUSTESTATE" transform="translate(10.865 134.654)" fill="#10192d" font-size="20" font-family="Montserrat-Medium, Montserrat" font-weight="500"><tspan x="0" y="0">TRU</tspan><tspan y="0" letter-spacing="-0.009em">S</tspan><tspan y="0">TE</tspan><tspan y="0" letter-spacing="-0.01em">S</tspan><tspan y="0" letter-spacing="-0.034em">T</tspan><tspan y="0" letter-spacing="-0.035em">A</tspan><tspan y="0">TE</tspan></text>
    </g>
  </g>
  <rect id="Rectangle_10527" data-name="Rectangle 10527" width="5.043" height="5.046" transform="translate(77.067 29.316)" fill="#10192d"/>
  <rect id="Rectangle_10528" data-name="Rectangle 10528" width="5.051" height="5.046" transform="translate(85.112 29.316)" fill="#10192d"/>
  <rect id="Rectangle_10529" data-name="Rectangle 10529" width="5.043" height="5.044" transform="translate(77.067 37.364)" fill="#10192d"/>
  <rect id="Rectangle_10530" data-name="Rectangle 10530" width="5.051" height="5.044" transform="translate(85.112 37.364)" fill="#10192d"/>
  <rect id="Rectangle_10531" data-name="Rectangle 10531" width="5.629" height="5.634" transform="translate(30.428 58.412)" fill="#10192d"/>
  <rect id="Rectangle_10532" data-name="Rectangle 10532" width="5.638" height="5.634" transform="translate(39.409 58.412)" fill="#10192d"/>
  <rect id="Rectangle_10533" data-name="Rectangle 10533" width="5.629" height="5.633" transform="translate(30.428 67.396)" fill="#10192d"/>
  <rect id="Rectangle_10534" data-name="Rectangle 10534" width="5.638" height="5.633" transform="translate(39.409 67.396)" fill="#10192d"/>
  <rect id="Rectangle_10535" data-name="Rectangle 10535" width="4.002" height="4.001" transform="translate(124.805 51.91)" fill="#10192d"/>
  <rect id="Rectangle_10536" data-name="Rectangle 10536" width="4.007" height="4.001" transform="translate(131.182 51.91)" fill="#10192d"/>
  <rect id="Rectangle_10537" data-name="Rectangle 10537" width="4.002" height="4" transform="translate(124.805 58.29)" fill="#10192d"/>
  <rect id="Rectangle_10538" data-name="Rectangle 10538" width="4.007" height="4" transform="translate(131.182 58.29)" fill="#10192d"/>
  <path id="Path_4705" data-name="Path 4705" d="M90.036,42.34l27.886-27.889L146.7,43.224,118.808,71.11ZM117.922,0,82.807,35.112l-9.872-9.868L46.449,51.727l7.023,7.432L72.935,39.694,111.58,78.34l-9.126,9.126L126.4,77.974l38.276-38.28,16.545,16.549,10.355-4.1-26.9-26.894L153.919,36Z" transform="translate(-35.151)" fill="#10192d"/>
  <path id="Path_4706" data-name="Path 4706" d="M49.974,263.782,7.9,219.274,0,227.252l48.407,44.767,118.186-54.465Z" transform="translate(0 -164.636)" fill="#90b40d"/>
</svg>
