<svg xmlns="http://www.w3.org/2000/svg" width="38.55" height="36.649" viewBox="0 0 38.55 36.649">
  <g id="Group_11927" data-name="Group 11927" transform="translate(-1664.285 -3057.451)">
    <rect id="Rectangle_1857" data-name="Rectangle 1857" width="37.55" height="35.649" rx="3.103" transform="translate(1664.785 3057.951)" fill="none" stroke="#8a8a8a" stroke-width="1"/>
    <path id="Path_3205" data-name="Path 3205" d="M1691.378,3070.185a8.513,8.513,0,0,0,2.182-.618,8.308,8.308,0,0,1-1.231,1.456,7.108,7.108,0,0,1-.707.587.219.219,0,0,0-.111.206,11.786,11.786,0,0,1-2.173,7.226,10.865,10.865,0,0,1-7.147,4.65,11.649,11.649,0,0,1-8.441-1.488c-.049-.029-.1-.062-.19-.123a8.38,8.38,0,0,0,6.03-1.688,4.24,4.24,0,0,1-3.834-2.88,4.225,4.225,0,0,0,.922.066,3.494,3.494,0,0,0,.919-.13,4.172,4.172,0,0,1-2.361-1.47,4.062,4.062,0,0,1-.9-2.6,5.57,5.57,0,0,0,.872.345,3.227,3.227,0,0,0,.949.134,4.158,4.158,0,0,1-1.689-2.5,4.093,4.093,0,0,1,.455-2.966c.114.128.215.244.317.358a11.564,11.564,0,0,0,6.8,3.783c.386.067.775.1,1.163.141.128.013.193.02.163-.162a4.1,4.1,0,0,1,2.985-4.733,3.988,3.988,0,0,1,3.917,1.027.31.31,0,0,0,.325.091,8.367,8.367,0,0,0,2.184-.826c.056-.031.115-.058.225-.113a4.1,4.1,0,0,1-1.7,2.186C1691.3,3070.2,1691.306,3070.207,1691.378,3070.185Z" fill="#8a8a8a"/>
  </g>
</svg>
