<svg xmlns="http://www.w3.org/2000/svg" width="25.637" height="25.647" viewBox="0 0 25.637 25.647">
  <g id="Group_1836" data-name="Group 1836" transform="translate(0)" opacity="0.8">
    <path id="Path_3792" data-name="Path 3792" d="M11956.809,1333.431h-5.52a4.567,4.567,0,0,1-4.551-4.549v-5.489a.908.908,0,0,1,.6-.885.827.827,0,0,1,.98.252,1.338,1.338,0,0,1,.24.7c.02,1.792.01,3.583.011,5.375a2.729,2.729,0,0,0,2.692,2.764h11.007a2.729,2.729,0,0,0,2.777-2.679c0-.028,0-.056,0-.083v-5.432a.912.912,0,0,1,1.8-.265,1.546,1.546,0,0,1,.031.368v5.4a4.568,4.568,0,0,1-4.549,4.521Q11959.567,1333.431,11956.809,1333.431Z" transform="translate(-11943.988 -1307.788)"/>
    <path id="Path_3793" data-name="Path 3793" d="M11956.434,1308.016a2.5,2.5,0,0,1-.227.316q-5.443,5.456-10.893,10.906a.971.971,0,0,1-1.049.333.911.911,0,0,1-.594-1.142.961.961,0,0,1,.18-.321c.062-.072.132-.138.2-.205l11.606-11.606a.951.951,0,0,1,1.317-.261.941.941,0,0,1,.253.251l11.688,11.687a.923.923,0,0,1-1.146,1.448.882.882,0,0,1-.137-.133q-1.7-1.714-3.415-3.419l-7.579-7.586A3.036,3.036,0,0,1,11956.434,1308.016Z" transform="translate(-11943.63 -1305.875)"/>
  </g>
</svg>
