<svg xmlns="http://www.w3.org/2000/svg" xmlns:xlink="http://www.w3.org/1999/xlink" width="28" height="28.002" viewBox="0 0 28 28.002">
  <defs>
    <clipPath id="clip-path">
      <rect id="Rectangle_1499" data-name="Rectangle 1499" width="28" height="28.002" transform="translate(12572.82 1372.704)" fill="none"/>
    </clipPath>
  </defs>
  <g id="Group_11659" data-name="Group 11659" transform="translate(-12572.82 -1372.704)" opacity="0.8">
    <g id="Group_2676" data-name="Group 2676">
      <g id="Group_2675" data-name="Group 2675" clip-path="url(#clip-path)">
        <g id="Group_11658" data-name="Group 11658">
          <path id="Path_4714" data-name="Path 4714" d="M12584.358,1372.7c.057.022.113.048.172.066a1.742,1.742,0,0,1,1.262,1.691,1.776,1.776,0,0,1-1.272,1.686,16,16,0,0,0-2.42.906,10.137,10.137,0,0,0-5.651,7.986,10.3,10.3,0,0,0,4.939,10.553,10.639,10.639,0,0,0,13.832-2.239,11.106,11.106,0,0,0,2.162-4.309,1.732,1.732,0,0,1,2.086-1.281,1.888,1.888,0,0,1,.253.081,1.714,1.714,0,0,1,1.059,1.968,14.194,14.194,0,0,1-12.316,10.812,14.131,14.131,0,0,1-15.136-10.367c-.23-.847-.311-1.735-.459-2.6-.016-.081-.032-.16-.048-.24v-1.752c.06-.468.094-.942.181-1.4a13.986,13.986,0,0,1,8.641-10.852c.679-.295,1.409-.476,2.115-.709Z"/>
          <path id="Path_4715" data-name="Path 4715" d="M12590.267,1372.7c.6.2,1.22.358,1.8.6a14.036,14.036,0,0,1,8.679,9.788,1.749,1.749,0,0,1-3.349,1.012c-.013-.041-.023-.082-.032-.124a10.683,10.683,0,0,0-6.847-7.526c-.314-.119-.642-.2-.965-.293a1.747,1.747,0,0,1,.014-3.412.669.669,0,0,0,.1-.045Z"/>
        </g>
      </g>
    </g>
  </g>
</svg>
