<svg xmlns="http://www.w3.org/2000/svg" width="98.969" height="32.108" viewBox="0 0 98.969 32.108">
  <g id="Group_154" data-name="Group 154" transform="translate(-710.363 -14364.554)">
    <g id="Group_153" data-name="Group 153">
      <path id="Path_111" data-name="Path 111" d="M753.266,14396.128h-8.075l5.047-31.019h8.076Z" fill="#0066b2"/>
      <path id="Path_112" data-name="Path 112" d="M738.4,14365.109l-7.7,21.335-.91-4.6v0l-2.717-13.947s-.328-2.794-3.831-2.794H710.512l-.149.524a30.168,30.168,0,0,1,8.447,3.547l7.016,26.947h8.414l12.849-31.019Z" fill="#0066b2"/>
      <path id="Path_113" data-name="Path 113" d="M801.917,14396.128h7.415l-6.466-31.019h-6.492a3.711,3.711,0,0,0-3.728,2.312l-12.044,28.707h8.418l1.683-4.606H800.97Zm-8.887-10.973,4.244-11.608,2.387,11.608Z" fill="#0066b2"/>
      <path id="Path_114" data-name="Path 114" d="M781.234,14372.568l1.152-6.662a23.314,23.314,0,0,0-7.263-1.353c-4.008,0-13.525,1.753-13.525,10.27,0,8.014,11.17,8.113,11.17,12.32s-10.018,3.456-13.324.8l-1.2,6.963a22.618,22.618,0,0,0,9.116,1.753c5.51,0,13.825-2.855,13.825-10.62,0-8.064-11.27-8.815-11.27-12.321S777.778,14370.664,781.234,14372.568Z" fill="#0066b2"/>
    </g>
    <path id="Path_115" data-name="Path 115" d="M729.787,14381.851l-2.717-13.947s-.328-2.794-3.831-2.794H710.512l-.149.524a31.307,31.307,0,0,1,11.986,6.019A24.186,24.186,0,0,1,729.787,14381.851Z" fill="#f9a533"/>
  </g>
</svg>
