<svg xmlns="http://www.w3.org/2000/svg" width="24.287" height="24.293" viewBox="0 0 24.287 24.293">
  <g id="Group_1440" data-name="Group 1440" transform="translate(-9430.033 -452.119)" opacity="0.8">
    <path id="Path_2862" data-name="Path 2862" d="M9438.9,476.409c-.048-.026-.093-.054-.142-.076a.963.963,0,0,1-.627-.917q-.01-2.035,0-4.073a.981.981,0,0,1,.964-1c.018,0,.034,0,.051,0q7.072,0,14.142,0a1,1,0,0,1,1.019.974v.049q.007,2,0,4a1.059,1.059,0,0,1-.8,1.041Z"/>
    <path id="Path_2863" data-name="Path 2863" d="M9430.033,452.943a1.144,1.144,0,0,1,1.254-.813c1.231.023,2.464.006,3.7.007a1.019,1.019,0,0,1,1.118.909.908.908,0,0,1,0,.206v3.837a1.02,1.02,0,0,1-.915,1.116,1.061,1.061,0,0,1-.2,0c-1.232,0-2.465-.015-3.7.008a1.145,1.145,0,0,1-1.254-.813Z"/>
    <path id="Path_2864" data-name="Path 2864" d="M9430.033,462.045a1.142,1.142,0,0,1,1.254-.813c1.231.023,2.464.006,3.7.007a1.019,1.019,0,0,1,1.118.909.908.908,0,0,1,0,.206v3.837a1.021,1.021,0,0,1-.916,1.116,1.053,1.053,0,0,1-.2,0c-1.232,0-2.465-.015-3.7.007a1.143,1.143,0,0,1-1.254-.812Z"/>
    <path id="Path_2865" data-name="Path 2865" d="M9430.033,471.147a1.142,1.142,0,0,1,1.254-.813c1.231.023,2.465.006,3.7.007a1.018,1.018,0,0,1,1.116.913.891.891,0,0,1,0,.2c0,1.232-.016,2.464.008,3.7a1.147,1.147,0,0,1-.813,1.255h-4.457a1.2,1.2,0,0,1-.806-.807Z"/>
    <path id="Path_2866" data-name="Path 2866" d="M9446.249,452.137h6.9a1.033,1.033,0,0,1,1.162.886.982.982,0,0,1,0,.283v3.768a1.024,1.024,0,0,1-1.129,1.129h-13.939a1.01,1.01,0,0,1-1.11-1.1v-3.864a1.012,1.012,0,0,1,.907-1.108.935.935,0,0,1,.218,0Z"/>
    <path id="Path_2867" data-name="Path 2867" d="M9446.221,467.307h-6.945a1.021,1.021,0,0,1-1.145-.882,1.044,1.044,0,0,1,0-.253v-3.817a1.012,1.012,0,0,1,1.116-1.116h13.939a1.022,1.022,0,0,1,1.125.909.913.913,0,0,1,0,.225v3.816a1.02,1.02,0,0,1-.915,1.117.987.987,0,0,1-.2,0Z"/>
  </g>
</svg>
