<svg xmlns="http://www.w3.org/2000/svg" width="40.566" height="53.523" viewBox="0 0 40.566 53.523">
  <g id="Group_2582" data-name="Group 2582" transform="translate(-14195.024 -1324.496)" opacity="0.8">
    <path id="Path_2480" data-name="Path 2480" d="M14199.106,1378.019a2.823,2.823,0,0,1-2.136-2.068,6.525,6.525,0,0,1-.086-1.349.534.534,0,0,0-.323-.57,2.633,2.633,0,0,1-1.535-2.525q0-21.138,0-42.276a4.552,4.552,0,0,1,4.706-4.727q15.573-.016,31.145,0a4.551,4.551,0,0,1,4.706,4.727q.012,21.138,0,42.276a2.631,2.631,0,0,1-1.536,2.525.535.535,0,0,0-.322.57,6.458,6.458,0,0,1-.087,1.349,2.822,2.822,0,0,1-2.134,2.068Zm34.755-40.635h-37.107v.668q0,16.51,0,33.023a5.566,5.566,0,0,0,.029.625.94.94,0,0,0,.89.872,3.059,3.059,0,0,0,.469.013h34.329a3.084,3.084,0,0,0,.471-.013.94.94,0,0,0,.889-.872,5.344,5.344,0,0,0,.029-.625q0-16.512,0-33.023Zm-37.069-1.837h37.028c0-2.305.009-4.568-.013-6.83a2.086,2.086,0,0,0-.257-.891,2.912,2.912,0,0,0-2.877-1.591q-15.363.018-30.727.008c-.208,0-.418.009-.626.025a2.681,2.681,0,0,0-2.513,2.5C14196.747,1331.007,14196.792,1333.254,14196.792,1335.547Zm1.869,38.814c-.234,1.468.188,1.935,1.508,1.931,10.1-.027,20.194-.014,30.292-.015.208,0,.418,0,.626-.017a.88.88,0,0,0,.881-.806,8.288,8.288,0,0,0,.01-1.093Z"/>
    <path id="Path_2481" data-name="Path 2481" d="M14230.045,1354.939a14.737,14.737,0,1,1-14.744-14.718A14.757,14.757,0,0,1,14230.045,1354.939Zm-14.761,13.027a13,13,0,1,0-12.968-13.031A13.031,13.031,0,0,0,14215.284,1367.966Z"/>
    <path id="Path_2482" data-name="Path 2482" d="M14207.417,1333.625c-1.9,0-3.795,0-5.692,0a1.841,1.841,0,0,1-2.087-2.085c0-.5-.014-1.01,0-1.515a1.784,1.784,0,0,1,1.673-1.81,3.835,3.835,0,0,1,.469-.024q5.665,0,11.332,0a2.019,2.019,0,0,1,1.793.765,5.4,5.4,0,0,1,0,3.931,1.88,1.88,0,0,1-1.641.745C14211.317,1333.62,14209.367,1333.625,14207.417,1333.625Zm6.064-1.747v-1.9h-12.051v1.9Z"/>
    <path id="Path_2483" data-name="Path 2483" d="M14220.868,1333.617a2.707,2.707,0,1,1,2.7-2.688A2.72,2.72,0,0,1,14220.868,1333.617Zm.949-2.707a.962.962,0,1,0-.943.982A.975.975,0,0,0,14221.817,1330.91Z"/>
    <path id="Path_2484" data-name="Path 2484" d="M14228.251,1333.617a2.708,2.708,0,0,1,.007-5.416,2.751,2.751,0,0,1,2.714,2.692A2.721,2.721,0,0,1,14228.251,1333.617Zm0-1.725a.976.976,0,1,0-.957-.969A.986.986,0,0,0,14228.248,1331.892Z"/>
    <path id="Path_2485" data-name="Path 2485" d="M14204.271,1354.9a11.029,11.029,0,1,1,10.871,11.1A11.06,11.06,0,0,1,14204.271,1354.9Zm11.021-9.246a9.3,9.3,0,1,0,9.318,9.252A9.336,9.336,0,0,0,14215.292,1345.652Z"/>
    <path id="Path_2486" data-name="Path 2486" d="M14222.668,1354.82c-.059.158-.092.518-.29.7a1.008,1.008,0,0,1-.829.216,1.048,1.048,0,0,1-.58-.632c-.14-.459-.112-.967-.223-1.439a5.567,5.567,0,0,0-5.151-4.294,2.5,2.5,0,0,1-.312-.024.866.866,0,1,1,.136-1.726,7.039,7.039,0,0,1,3.21.806A7.426,7.426,0,0,1,14222.668,1354.82Z"/>
  </g>
</svg>
