<svg xmlns="http://www.w3.org/2000/svg" width="43.464" height="54.87" viewBox="0 0 43.464 54.87">
  <g id="Group_2614" data-name="Group 2614" transform="translate(-14046.31 -2292.691)" opacity="0.8">
    <path id="Path_2560" data-name="Path 2560" d="M14067.72,2292.691a8.113,8.113,0,0,1,3.313,1.4,6.847,6.847,0,1,1-5.374-1.293,2.66,2.66,0,0,0,.347-.108Zm3.741,6.846a4.569,4.569,0,1,0-4.548,4.592A4.606,4.606,0,0,0,14071.461,2299.537Z"/>
    <path id="Path_2561" data-name="Path 2561" d="M14071.468,2319.453c0,1.493-.017,2.814.006,4.134.013.721.512,1.121,1.35,1.123,2.393.006,4.787-.035,7.179.021a8.977,8.977,0,0,1,2.73.418,7.711,7.711,0,0,1,5.366,6.48q.838,5.342,1.627,10.688a4.606,4.606,0,0,1-3.6,5.143,4.555,4.555,0,0,1-5.441-3.341c-.694-2.932-1.294-5.887-1.927-8.833-.266-1.234-.5-1.436-1.769-1.436-2.18,0-4.357,0-6.536,0a7.952,7.952,0,0,1-8.126-7.983c-.047-4.536-.023-9.073-.006-13.609a3.415,3.415,0,0,1,3.583-3.567c.786-.009,1.571,0,2.357,0a5.876,5.876,0,0,1,4.325,1.8c1.509,1.521,3.037,3.024,4.542,4.55a1.591,1.591,0,0,0,1.234.515c1.125-.018,2.251-.028,3.375,0a3.428,3.428,0,0,1,.764,6.773.465.465,0,0,1-.1.026c-2.3-.028-4.6.019-6.9-.119a4.566,4.566,0,0,1-2.849-1.583C14072.294,2320.29,14071.934,2319.925,14071.468,2319.453Zm-6.862-.259c0,2.036,0,4.072,0,6.108a8.451,8.451,0,0,0,.058,1.336,5.705,5.705,0,0,0,5.825,4.931c2.321.017,4.644-.007,6.966.007a3.384,3.384,0,0,1,3.449,2.838q.958,4.473,1.932,8.942a2.348,2.348,0,0,0,2.951,1.838c1.251-.341,1.861-1.5,1.624-3.021-.5-3.227-1.062-6.446-1.461-9.685a5.952,5.952,0,0,0-6.324-5.517c-2.282.1-4.572.023-6.858.018a3.41,3.41,0,0,1-3.588-3.556c-.02-2.179,0-4.358-.008-6.537a1.186,1.186,0,0,1,.726-1.251,1.206,1.206,0,0,1,1.392.405q1.507,1.522,3.031,3.031a3.475,3.475,0,0,0,2.552,1.05c1.554,0,3.108,0,4.662,0,.824,0,1.338-.436,1.348-1.125s-.5-1.144-1.315-1.149c-1.055-.007-2.108-.012-3.162,0a3.777,3.777,0,0,1-2.879-1.183c-1.5-1.531-3.033-3.03-4.543-4.551a3.58,3.58,0,0,0-2.734-1.131c-.75.017-1.5,0-2.25,0-1.008.006-1.393.389-1.394,1.4Q14064.6,2315.791,14064.605,2319.194Z"/>
    <path id="Path_2562" data-name="Path 2562" d="M14060.868,2345.29a12.731,12.731,0,0,0,12-8.022c.381-.978.946-1.331,1.659-1.037.672.278.835.931.47,1.875a14.852,14.852,0,1,1-16.641-19.983c.913-.175,1.548.173,1.644.9a1.163,1.163,0,0,1-1.095,1.322,12.567,12.567,0,0,0,.313,24.767C14059.87,2345.234,14060.535,2345.256,14060.868,2345.29Z"/>
  </g>
</svg>
