<svg xmlns="http://www.w3.org/2000/svg" width="24.714" height="24.712" viewBox="0 0 24.714 24.712">
  <g id="Group_2918" data-name="Group 2918" transform="translate(-9288.744 -267.185)">
    <path id="Path_2847" data-name="Path 2847" d="M9305.289,284.967a10.075,10.075,0,1,1,1.269-1.276c.067.07.135.145.205.216q3.167,3.165,6.334,6.329a.955.955,0,0,1,.321,1,.907.907,0,0,1-1.451.452,3.126,3.126,0,0,1-.226-.218q-3.136-3.135-6.271-6.271A2.4,2.4,0,0,1,9305.289,284.967Zm1.762-7.709a8.24,8.24,0,1,0-8.257,8.231A8.252,8.252,0,0,0,9307.051,277.258Z" fill="#fff"/>
  </g>
</svg>
