<svg xmlns="http://www.w3.org/2000/svg" width="28" height="27.994" viewBox="0 0 28 27.994">
  <g id="Group_1191" data-name="Group 1191" transform="translate(-11814.765 -8719.659)" opacity="0.8">
    <path id="Path_1122" data-name="Path 1122" d="M11839.648,8747.653h-21.767a1.1,1.1,0,0,0-.148-.056,3.579,3.579,0,0,1-2.777-2.387c-.082-.218-.128-.45-.191-.675v-19.574a1.067,1.067,0,0,0,.055-.15,3.5,3.5,0,0,1,2.95-2.9,26.97,26.97,0,0,1,2.756-.067c.114,0,.229,0,.334,0a.361.361,0,0,0,.026-.082c0-.382,0-.765,0-1.147a.877.877,0,1,1,1.748,0c0,.405,0,.812,0,1.214h12.253c0-.456-.007-.894,0-1.329a.873.873,0,0,1,1.745.043c0,.433,0,.865,0,1.306h2.5a3.594,3.594,0,0,1,3.621,3.623q0,9.28,0,18.558a3.6,3.6,0,0,1-2.312,3.389C11840.192,8747.516,11839.916,8747.574,11839.648,8747.653Zm-23.135-18.368v.236q0,7.216,0,14.433a1.875,1.875,0,0,0,2,1.949q10.252,0,20.5,0a1.878,1.878,0,0,0,2-2.006q0-7.163,0-14.323v-.289Zm24.5-1.766c0-.724.017-1.417,0-2.107a1.767,1.767,0,0,0-1.556-1.766c-.756-.086-1.527-.04-2.291-.053-.17,0-.339,0-.524,0,0,.3,0,.563,0,.826a.876.876,0,1,1-1.748-.01c0-.27,0-.538,0-.8h-12.252c0,.293,0,.572,0,.853a.874.874,0,1,1-1.747-.008c0-.279,0-.56,0-.858h-2.351a3.043,3.043,0,0,0-.327.01,1.789,1.789,0,0,0-1.657,1.589c-.079.711-.032,1.436-.041,2.154a1.053,1.053,0,0,0,.024.173Z"/>
  </g>
</svg>
